<svg width="77" height="71" viewBox="0 0 77 71" fill="none" xmlns="http://www.w3.org/2000/svg">
<g filter="url(#filter0_d)">
<rect width="42.2013" height="54.0014" rx="2.56303" transform="matrix(0.997587 0.0694238 -0.0700907 0.997541 27.9006 7)" fill="url(#paint0_linear)"/>
</g>
<rect width="30.1438" height="1.80005" rx="0.900023" transform="matrix(0.997587 0.0694238 -0.0700907 0.997541 33.4943 13.404)" fill="#94969E"/>
<rect width="2.4115" height="1.80005" rx="0.900023" transform="matrix(0.997587 0.0694238 -0.0700907 0.997541 36.207 17.803)" fill="#FDE155"/>
<rect width="18.0863" height="1.80005" rx="0.900023" transform="matrix(0.997587 0.0694238 -0.0700907 0.997541 41.0182 18.1379)" fill="#94969E"/>
<rect width="2.4115" height="1.80005" rx="0.900023" transform="matrix(0.997587 0.0694238 -0.0700907 0.997541 35.9125 21.9927)" fill="#FDE155"/>
<rect width="9.646" height="1.80005" rx="0.900023" transform="matrix(0.997587 0.0694238 -0.0700907 0.997541 40.7239 22.3276)" fill="#94969E"/>
<rect width="30.1438" height="1.80005" rx="0.900023" transform="matrix(0.997587 0.0694238 -0.0700907 0.997541 32.3588 29.5645)" fill="#94969E"/>
<rect width="2.4115" height="1.80005" rx="0.900023" transform="matrix(0.997587 0.0694238 -0.0700907 0.997541 34.777 38.1533)" fill="#FDE155"/>
<rect width="9.646" height="1.80005" rx="0.900023" transform="matrix(0.997587 0.0694238 -0.0700907 0.997541 39.5883 38.4882)" fill="#94969E"/>
<path d="M56.224 54.5564C56.3578 54.8759 56.5808 55.1522 56.8674 55.3535C57.154 55.5547 57.4926 55.6728 57.8442 55.6942C58.5548 55.7436 59.0333 55.4272 59.0671 54.9466C59.1075 54.3709 58.6553 54.1342 57.8971 53.7446L57.4808 53.5346C56.2797 52.9321 55.5028 52.2279 55.5989 50.8604C55.6874 49.6004 56.735 48.71 58.2665 48.8166C58.7661 48.8158 59.2551 48.9594 59.6724 49.2292C60.0897 49.4991 60.4169 49.8833 60.6129 50.3338L59.2183 51.0807C59.146 50.8592 59.0067 50.6643 58.8188 50.522C58.6309 50.3797 58.4034 50.2966 58.1664 50.2839C58.064 50.2666 57.959 50.2703 57.8582 50.2949C57.7574 50.3195 57.663 50.3645 57.5811 50.4268C57.4991 50.4892 57.4313 50.5677 57.382 50.6572C57.3328 50.7467 57.3031 50.8454 57.295 50.9469C57.2595 51.451 57.564 51.6769 58.2757 52.0401L58.6921 52.2496C60.1064 52.9631 60.8849 53.6442 60.7863 55.0471C60.6801 56.5594 59.4091 57.3035 57.7799 57.1901C57.1425 57.1855 56.5197 57.0003 55.9866 56.6569C55.4535 56.3135 55.0329 55.8265 54.7755 55.2547L56.224 54.5564ZM50.1559 54.2821C50.3926 54.7691 50.6098 55.1818 51.1977 55.2227C51.761 55.2619 52.1319 55.0707 52.1909 54.2314L52.5922 48.5203L54.3071 48.6397L53.9042 54.3743C53.782 56.1134 52.685 56.8326 51.1655 56.7269C50.6268 56.718 50.1031 56.5495 49.6632 56.2437C49.2234 55.9379 48.8881 55.509 48.7015 55.0135L50.1559 54.2821Z" fill="#FDE155"/>
<path d="M22.1375 34.9429L22.138 34.9439C22.2664 35.2009 22.4637 35.4172 22.7079 35.5685C22.9522 35.7198 23.2337 35.8 23.521 35.8H47.1007C47.8004 35.8 48.4717 36.0788 48.967 36.5756C49.4622 37.0725 49.7408 37.7467 49.7408 38.45V67.85C49.7408 68.5533 49.4622 69.2275 48.967 69.7244C48.4717 70.2212 47.8004 70.5 47.1007 70.5H3.14005C2.44038 70.5 1.76904 70.2212 1.27381 69.7244C0.77853 69.2275 0.5 68.5533 0.5 67.85V32.15C0.5 31.4467 0.77853 30.7725 1.27381 30.2756C1.76904 29.7788 2.44038 29.5 3.14005 29.5L17.7936 29.5L17.7958 29.5C18.2848 29.4978 18.7648 29.6327 19.1818 29.8895C19.5986 30.1462 19.9359 30.5147 20.1555 30.9537C20.1556 30.9538 20.1556 30.954 20.1557 30.9541L22.1375 34.9429Z" fill="#242528" stroke="#494A50"/>
<path fill-rule="evenodd" clip-rule="evenodd" d="M25.5 48H24.5V52.4999H20V53.4999H24.5V58H25.5V53.4999H30V52.4999H25.5V48Z" fill="#494A50"/>
<defs>
<filter id="filter0_d" x="17.8812" y="0.764058" width="58.3531" height="69.2702" filterUnits="userSpaceOnUse" color-interpolation-filters="sRGB">
<feFlood flood-opacity="0" result="BackgroundImageFix"/>
<feColorMatrix in="SourceAlpha" type="matrix" values="0 0 0 0 0 0 0 0 0 0 0 0 0 0 0 0 0 0 127 0"/>
<feOffset/>
<feGaussianBlur stdDeviation="3.20379"/>
<feColorMatrix type="matrix" values="0 0 0 0 0.0901961 0 0 0 0 0.0941176 0 0 0 0 0.109804 0 0 0 0.75 0"/>
<feBlend mode="normal" in2="BackgroundImageFix" result="effect1_dropShadow"/>
<feBlend mode="normal" in="SourceGraphic" in2="effect1_dropShadow" result="shape"/>
</filter>
<linearGradient id="paint0_linear" x1="42.2013" y1="-2.07209e-06" x2="0.249764" y2="54.1947" gradientUnits="userSpaceOnUse">
<stop stop-color="#494A50"/>
<stop offset="1" stop-color="#303136"/>
</linearGradient>
</defs>
</svg>
