<svg width="30" height="30" viewBox="0 0 30 30" fill="none" xmlns="http://www.w3.org/2000/svg">
<circle cx="15" cy="15" r="15" fill="#FF6666"/>
<path d="M10.3333 16.1667C10.3333 16.4761 10.4562 16.7728 10.675 16.9916C10.8938 17.2104 11.1906 17.3333 11.5 17.3333H19.6667C19.9114 17.3331 20.1499 17.256 20.3484 17.1128C20.5469 16.9696 20.6953 16.7676 20.7727 16.5353L21.9393 13.0353C21.9977 12.86 22.0136 12.6734 21.9858 12.4907C21.9579 12.3081 21.8871 12.1347 21.7791 11.9848C21.6711 11.8348 21.529 11.7127 21.3646 11.6284C21.2002 11.5442 21.0181 11.5001 20.8333 11.5H12.6667V9.16667C12.6667 8.85725 12.5438 8.5605 12.325 8.34171C12.1062 8.12292 11.8094 8 11.5 8H8V10.3333H10.3333V16.1667Z" fill="white"/>
<path d="M10.9167 22C11.8832 22 12.6667 21.2165 12.6667 20.25C12.6667 19.2835 11.8832 18.5 10.9167 18.5C9.95019 18.5 9.16669 19.2835 9.16669 20.25C9.16669 21.2165 9.95019 22 10.9167 22Z" fill="white"/>
<path d="M20.25 22C21.2165 22 22 21.2165 22 20.25C22 19.2835 21.2165 18.5 20.25 18.5C19.2835 18.5 18.5 19.2835 18.5 20.25C18.5 21.2165 19.2835 22 20.25 22Z" fill="white"/>
</svg>
