<svg width="150" height="480" viewBox="0 0 150 480" fill="none" xmlns="http://www.w3.org/2000/svg">
<g opacity="0.5">
<path fill-rule="evenodd" clip-rule="evenodd" d="M76.2002 438.6V480H73.8002V438.6H76.2002Z" fill="url(#paint0_linear)"/>
<path fill-rule="evenodd" clip-rule="evenodd" d="M19.2002 172.8V219H16.8002V172.8H19.2002Z" fill="url(#paint1_linear)"/>
<path fill-rule="evenodd" clip-rule="evenodd" d="M133.2 -7.62939e-06V41.4H130.8V-7.62939e-06H133.2Z" fill="url(#paint2_linear)"/>
<path fill-rule="evenodd" clip-rule="evenodd" d="M76.2002 322.8V403.8H73.8002V322.8H76.2002Z" fill="#22242A"/>
<path fill-rule="evenodd" clip-rule="evenodd" d="M76.2002 145.2V219H73.8002V145.2H76.2002Z" fill="#22242A"/>
<path fill-rule="evenodd" clip-rule="evenodd" d="M76.2002 253.8V288H73.8002V253.8H76.2002Z" fill="#22242A"/>
<path fill-rule="evenodd" clip-rule="evenodd" d="M19.2002 254.4V288.6H16.8002V254.4H19.2002Z" fill="#22242A"/>
<path fill-rule="evenodd" clip-rule="evenodd" d="M133.2 76.2V110.4H130.8V76.2H133.2Z" fill="#22242A"/>
<path fill-rule="evenodd" clip-rule="evenodd" d="M73.8002 383.4C73.8002 372.796 65.2041 364.2 54.6002 364.2H46.2002C29.963 364.2 16.8002 351.037 16.8002 334.8V322.8H19.2002V334.8C19.2002 349.712 31.2885 361.8 46.2002 361.8H54.6002C66.5295 361.8 76.2002 371.471 76.2002 383.4H73.8002Z" fill="#22242A"/>
<path fill-rule="evenodd" clip-rule="evenodd" d="M76.1998 200.4C76.1998 189.465 85.0646 180.6 95.9998 180.6H103.8C120.037 180.6 133.2 167.437 133.2 151.2V145.2H130.8V151.2C130.8 166.112 118.711 178.2 103.8 178.2H95.9998C83.7391 178.2 73.7998 188.139 73.7998 200.4H76.1998Z" fill="#22242A"/>
<path fill-rule="evenodd" clip-rule="evenodd" d="M18 218.4C8.05887 218.4 0 226.459 0 236.4C0 246.341 8.05887 254.4 18 254.4C27.9411 254.4 36 246.341 36 236.4C36 226.459 27.9411 218.4 18 218.4ZM13.7576 240.643C16.1008 242.986 19.8998 242.986 22.2429 240.643C24.5861 238.299 24.5861 234.5 22.2429 232.157C19.8998 229.814 16.1008 229.814 13.7576 232.157C11.4145 234.5 11.4145 238.299 13.7576 240.643Z" fill="url(#paint3_linear)"/>
<path fill-rule="evenodd" clip-rule="evenodd" d="M18 287.4C8.05887 287.4 0 295.459 0 305.4C0 315.341 8.05887 323.4 18 323.4C27.9411 323.4 36 315.341 36 305.4C36 295.459 27.9411 287.4 18 287.4ZM13.7576 309.643C16.1008 311.986 19.8998 311.986 22.2429 309.643C24.5861 307.299 24.5861 303.5 22.2429 301.157C19.8998 298.814 16.1008 298.814 13.7576 301.157C11.4145 303.5 11.4145 307.299 13.7576 309.643Z" fill="url(#paint4_linear)"/>
<path fill-rule="evenodd" clip-rule="evenodd" d="M75 218.4C65.0589 218.4 57 226.459 57 236.4C57 246.341 65.0589 254.4 75 254.4C84.9411 254.4 93 246.341 93 236.4C93 226.459 84.9411 218.4 75 218.4ZM75.0003 244.885L83.4855 236.4L75.0003 227.915L66.515 236.4L75.0003 244.885Z" fill="url(#paint5_linear)"/>
<path fill-rule="evenodd" clip-rule="evenodd" d="M75 403.2C65.0589 403.2 57 411.259 57 421.2C57 431.141 65.0589 439.2 75 439.2C84.9411 439.2 93 431.141 93 421.2C93 411.259 84.9411 403.2 75 403.2ZM75.0003 429.685L83.4855 421.2L75.0003 412.715L66.515 421.2L75.0003 429.685Z" fill="url(#paint6_linear)"/>
<path fill-rule="evenodd" clip-rule="evenodd" d="M132 109.8C122.059 109.8 114 117.859 114 127.8C114 137.741 122.059 145.8 132 145.8C141.941 145.8 150 137.741 150 127.8C150 117.859 141.941 109.8 132 109.8ZM124.8 123L132 135L139.2 123H124.8Z" fill="url(#paint7_linear)"/>
<path fill-rule="evenodd" clip-rule="evenodd" d="M132 40.8C122.059 40.8 114 48.8589 114 58.8C114 68.7411 122.059 76.8 132 76.8C141.941 76.8 150 68.7411 150 58.8C150 48.8589 141.941 40.8 132 40.8ZM124.8 54L132 66L139.2 54H124.8Z" fill="url(#paint8_linear)"/>
<path fill-rule="evenodd" clip-rule="evenodd" d="M62.2721 292.672C55.2426 299.702 55.2426 311.098 62.2721 318.128C69.3015 325.157 80.6985 325.157 87.7279 318.128C94.7574 311.098 94.7574 299.702 87.7279 292.672C80.6985 285.643 69.3015 285.643 62.2721 292.672ZM81.0002 311.4V299.4H69.0002V311.4H81.0002Z" fill="url(#paint9_linear)"/>
<path fill-rule="evenodd" clip-rule="evenodd" d="M62.2721 115.072C55.2426 122.102 55.2426 133.498 62.2721 140.528C69.3015 147.557 80.6985 147.557 87.7279 140.528C94.7574 133.498 94.7574 122.102 87.7279 115.072C80.6985 108.043 69.3015 108.043 62.2721 115.072ZM81.0002 133.8V121.8H69.0002V133.8H81.0002Z" fill="url(#paint10_linear)"/>
</g>
<defs>
<linearGradient id="paint0_linear" x1="74.7002" y1="480" x2="74.7002" y2="438.6" gradientUnits="userSpaceOnUse">
<stop stop-color="#1C1D22"/>
<stop offset="1" stop-color="#22242A"/>
</linearGradient>
<linearGradient id="paint1_linear" x1="17.7002" y1="219" x2="17.7002" y2="172.8" gradientUnits="userSpaceOnUse">
<stop stop-color="#22242A"/>
<stop offset="1" stop-color="#1C1D22"/>
</linearGradient>
<linearGradient id="paint2_linear" x1="131.7" y1="41.4" x2="131.7" y2="-7.62939e-06" gradientUnits="userSpaceOnUse">
<stop stop-color="#22242A"/>
<stop offset="1" stop-color="#1C1D22"/>
</linearGradient>
<linearGradient id="paint3_linear" x1="0" y1="254.4" x2="36" y2="218.4" gradientUnits="userSpaceOnUse">
<stop stop-color="#2E3038"/>
<stop offset="1" stop-color="#1E1F25"/>
</linearGradient>
<linearGradient id="paint4_linear" x1="0" y1="323.4" x2="36" y2="287.4" gradientUnits="userSpaceOnUse">
<stop stop-color="#2E3038"/>
<stop offset="1" stop-color="#1E1F25"/>
</linearGradient>
<linearGradient id="paint5_linear" x1="57" y1="254.4" x2="93" y2="218.4" gradientUnits="userSpaceOnUse">
<stop stop-color="#2E3038"/>
<stop offset="1" stop-color="#1E1F25"/>
</linearGradient>
<linearGradient id="paint6_linear" x1="57" y1="439.2" x2="93" y2="403.2" gradientUnits="userSpaceOnUse">
<stop stop-color="#2E3038"/>
<stop offset="1" stop-color="#1E1F25"/>
</linearGradient>
<linearGradient id="paint7_linear" x1="114" y1="145.8" x2="150" y2="109.8" gradientUnits="userSpaceOnUse">
<stop stop-color="#2E3038"/>
<stop offset="1" stop-color="#1E1F25"/>
</linearGradient>
<linearGradient id="paint8_linear" x1="114" y1="76.8" x2="150" y2="40.8" gradientUnits="userSpaceOnUse">
<stop stop-color="#2E3038"/>
<stop offset="1" stop-color="#1E1F25"/>
</linearGradient>
<linearGradient id="paint9_linear" x1="57" y1="323.4" x2="93" y2="287.4" gradientUnits="userSpaceOnUse">
<stop stop-color="#2E3038"/>
<stop offset="1" stop-color="#1E1F25"/>
</linearGradient>
<linearGradient id="paint10_linear" x1="57" y1="145.8" x2="93" y2="109.8" gradientUnits="userSpaceOnUse">
<stop stop-color="#2E3038"/>
<stop offset="1" stop-color="#1E1F25"/>
</linearGradient>
</defs>
</svg>
