<svg width="150" height="480" viewBox="0 0 150 480" fill="none" xmlns="http://www.w3.org/2000/svg">
<g opacity="0.5">
<path fill-rule="evenodd" clip-rule="evenodd" d="M73.7998 438.6V480H76.1998V438.6H73.7998Z" fill="url(#paint0_linear)"/>
<path fill-rule="evenodd" clip-rule="evenodd" d="M130.8 172.8V219H133.2V172.8H130.8Z" fill="url(#paint1_linear)"/>
<path fill-rule="evenodd" clip-rule="evenodd" d="M16.7998 -7.62939e-06V41.4H19.1998V-7.62939e-06H16.7998Z" fill="url(#paint2_linear)"/>
<path fill-rule="evenodd" clip-rule="evenodd" d="M73.7998 322.8V403.8H76.1998V322.8H73.7998Z" fill="#22242A"/>
<path fill-rule="evenodd" clip-rule="evenodd" d="M73.7998 145.2V219H76.1998V145.2H73.7998Z" fill="#22242A"/>
<path fill-rule="evenodd" clip-rule="evenodd" d="M73.7998 253.8V288H76.1998V253.8H73.7998Z" fill="#22242A"/>
<path fill-rule="evenodd" clip-rule="evenodd" d="M130.8 254.4V288.6H133.2V254.4H130.8Z" fill="#22242A"/>
<path fill-rule="evenodd" clip-rule="evenodd" d="M16.7998 76.2V110.4H19.1998V76.2H16.7998Z" fill="#22242A"/>
<path fill-rule="evenodd" clip-rule="evenodd" d="M76.1998 383.4C76.1998 372.796 84.7959 364.2 95.3998 364.2H103.8C120.037 364.2 133.2 351.037 133.2 334.8V322.8H130.8V334.8C130.8 349.712 118.711 361.8 103.8 361.8H95.3998C83.4705 361.8 73.7998 371.471 73.7998 383.4H76.1998Z" fill="#22242A"/>
<path fill-rule="evenodd" clip-rule="evenodd" d="M73.8002 200.4C73.8002 189.465 64.9354 180.6 54.0002 180.6H46.2002C29.963 180.6 16.8002 167.437 16.8002 151.2V145.2H19.2002V151.2C19.2002 166.112 31.2885 178.2 46.2002 178.2H54.0002C66.2609 178.2 76.2002 188.139 76.2002 200.4H73.8002Z" fill="#22242A"/>
<path fill-rule="evenodd" clip-rule="evenodd" d="M132 218.4C141.941 218.4 150 226.459 150 236.4C150 246.341 141.941 254.4 132 254.4C122.059 254.4 114 246.341 114 236.4C114 226.459 122.059 218.4 132 218.4ZM136.242 240.643C133.899 242.986 130.1 242.986 127.757 240.643C125.414 238.299 125.414 234.5 127.757 232.157C130.1 229.814 133.899 229.814 136.242 232.157C138.586 234.5 138.586 238.299 136.242 240.643Z" fill="url(#paint3_linear)"/>
<path fill-rule="evenodd" clip-rule="evenodd" d="M132 287.4C141.941 287.4 150 295.459 150 305.4C150 315.341 141.941 323.4 132 323.4C122.059 323.4 114 315.341 114 305.4C114 295.459 122.059 287.4 132 287.4ZM136.242 309.643C133.899 311.986 130.1 311.986 127.757 309.643C125.414 307.299 125.414 303.5 127.757 301.157C130.1 298.814 133.899 298.814 136.242 301.157C138.586 303.5 138.586 307.299 136.242 309.643Z" fill="url(#paint4_linear)"/>
<path fill-rule="evenodd" clip-rule="evenodd" d="M75 218.4C84.9411 218.4 93 226.459 93 236.4C93 246.341 84.9411 254.4 75 254.4C65.0589 254.4 57 246.341 57 236.4C57 226.459 65.0589 218.4 75 218.4ZM74.9997 244.885L66.5145 236.4L74.9997 227.915L83.485 236.4L74.9997 244.885Z" fill="url(#paint5_linear)"/>
<path fill-rule="evenodd" clip-rule="evenodd" d="M75 403.2C84.9411 403.2 93 411.259 93 421.2C93 431.141 84.9411 439.2 75 439.2C65.0589 439.2 57 431.141 57 421.2C57 411.259 65.0589 403.2 75 403.2ZM74.9997 429.685L66.5145 421.2L74.9997 412.715L83.485 421.2L74.9997 429.685Z" fill="url(#paint6_linear)"/>
<path fill-rule="evenodd" clip-rule="evenodd" d="M18 109.8C27.9411 109.8 36 117.859 36 127.8C36 137.741 27.9411 145.8 18 145.8C8.05888 145.8 0 137.741 0 127.8C0 117.859 8.05888 109.8 18 109.8ZM25.2 123L18 135L10.8 123H25.2Z" fill="url(#paint7_linear)"/>
<path fill-rule="evenodd" clip-rule="evenodd" d="M18 40.8C27.9411 40.8 36 48.8589 36 58.8C36 68.7411 27.9411 76.8 18 76.8C8.05888 76.8 0 68.7411 0 58.8C0 48.8589 8.05888 40.8 18 40.8ZM25.2 54L18 66L10.8 54H25.2Z" fill="url(#paint8_linear)"/>
<path fill-rule="evenodd" clip-rule="evenodd" d="M87.7279 292.672C94.7574 299.702 94.7574 311.098 87.7279 318.128C80.6985 325.157 69.3015 325.157 62.2721 318.128C55.2426 311.098 55.2426 299.702 62.2721 292.672C69.3015 285.643 80.6985 285.643 87.7279 292.672ZM68.9998 311.4V299.4H80.9998V311.4H68.9998Z" fill="url(#paint9_linear)"/>
<path fill-rule="evenodd" clip-rule="evenodd" d="M87.7279 115.072C94.7574 122.102 94.7574 133.498 87.7279 140.528C80.6985 147.557 69.3015 147.557 62.2721 140.528C55.2426 133.498 55.2426 122.102 62.2721 115.072C69.3015 108.043 80.6985 108.043 87.7279 115.072ZM68.9998 133.8V121.8H80.9998V133.8H68.9998Z" fill="url(#paint10_linear)"/>
</g>
<defs>
<linearGradient id="paint0_linear" x1="75.2998" y1="480" x2="75.2998" y2="438.6" gradientUnits="userSpaceOnUse">
<stop stop-color="#1C1D22"/>
<stop offset="1" stop-color="#22242A"/>
</linearGradient>
<linearGradient id="paint1_linear" x1="132.3" y1="219" x2="132.3" y2="172.8" gradientUnits="userSpaceOnUse">
<stop stop-color="#22242A"/>
<stop offset="1" stop-color="#1C1D22"/>
</linearGradient>
<linearGradient id="paint2_linear" x1="18.2998" y1="41.4" x2="18.2998" y2="-7.62939e-06" gradientUnits="userSpaceOnUse">
<stop stop-color="#22242A"/>
<stop offset="1" stop-color="#1C1D22"/>
</linearGradient>
<linearGradient id="paint3_linear" x1="150" y1="254.4" x2="114" y2="218.4" gradientUnits="userSpaceOnUse">
<stop stop-color="#2E3038"/>
<stop offset="1" stop-color="#1E1F25"/>
</linearGradient>
<linearGradient id="paint4_linear" x1="150" y1="323.4" x2="114" y2="287.4" gradientUnits="userSpaceOnUse">
<stop stop-color="#2E3038"/>
<stop offset="1" stop-color="#1E1F25"/>
</linearGradient>
<linearGradient id="paint5_linear" x1="93" y1="254.4" x2="57" y2="218.4" gradientUnits="userSpaceOnUse">
<stop stop-color="#2E3038"/>
<stop offset="1" stop-color="#1E1F25"/>
</linearGradient>
<linearGradient id="paint6_linear" x1="93" y1="439.2" x2="57" y2="403.2" gradientUnits="userSpaceOnUse">
<stop stop-color="#2E3038"/>
<stop offset="1" stop-color="#1E1F25"/>
</linearGradient>
<linearGradient id="paint7_linear" x1="36" y1="145.8" x2="0" y2="109.8" gradientUnits="userSpaceOnUse">
<stop stop-color="#2E3038"/>
<stop offset="1" stop-color="#1E1F25"/>
</linearGradient>
<linearGradient id="paint8_linear" x1="36" y1="76.8" x2="0" y2="40.8" gradientUnits="userSpaceOnUse">
<stop stop-color="#2E3038"/>
<stop offset="1" stop-color="#1E1F25"/>
</linearGradient>
<linearGradient id="paint9_linear" x1="93" y1="323.4" x2="57" y2="287.4" gradientUnits="userSpaceOnUse">
<stop stop-color="#2E3038"/>
<stop offset="1" stop-color="#1E1F25"/>
</linearGradient>
<linearGradient id="paint10_linear" x1="93" y1="145.8" x2="57" y2="109.8" gradientUnits="userSpaceOnUse">
<stop stop-color="#2E3038"/>
<stop offset="1" stop-color="#1E1F25"/>
</linearGradient>
</defs>
</svg>
