<svg width="48" height="96" viewBox="0 0 48 96" fill="none" xmlns="http://www.w3.org/2000/svg">
    <path opacity="0.4"
        d="M36 23.976C36 21.816 35.456 19.8 34.368 17.928C33.296 16.12 31.856 14.688 30.048 13.632C28.192 12.544 26.176 12 24 12C21.824 12 19.808 12.544 17.952 13.632C16.144 14.688 14.704 16.12 13.632 17.928C12.544 19.8 12 21.816 12 23.976C12 25.768 12.384 27.472 13.152 29.088C13.888 30.656 14.92 32 16.248 33.12L16.272 33.144C16.288 33.16 16.296 33.168 16.296 33.168C16.584 33.392 16.808 33.56 16.968 33.672C17.016 33.704 17.096 33.76 17.208 33.84L17.304 33.936C18.296 34.608 19.36 35.12 20.496 35.472C21.648 35.824 22.824 36 24.024 36C25.224 36 26.392 35.824 27.528 35.472C28.68 35.12 29.752 34.608 30.744 33.936L31.776 33.168C31.792 33.168 31.8 33.16 31.8 33.144C33.096 32.008 34.112 30.656 34.848 29.088C35.616 27.472 36 25.768 36 23.976ZM24 34.488C22.896 34.488 21.824 34.32 20.784 33.984C19.792 33.648 18.856 33.176 17.976 32.568C17.992 32.44 18.032 32.256 18.096 32.016V31.992C18.24 31.48 18.448 30.992 18.72 30.528C18.992 30.048 19.312 29.632 19.68 29.28C20.048 28.928 20.448 28.616 20.88 28.344C21.328 28.072 21.816 27.864 22.344 27.72C22.888 27.576 23.44 27.504 24 27.504C24.816 27.504 25.6 27.656 26.352 27.96C27.12 28.264 27.8 28.696 28.392 29.256C28.936 29.816 29.368 30.464 29.688 31.2C29.848 31.632 29.968 32.088 30.048 32.568C29.168 33.192 28.208 33.672 27.168 34.008C26.144 34.328 25.088 34.488 24 34.488ZM20.328 23.4C20.12 22.904 20.016 22.384 20.016 21.84C20.016 21.296 20.12 20.784 20.328 20.304C20.552 19.824 20.84 19.408 21.192 19.056C21.544 18.704 21.968 18.416 22.464 18.192C22.928 17.984 23.44 17.88 24 17.88C24.56 17.88 25.08 17.992 25.56 18.216C26.04 18.424 26.456 18.704 26.808 19.056C27.16 19.408 27.44 19.824 27.648 20.304C27.872 20.784 27.984 21.304 27.984 21.864C27.984 22.424 27.88 22.936 27.672 23.4C27.464 23.864 27.176 24.28 26.808 24.648C26.44 25.016 26.008 25.304 25.512 25.512C25.032 25.72 24.52 25.824 23.976 25.824C23.448 25.824 22.936 25.72 22.44 25.512C21.96 25.304 21.536 25.024 21.168 24.672C20.8 24.304 20.52 23.88 20.328 23.4ZM31.464 31.344C31.464 31.328 31.464 31.312 31.464 31.296L31.44 31.224C31.2 30.472 30.856 29.768 30.408 29.112C29.96 28.456 29.416 27.888 28.776 27.408C28.296 27.056 27.776 26.752 27.216 26.496C27.472 26.336 27.704 26.144 27.912 25.92C28.264 25.568 28.576 25.176 28.848 24.744C29.392 23.864 29.656 22.904 29.64 21.864C29.64 21.096 29.496 20.368 29.208 19.68C28.92 18.976 28.512 18.368 27.984 17.856C27.456 17.344 26.848 16.944 26.16 16.656C25.472 16.352 24.744 16.2 23.976 16.2C23.208 16.2 22.472 16.352 21.768 16.656C21.08 16.944 20.48 17.352 19.968 17.88C19.456 18.392 19.056 19 18.768 19.704C18.48 20.392 18.336 21.12 18.336 21.888C18.336 22.416 18.408 22.912 18.552 23.376C18.696 23.904 18.896 24.368 19.152 24.768C19.344 25.136 19.656 25.528 20.088 25.944C20.296 26.168 20.536 26.36 20.808 26.52C20.248 26.776 19.728 27.088 19.248 27.456C18.624 27.936 18.08 28.504 17.616 29.16C17.168 29.8 16.824 30.496 16.584 31.248C16.568 31.28 16.56 31.32 16.56 31.368C15.584 30.392 14.832 29.28 14.304 28.032C13.76 26.752 13.488 25.408 13.488 24C13.488 22.096 13.968 20.328 14.928 18.696C15.856 17.112 17.112 15.856 18.696 14.928C20.328 13.968 22.096 13.488 24 13.488C25.904 13.488 27.672 13.968 29.304 14.928C30.888 15.856 32.144 17.112 33.072 18.696C34.032 20.328 34.512 22.088 34.512 23.976C34.512 25.368 34.248 26.704 33.72 27.984C33.192 29.248 32.44 30.368 31.464 31.344Z"
        fill="white" />
    <path opacity="0.4"
        d="M31.848 68.76L36 69.576V74.424L31.848 75.24L34.2 78.768L30.768 82.2L27.24 79.848L26.424 84H21.576L20.76 79.848L17.232 82.2L13.8 78.768L16.152 75.24L12 74.424V69.576L16.152 68.76L13.8 65.232L17.232 61.8L20.76 64.152L21.576 60H26.424L27.24 64.152L30.768 61.8L34.2 65.232L31.848 68.76ZM30.288 73.824L34.272 73.008V71.016L30.288 70.2L29.736 68.904L32.04 65.472L30.6 64.032L27.168 66.336L25.872 65.784L25.056 61.8H23.064L22.248 65.784L20.952 66.336L17.52 64.032L16.08 65.472L18.384 68.904L17.832 70.2L13.848 71.016V73.008L17.832 73.824L18.384 75.12L16.08 78.552L17.52 79.992L20.952 77.688L22.248 78.24L23.064 82.224H25.056L25.872 78.24L27.168 77.688L30.6 79.992L32.04 78.552L29.736 75.12L30.288 73.824ZM22.104 69.144C22.68 68.76 23.312 68.568 24 68.568C24.624 68.568 25.192 68.728 25.704 69.048C26.232 69.352 26.648 69.768 26.952 70.296C27.272 70.808 27.432 71.376 27.432 72C27.432 72.816 27.168 73.544 26.64 74.184C26.128 74.808 25.472 75.2 24.672 75.36C23.872 75.52 23.112 75.408 22.392 75.024C21.672 74.64 21.152 74.072 20.832 73.32C20.512 72.552 20.472 71.784 20.712 71.016C20.952 70.232 21.416 69.608 22.104 69.144ZM23.04 73.416C23.328 73.608 23.648 73.704 24 73.704C24.48 73.704 24.88 73.544 25.2 73.224C25.536 72.888 25.704 72.48 25.704 72C25.704 71.6 25.576 71.24 25.32 70.92C25.064 70.6 24.736 70.4 24.336 70.32C23.936 70.24 23.552 70.296 23.184 70.488C22.832 70.68 22.576 70.968 22.416 71.352C22.256 71.72 22.232 72.104 22.344 72.504C22.472 72.888 22.704 73.192 23.04 73.416Z"
        fill="white" />
</svg>