<svg width="48" height="240" viewBox="0 0 48 240" fill="none" xmlns="http://www.w3.org/2000/svg">
    <rect width="2" height="48" fill="white" />
    <path
        d="M29.496 12H20.496L19.008 13.488V18H14.496L13.008 19.488V34.56L14.496 36H26.568L28.008 34.56V30H32.688L34.008 28.56V16.488L29.496 12ZM29.496 14.112L31.872 16.488H29.496V14.112ZM26.496 34.488H14.496V19.488H19.008V28.56L20.496 30H26.496V34.488ZM32.496 28.488H20.496V13.488H28.008V18H32.496V28.488Z"
        fill="white" />
    <path opacity="0.4"
        d="M27.24 60C25.624 60 24.128 60.44 22.752 61.32C21.392 62.2 20.376 63.384 19.704 64.872C19.048 66.344 18.84 67.888 19.08 69.504C19.336 71.104 20 72.512 21.072 73.728L13.008 82.872L14.112 83.88L22.176 74.76C23.104 75.496 24.136 76 25.272 76.272C26.424 76.544 27.576 76.576 28.728 76.368C29.896 76.16 30.968 75.72 31.944 75.048C32.92 74.376 33.712 73.536 34.32 72.528C34.928 71.52 35.304 70.432 35.448 69.264C35.592 68.096 35.488 66.944 35.136 65.808C34.784 64.672 34.216 63.664 33.432 62.784C32.648 61.904 31.72 61.224 30.648 60.744C29.576 60.248 28.44 60 27.24 60ZM27.24 75C26.024 75 24.888 74.696 23.832 74.088C22.824 73.48 22.024 72.672 21.432 71.664C20.808 70.608 20.496 69.472 20.496 68.256C20.496 67.024 20.808 65.888 21.432 64.848C22.024 63.824 22.824 63.016 23.832 62.424C24.888 61.8 26.024 61.488 27.24 61.488C28.472 61.488 29.608 61.8 30.648 62.424C31.672 63.016 32.48 63.824 33.072 64.848C33.696 65.888 34.008 67.024 34.008 68.256C34.008 69.472 33.696 70.608 33.072 71.664C32.48 72.672 31.672 73.48 30.648 74.088C29.608 74.696 28.472 75 27.24 75Z"
        fill="white" />
    <path opacity="0.4"
        d="M22.944 121.488L21.624 122.808C21.416 121.992 20.976 121.32 20.304 120.792C19.632 120.264 18.864 120 18 120C17.136 120 16.368 120.264 15.696 120.792C15.024 121.32 14.584 122 14.376 122.832L13.056 121.488L12 122.568L13.728 124.272L13.512 124.488V126H12V127.488H13.512V127.584C13.576 128.08 13.712 128.552 13.92 129L12 130.944L13.056 132L14.712 130.344C15.112 130.856 15.6 131.256 16.176 131.544C16.752 131.832 17.36 131.976 18 131.976C18.64 131.976 19.248 131.832 19.824 131.544C20.4 131.256 20.888 130.856 21.288 130.344L22.944 132L24 130.944L22.08 129C22.288 128.536 22.432 128.056 22.512 127.56V127.44H24V126H22.512V124.488L22.272 124.272L24 122.568L22.944 121.488ZM18 121.488C18.624 121.488 19.152 121.712 19.584 122.16C20.032 122.592 20.256 123.12 20.256 123.744H15.744C15.744 123.12 15.96 122.592 16.392 122.16C16.84 121.712 17.376 121.488 18 121.488ZM21 127.488C20.92 128.288 20.6 128.976 20.04 129.552C19.48 130.112 18.8 130.432 18 130.512C17.2 130.432 16.52 130.112 15.96 129.552C15.4 128.976 15.08 128.288 15 127.488V125.256H21V127.488ZM35.76 117.6V118.848L25.512 125.376V123.6L34.008 118.224L21 109.992V119.448C20.536 119.128 20.032 118.888 19.488 118.728V108.624L20.64 108L35.76 117.6Z"
        fill="white" />
    <path opacity="0.4"
        d="M33 164.232C33.016 163.512 32.832 162.856 32.448 162.264C32.08 161.656 31.584 161.192 30.96 160.872C30.336 160.552 29.664 160.424 28.944 160.488C28.24 160.536 27.6 160.776 27.024 161.208C26.464 161.624 26.056 162.16 25.8 162.816C25.544 163.472 25.472 164.152 25.584 164.856C25.712 165.544 26.008 166.152 26.472 166.68C26.952 167.208 27.528 167.576 28.2 167.784C27.944 168.296 27.576 168.704 27.096 169.008C26.616 169.296 26.096 169.448 25.536 169.464H22.536C21.992 169.464 21.456 169.568 20.928 169.776C20.416 169.968 19.96 170.248 19.56 170.616V163.392C20.168 163.264 20.712 163.008 21.192 162.624C21.672 162.224 22.032 161.736 22.272 161.16C22.512 160.584 22.6 159.984 22.536 159.36C22.472 158.736 22.264 158.168 21.912 157.656C21.56 157.144 21.112 156.744 20.568 156.456C20.024 156.152 19.432 156 18.792 156C18.168 156 17.584 156.152 17.04 156.456C16.496 156.744 16.048 157.144 15.696 157.656C15.36 158.168 15.16 158.736 15.096 159.36C15.032 159.984 15.12 160.584 15.36 161.16C15.6 161.736 15.952 162.224 16.416 162.624C16.896 163.008 17.44 163.264 18.048 163.392V172.512C17.44 172.64 16.896 172.896 16.416 173.28C15.936 173.664 15.568 174.136 15.312 174.696C15.056 175.256 14.952 175.848 15 176.472C15.048 177.096 15.232 177.672 15.552 178.2C15.872 178.728 16.296 179.152 16.824 179.472C17.352 179.792 17.928 179.968 18.552 180C19.192 180.032 19.792 179.92 20.352 179.664C20.912 179.408 21.376 179.04 21.744 178.56C22.128 178.064 22.376 177.512 22.488 176.904C22.6 176.28 22.56 175.672 22.368 175.08C22.176 174.488 21.864 173.976 21.432 173.544C21 173.112 20.48 172.8 19.872 172.608C20.128 172.112 20.496 171.712 20.976 171.408C21.456 171.104 21.976 170.952 22.536 170.952H25.536C26.496 170.952 27.36 170.672 28.128 170.112C28.912 169.552 29.456 168.816 29.76 167.904C30.368 167.824 30.92 167.616 31.416 167.28C31.912 166.928 32.296 166.488 32.568 165.96C32.856 165.416 33 164.84 33 164.232ZM16.56 159.744C16.56 159.344 16.656 158.968 16.848 158.616C17.056 158.264 17.336 157.992 17.688 157.8C18.04 157.592 18.416 157.488 18.816 157.488C19.216 157.488 19.584 157.592 19.92 157.8C20.272 157.992 20.544 158.264 20.736 158.616C20.944 158.968 21.048 159.344 21.048 159.744C21.048 160.352 20.824 160.88 20.376 161.328C19.944 161.76 19.416 161.976 18.792 161.976C18.184 161.976 17.656 161.76 17.208 161.328C16.776 160.88 16.56 160.352 16.56 159.744ZM21.048 176.184C21.048 176.792 20.824 177.32 20.376 177.768C19.944 178.2 19.416 178.416 18.792 178.416C18.184 178.416 17.656 178.2 17.208 177.768C16.776 177.32 16.56 176.792 16.56 176.184C16.56 175.56 16.776 175.032 17.208 174.6C17.656 174.152 18.184 173.928 18.792 173.928C19.416 173.928 19.944 174.152 20.376 174.6C20.824 175.032 21.048 175.56 21.048 176.184ZM29.28 166.464C28.656 166.464 28.12 166.248 27.672 165.816C27.24 165.368 27.024 164.84 27.024 164.232C27.024 163.608 27.24 163.08 27.672 162.648C28.12 162.2 28.648 161.976 29.256 161.976C29.88 161.976 30.408 162.2 30.84 162.648C31.288 163.08 31.512 163.608 31.512 164.232C31.512 164.84 31.288 165.368 30.84 165.816C30.408 166.248 29.888 166.464 29.28 166.464Z"
        fill="white" />
    <path opacity="0.4"
        d="M25.512 205.488L27 204H34.512L36 205.488V213L34.512 214.488H27L25.512 213V205.488ZM27 205.488V213H34.512V205.488H27ZM12 219V210L13.512 208.488H21L22.512 210V217.488H30L31.512 219V226.488L30 228H13.512L12 226.488V219ZM21 217.488V210H13.512V217.488H21ZM21 219H13.512V226.488H21V219ZM22.512 226.488H30V219H22.512V226.488Z"
        fill="white" />
</svg>