<svg width="52" height="22" viewBox="0 0 52 22" fill="none" xmlns="http://www.w3.org/2000/svg">
    <path
        d="M10.608 12.82C11.0093 12.9787 11.3733 13.1887 11.7 13.45C12.036 13.7113 12.3207 14.0193 12.554 14.374C12.7967 14.7193 12.9787 15.0973 13.1 15.508C13.2307 15.9093 13.296 16.32 13.296 16.74V17.118H12.526V16.74C12.5353 16.2827 12.4513 15.844 12.274 15.424C12.0967 15.004 11.8447 14.6353 11.518 14.318C11.2007 14.0007 10.832 13.7533 10.412 13.576C9.992 13.3893 9.54867 13.296 9.082 13.296C8.62467 13.296 8.186 13.3847 7.766 13.562C7.346 13.73 6.97733 13.9773 6.66 14.304C6.34267 14.6213 6.09533 14.99 5.918 15.41C5.74067 15.8207 5.64733 16.264 5.638 16.74V17.118H4.882V16.74C4.87267 16.32 4.93333 15.9093 5.064 15.508C5.19467 15.0973 5.37667 14.7193 5.61 14.374C6.10467 13.6553 6.758 13.1373 7.57 12.82C7.39267 12.6987 7.22933 12.5587 7.08 12.4C6.94 12.232 6.81867 12.0547 6.716 11.868C6.61333 11.672 6.534 11.4713 6.478 11.266C6.43133 11.0513 6.408 10.8367 6.408 10.622C6.408 10.2487 6.478 9.90333 6.618 9.586C6.758 9.25933 6.94933 8.97467 7.192 8.732C7.43467 8.48 7.71933 8.284 8.046 8.144C8.37267 8.004 8.718 7.934 9.082 7.934C9.446 7.934 9.79133 8.004 10.118 8.144C10.4447 8.284 10.7293 8.48 10.972 8.732C11.224 8.97467 11.4153 9.25467 11.546 9.572C11.7793 10.1133 11.826 10.6733 11.686 11.252C11.63 11.4667 11.5507 11.672 11.448 11.868C11.3453 12.0547 11.224 12.2273 11.084 12.386C10.9533 12.5447 10.7947 12.6893 10.608 12.82ZM9.082 12.526C9.34333 12.526 9.59067 12.4793 9.824 12.386C10.0573 12.2833 10.258 12.148 10.426 11.98C10.6033 11.8027 10.7433 11.5973 10.846 11.364C10.9487 11.1307 11 10.888 11 10.636C11 10.3747 10.9487 10.1273 10.846 9.894C10.7527 9.66067 10.6173 9.45533 10.44 9.278C10.2627 9.10067 10.0573 8.96067 9.824 8.858C9.59067 8.75533 9.34333 8.704 9.082 8.704C8.82067 8.704 8.57333 8.75533 8.34 8.858C8.116 8.95133 7.91533 9.08667 7.738 9.264C7.56067 9.44133 7.42067 9.64667 7.318 9.88C7.22467 10.1133 7.178 10.3607 7.178 10.622C7.178 10.8833 7.22467 11.1307 7.318 11.364C7.42067 11.5973 7.56067 11.8027 7.738 11.98C7.91533 12.1573 8.12067 12.2973 8.354 12.4C8.58733 12.4933 8.83 12.5353 9.082 12.526ZM17.132 4.868V11H15.592L13.296 13.296V11H12.526V10.23H14.066V11.448L15.284 10.23H16.362V5.638H8.704V7.01C8.57333 7.02867 8.44267 7.052 8.312 7.08C8.19067 7.09867 8.06467 7.13133 7.934 7.178V4.868H17.132Z"
        fill="white" />
    <path
        d="M45.704 13.254C45.48 12.5727 45.368 11.8773 45.368 11.168V9.418C45.3773 8.86733 45.284 8.33067 45.088 7.808C44.9013 7.28533 44.626 6.81867 44.262 6.408C43.898 5.988 43.4687 5.64733 42.974 5.386C42.4887 5.12467 41.9707 4.96133 41.42 4.896C40.7947 4.83067 40.188 4.896 39.6 5.092C39.0213 5.288 38.5033 5.596 38.046 6.016C37.5887 6.42667 37.234 6.91667 36.982 7.486C36.7393 8.046 36.6133 8.634 36.604 9.25V11.182C36.604 11.8913 36.492 12.582 36.268 13.254L35.75 14.794L36.17 15.382H39.236C39.236 15.606 39.278 15.8253 39.362 16.04C39.4553 16.2547 39.5813 16.446 39.74 16.614C39.908 16.7727 40.0993 16.8987 40.314 16.992C40.5287 17.076 40.748 17.118 40.972 17.118C41.2053 17.118 41.4293 17.076 41.644 16.992C41.868 16.8987 42.0593 16.7727 42.218 16.614C42.3767 16.446 42.5027 16.2547 42.596 16.04C42.6893 15.8253 42.736 15.606 42.736 15.382H45.802L46.222 14.794L45.704 13.254ZM41.602 15.998C41.434 16.1753 41.2287 16.264 40.986 16.264C40.7433 16.264 40.5333 16.18 40.356 16.012C40.188 15.8347 40.104 15.6247 40.104 15.382H41.854C41.8633 15.6247 41.7793 15.8347 41.602 16.012V15.998ZM36.772 14.514L37.094 13.534C37.3553 12.7687 37.486 11.9847 37.486 11.182V9.25C37.486 8.75533 37.5887 8.284 37.794 7.836C37.9993 7.37867 38.2793 6.98667 38.634 6.66C39.0073 6.324 39.4273 6.08133 39.894 5.932C40.37 5.77333 40.8507 5.722 41.336 5.778C41.784 5.834 42.1993 5.96933 42.582 6.184C42.974 6.38933 43.3147 6.66467 43.604 7.01C43.9027 7.346 44.1267 7.724 44.276 8.144C44.4253 8.55467 44.4953 8.984 44.486 9.432V11.196C44.486 12.008 44.6167 12.792 44.878 13.548L45.2 14.514H36.772Z"
        fill="white" />
</svg>