<svg width="68" height="22" viewBox="0 0 68 22" fill="none" xmlns="http://www.w3.org/2000/svg">
    <path
        d="M11.532 4.868C12.204 4.91467 12.8667 5.10133 13.52 5.428C14.136 5.72667 14.696 6.12333 15.2 6.618C16.3667 7.878 16.95 9.36667 16.95 11.084C16.95 11.7747 16.824 12.4513 16.572 13.114C16.3387 13.7487 15.998 14.3553 15.55 14.934C15.102 15.4753 14.584 15.9233 13.996 16.278C13.38 16.6513 12.7313 16.9033 12.05 17.034C11.3313 17.174 10.6407 17.1927 9.978 17.09C9.278 16.9873 8.62933 16.768 8.032 16.432C7.40667 16.068 6.86067 15.6293 6.394 15.116C5.93667 14.5933 5.57267 14.0053 5.302 13.352C5.04067 12.6987 4.89133 12.0127 4.854 11.294C4.826 10.5753 4.91933 9.894 5.134 9.25C5.59133 7.794 6.408 6.68333 7.584 5.918C8.144 5.53533 8.76467 5.25533 9.446 5.078C10.1273 4.90067 10.8227 4.83067 11.532 4.868ZM11.966 16.166C12.5447 16.026 13.0813 15.8067 13.576 15.508C14.0987 15.1907 14.5513 14.794 14.934 14.318C15.3073 13.814 15.5827 13.296 15.76 12.764C15.956 12.176 16.0307 11.588 15.984 11C15.984 10.2907 15.8533 9.60467 15.592 8.942C15.34 8.27933 14.976 7.71 14.5 7.234C13.5947 6.32867 12.5447 5.834 11.35 5.75C10.762 5.70333 10.188 5.75 9.628 5.89C9.02133 6.03933 8.48467 6.282 8.018 6.618C7.01933 7.346 6.352 8.312 6.016 9.516C5.82933 10.104 5.75 10.6873 5.778 11.266C5.79667 11.882 5.932 12.4653 6.184 13.016C6.716 14.1547 7.50467 15.0273 8.55 15.634C9.07267 15.942 9.628 16.1427 10.216 16.236C10.804 16.32 11.3873 16.2967 11.966 16.166ZM10.916 10.566L13.016 8.368L13.632 8.984L11.532 11.168L13.632 13.366L13.016 13.968L10.916 11.784L8.816 13.968L8.2 13.366L10.3 11.168L8.2 8.984L8.816 8.368L10.916 10.566Z"
        fill="white" />
    <path
        d="M25.8965 15.2051C27.8418 15.2051 29.0195 13.5 29.0195 10.7754V10.7637C29.0195 8.03906 27.8418 6.33984 25.8965 6.33984C23.9453 6.33984 22.7734 8.03906 22.7734 10.7637V10.7754C22.7734 13.5 23.9453 15.2051 25.8965 15.2051ZM25.8965 14.1152C24.7598 14.1152 24.0977 12.8438 24.0977 10.7754V10.7637C24.0977 8.69531 24.7598 7.43555 25.8965 7.43555C27.0273 7.43555 27.6953 8.69531 27.6953 10.7637V10.7754C27.6953 12.8438 27.0273 14.1152 25.8965 14.1152Z"
        fill="white" />
    <path
        d="M44.622 4.868H45.392L51.104 15.606L50.726 16.25H39.26L38.882 15.606L44.622 4.868ZM45 5.988L40.002 15.368H49.984L45 5.988ZM45.546 14.5V13.618H44.454V14.5H45.546ZM44.454 12.75V9.25H45.546V12.75H44.454Z"
        fill="white" />
    <path
        d="M59.8965 15.2051C61.8418 15.2051 63.0195 13.5 63.0195 10.7754V10.7637C63.0195 8.03906 61.8418 6.33984 59.8965 6.33984C57.9453 6.33984 56.7734 8.03906 56.7734 10.7637V10.7754C56.7734 13.5 57.9453 15.2051 59.8965 15.2051ZM59.8965 14.1152C58.7598 14.1152 58.0977 12.8438 58.0977 10.7754V10.7637C58.0977 8.69531 58.7598 7.43555 59.8965 7.43555C61.0273 7.43555 61.6953 8.69531 61.6953 10.7637V10.7754C61.6953 12.8438 61.0273 14.1152 59.8965 14.1152Z"
        fill="white" />
</svg>