<svg width="120" height="120" viewBox="0 0 120 120" fill="none" xmlns="http://www.w3.org/2000/svg">
    <g clip-path="url(#clip0)">
        <path d="M47.2029 5.23561e-05L120 72.8888L120 120L0.000190343 5.3798e-05L47.2029 5.23561e-05Z"
            fill="url(#paint0_linear)" />
        <g filter="url(#filter0_d)">
            <path
                d="M50.2601 25.1653L51.3835 26.2887C52.3554 25.2844 52.2254 23.7901 50.991 22.5557C49.7755 21.3402 48.2136 21.121 47.2119 22.1334C46.3917 22.9482 46.5 23.9932 47.2119 25.1545L47.664 25.9098C48.1215 26.6596 48.2839 27.1685 47.9131 27.5448C47.5043 27.9482 46.8438 27.8399 46.2482 27.2443C45.6391 26.6352 45.4821 25.9152 45.9992 25.3223L44.8649 24.1881C43.6955 25.4171 43.9337 26.8951 45.2791 28.2405C46.6326 29.5941 48.0755 29.743 49.0934 28.7305C50.0138 27.8047 49.808 26.619 49.0609 25.4387L48.6819 24.8215C48.311 24.2287 48.0863 23.6466 48.4924 23.2568C48.8497 22.8995 49.429 22.9536 50.0029 23.5275C50.5633 24.0879 50.6526 24.6862 50.2601 25.1653Z"
                fill="white" />
            <path
                d="M49.0605 31.8649L50.2326 33.037L52.5228 30.7469L54.9023 33.1264L52.6121 35.4166L53.7816 36.586L59.3256 31.0419L58.1562 29.8725L55.8687 32.16L53.4892 29.7805L55.7767 27.493L54.6045 26.3208L49.0605 31.8649Z"
                fill="white" />
            <path
                d="M63.377 40.6374C65.1908 38.8237 65.0987 36.6634 63.6288 35.1935C62.1507 33.7154 59.9986 33.6315 58.1849 35.4453C56.3793 37.2509 56.4551 39.4111 57.9331 40.8892C59.4031 42.3591 61.5633 42.4511 63.377 40.6374ZM62.1886 39.449C61.0138 40.6239 59.82 40.7024 58.9699 39.8524C58.1172 38.9996 58.1984 37.8085 59.3733 36.6337C60.5482 35.4588 61.7393 35.3776 62.592 36.2303C63.442 37.0803 63.3635 38.2741 62.1886 39.449Z"
                fill="white" />
            <path
                d="M63.2751 46.0795L64.4175 47.2219L69.0953 44.6502L69.1386 44.6935L66.5696 49.374L67.712 50.5164L74.8424 46.5587L73.562 45.2783L68.784 48.2208L68.7353 48.1721L71.5858 43.3021L70.4894 42.2057L65.6249 45.0454L65.5788 44.9994L68.5133 40.2296L67.2328 38.9491L63.2751 46.0795Z"
                fill="white" />
            <path
                d="M78.8701 54.4683C79.9963 53.0336 79.7634 51.3281 78.4803 50.045C77.0158 48.5805 74.8637 48.4966 73.0499 50.3103C71.2416 52.1186 71.3012 54.2572 72.7846 55.7407C74.2058 57.1619 76.0087 57.0752 77.1565 56.1819L75.9763 54.9908C75.2724 55.4727 74.4657 55.3481 73.8404 54.7228C72.9985 53.8809 73.0526 52.6844 74.2383 51.4987C75.3915 50.3455 76.6124 50.2507 77.4706 51.1089C78.1121 51.7504 78.2042 52.5842 77.6844 53.2826L78.8701 54.4683Z"
                fill="white" />
            <path
                d="M77.7212 60.5257L79.3969 59.6729L81.3974 61.6735L80.5447 63.3491L81.8008 64.6052L85.4337 57.15L83.9231 55.6394L76.4652 59.2696L77.7212 60.5257ZM80.6097 59.0557L83.3898 57.6399L83.4331 57.6832L82.0173 60.4634L80.6097 59.0557Z"
                fill="white" />
            <path
                d="M90.061 64.9662L91.1844 66.0896C92.1562 65.0853 92.0263 63.591 90.7919 62.3566C89.5764 61.1411 88.0144 60.9218 87.0128 61.9343C86.1926 62.7491 86.3009 63.794 87.0128 64.9554L87.4649 65.7106C87.9224 66.4605 88.0848 66.9694 87.714 67.3457C87.3052 67.7491 86.6447 67.6408 86.0491 67.0452C85.44 66.4361 85.283 65.716 85.8001 65.1232L84.6658 63.9889C83.4963 65.2179 83.7346 66.696 85.08 68.0414C86.4335 69.3949 87.8764 69.5438 88.8942 68.5314C89.8146 67.6056 89.6089 66.4199 88.8617 65.2396L88.4828 64.6224C88.1119 64.0295 87.8872 63.4475 88.2933 63.0577C88.6506 62.7004 89.2299 62.7545 89.8038 63.3284C90.3642 63.8888 90.4535 64.487 90.061 64.9662Z"
                fill="white" />
            <path
                d="M88.8613 71.6658L92.6079 75.4123L93.5743 74.4459L90.9999 71.8715L92.3237 70.5478L94.6951 72.9191L95.6615 71.9527L93.2901 69.5813L94.6111 68.2603L97.1747 70.8239L98.1412 69.8575L94.4054 66.1217L88.8613 71.6658Z"
                fill="white" />
        </g>
        <path d="M116 116V120H120L116 116Z" fill="#110033" />
        <path d="M0 0V4H4L0 0Z" fill="#110033" />
    </g>
    <defs>
        <filter id="filter0_d" x="41.0449" y="20.3088" width="59.182" height="59.182" filterUnits="userSpaceOnUse"
            color-interpolation-filters="sRGB">
            <feFlood flood-opacity="0" result="BackgroundImageFix" />
            <feColorMatrix in="SourceAlpha" type="matrix" values="0 0 0 0 0 0 0 0 0 0 0 0 0 0 0 0 0 0 127 0" />
            <feOffset dy="2" />
            <feGaussianBlur stdDeviation="1" />
            <feColorMatrix type="matrix" values="0 0 0 0 0.0901961 0 0 0 0 0.0941176 0 0 0 0 0.109804 0 0 0 0.25 0" />
            <feBlend mode="normal" in2="BackgroundImageFix" result="effect1_dropShadow" />
            <feBlend mode="normal" in="SourceGraphic" in2="effect1_dropShadow" result="shape" />
        </filter>
        <linearGradient id="paint0_linear" x1="83.1771" y1="36.4925" x2="59.6148" y2="60.0548"
            gradientUnits="userSpaceOnUse">
            <stop stop-color="#9966FF" />
            <stop offset="1" stop-color="#7733FF" />
        </linearGradient>
        <clipPath id="clip0">
            <rect width="120" height="120" fill="white" />
        </clipPath>
    </defs>
</svg>