<svg width="34" height="30" viewBox="0 0 34 30" fill="none" xmlns="http://www.w3.org/2000/svg">
<path fill-rule="evenodd" clip-rule="evenodd" d="M26.8549 9.34539C31.1794 10.6569 34 12.7718 34 15.0034C34 17.2282 31.1932 19.3431 26.8965 20.6546C27.9013 25.008 27.4647 28.4756 25.5173 29.588C25.0599 29.8489 24.5332 29.9725 23.9511 29.9725C22.0452 29.9725 19.5503 28.6404 17.0277 26.3195C14.5051 28.6542 12.0102 30 10.1044 30C9.52222 30 8.99552 29.8764 8.54505 29.6155C6.59071 28.5031 6.14717 25.0286 7.14513 20.6615C2.82063 19.35 0 17.2351 0 15.0034C0 12.7787 2.80677 10.6706 7.11741 9.35225C6.11251 4.99886 6.54912 1.53124 8.49653 0.41886C8.95393 0.157931 9.48064 0.0343328 10.0628 0.0343328V0.0274663C11.9686 0.0274663 14.4635 1.35958 16.9861 3.68048C19.5088 1.34585 22.0037 0 23.9095 0V0.00687244C24.482 0.00786218 25.0063 0.131513 25.455 0.391394C27.4093 1.50378 27.8528 4.97826 26.8549 9.34539ZM23.9026 1.53125C22.4612 1.5349 20.3437 2.67442 18.0881 4.75166C19.0652 5.76104 20.0355 6.91463 20.9711 8.18494C22.5304 8.34974 24.0135 8.6038 25.3718 8.93339C25.5243 8.23987 25.649 7.56008 25.7252 6.91463C26.044 4.2916 25.6351 2.25223 24.6926 1.71664C24.4778 1.59991 24.2214 1.53811 23.9026 1.53811V1.53125ZM15.8842 4.75853C13.6249 2.69169 11.4973 1.55871 10.0628 1.55871V1.56558C9.74399 1.56558 9.47371 1.62051 9.2658 1.74411C8.33021 2.28656 7.92825 4.32593 8.25397 6.94896C8.33714 7.58755 8.45495 8.2536 8.61435 8.94026C9.97269 8.6038 11.4558 8.34974 13.022 8.18494C13.9437 6.91463 14.914 5.76791 15.8842 4.75853ZM24.0412 13.1357C24.4015 12.2225 24.7203 11.3092 24.9768 10.4234C24.0689 10.2037 23.1194 10.0252 22.1353 9.88098C22.4749 10.4028 22.8145 10.9384 23.1333 11.4878C23.459 12.0371 23.757 12.5864 24.0412 13.1357ZM20.1325 20.3593C20.7077 19.5422 21.2621 18.6633 21.8027 17.7363C22.3225 16.8368 22.8007 15.9167 23.2373 14.9966C22.8007 14.0764 22.3225 13.1632 21.7958 12.2637C21.2552 11.3436 20.6938 10.4715 20.1186 9.65438C19.0929 9.57198 18.0465 9.52392 17 9.52392C15.9466 9.52392 14.9001 9.57198 13.8675 9.66125C13.2923 10.4784 12.7379 11.3573 12.1973 12.2843C11.6775 13.1838 11.1924 14.1039 10.7627 15.024C11.1993 15.9441 11.6775 16.8574 12.2042 17.7569C12.7448 18.677 13.3062 19.5491 13.8814 20.3662C14.9071 20.4486 15.9535 20.4967 17 20.4967C18.0534 20.4967 19.0999 20.4486 20.1325 20.3593ZM24.9976 19.5766C24.7342 18.6839 24.4154 17.7638 24.0412 16.8437C23.757 17.393 23.459 17.9492 23.1402 18.4985C22.8214 19.0547 22.4819 19.5972 22.1423 20.1259C23.1333 19.9817 24.0897 19.7963 24.9976 19.5766ZM15.0872 21.973C15.7248 22.7764 16.3693 23.5111 17.0139 24.1703C17.6514 23.5111 18.296 22.7764 18.9197 21.973C18.289 22.0073 17.6445 22.0211 16.9931 22.0211C16.3486 22.0211 15.711 22.0005 15.0872 21.973ZM9.01631 19.5834C9.92417 19.8032 10.8736 19.9817 11.8577 20.1259C11.5181 19.604 11.1855 19.0684 10.8598 18.5191C10.534 17.9698 10.236 17.4205 9.95189 16.8711C9.59152 17.7844 9.27273 18.6976 9.01631 19.5834ZM18.9058 8.03387C18.2682 7.23049 17.6237 6.49577 16.9792 5.83658C16.3416 6.49577 15.6971 7.23049 15.0734 8.03387C15.704 7.99954 16.3486 7.98581 17 7.98581C17.6445 7.98581 18.2821 8.00641 18.9058 8.03387ZM10.8528 11.5084C11.1716 10.9522 11.5112 10.4097 11.8508 9.88098C10.8598 10.0252 9.90338 10.2106 8.99552 10.4234C9.25887 11.3161 9.57766 12.2362 9.95189 13.1563C10.236 12.607 10.534 12.0577 10.8528 11.5084ZM1.53852 15.0034C1.53852 16.0815 3.12556 17.4411 5.57888 18.4779C6.18182 18.732 6.83327 18.9654 7.51937 19.1783C7.90746 17.8393 8.4203 16.4454 9.05789 15.0172C8.41337 13.5821 7.8936 12.1813 7.49857 10.8354C6.82633 11.0483 6.17489 11.2749 5.57888 11.529C3.12556 12.5589 1.53852 13.9254 1.53852 15.0034ZM8.27477 23.0922C7.95597 25.7153 8.36486 27.7546 9.30738 28.2902C9.51529 28.407 9.77864 28.4688 10.0905 28.4756C11.532 28.4756 13.6527 27.3358 15.9119 25.2552C14.9348 24.2458 13.9645 23.0922 13.0289 21.8219C11.4696 21.6571 9.98655 21.4031 8.62821 21.0735C8.47575 21.767 8.351 22.4468 8.27477 23.0922ZM24.7342 28.2628C25.6698 27.7203 26.0717 25.6809 25.746 23.0579C25.6698 22.4193 25.545 21.7533 25.3856 21.0597C24.0273 21.3962 22.5442 21.6503 20.978 21.8151C20.0563 23.0854 19.086 24.2321 18.1158 25.2415C20.3751 27.3083 22.5026 28.4413 23.9372 28.4413C24.256 28.4413 24.5263 28.3864 24.7342 28.2628ZM26.4945 19.1714C27.1667 18.9586 27.8182 18.732 28.4142 18.4779C30.8675 17.4479 32.4545 16.0815 32.4615 15.0034C32.4615 13.9254 30.8744 12.5658 28.4211 11.529C27.8112 11.2749 27.1598 11.0414 26.4737 10.8286C26.0856 12.1675 25.5728 13.5615 24.9352 14.9897C25.5797 16.4248 26.0995 17.8256 26.4945 19.1714ZM20.1602 15.0035C20.1602 16.7366 18.7422 18.1415 16.993 18.1415C15.2438 18.1415 13.8259 16.7366 13.8259 15.0035C13.8259 13.2704 15.2438 11.8655 16.993 11.8655C18.7422 11.8655 20.1602 13.2704 20.1602 15.0035Z" fill="#61DAFB"/>
</svg>
