<svg width="42" height="30" viewBox="0 0 42 30" fill="none" xmlns="http://www.w3.org/2000/svg">
<path d="M41.5909 11.3447C41.4741 11.2477 40.4222 10.4526 38.1626 10.4526C37.5782 10.4526 36.9743 10.5108 36.3899 10.6078C35.9614 7.64072 33.4875 6.20569 33.3901 6.12812L32.7863 5.77906L32.3967 6.34143C31.9097 7.09774 31.5396 7.951 31.3253 8.82365C30.9163 10.5108 31.1695 12.101 32.0266 13.4584C30.9942 14.0402 29.3189 14.176 28.9683 14.1953L1.30766 14.1953C0.586922 14.1953 0.0025416 14.7771 0.00254154 15.4946C-0.0364174 17.8993 0.372649 20.3039 1.21026 22.5728C2.16475 25.0551 3.58674 26.8973 5.4178 28.0221C7.48261 29.2826 10.8525 30.0001 14.651 30.0001C16.3652 30.0001 18.0794 29.845 19.7741 29.5347C22.1311 29.1081 24.3907 28.2936 26.475 27.1107C28.1891 26.1217 29.728 24.8611 31.0331 23.3873C33.2343 20.9245 34.5394 18.1708 35.4939 15.7273L35.8835 15.7273C38.2794 15.7273 39.7599 14.7771 40.578 13.9626C41.1234 13.4584 41.5325 12.8379 41.8247 12.1398L42 11.6356L41.5909 11.3447Z" fill="#0091E2"/>
<path d="M3.87802 13.4001L7.5791 13.4001C7.75441 13.4001 7.91025 13.2644 7.91025 13.0705L7.91025 9.77376C7.91025 9.59922 7.77389 9.44409 7.5791 9.44409L3.87802 9.44409C3.70271 9.44409 3.54687 9.57983 3.54687 9.77376L3.54687 13.0705C3.56635 13.2644 3.70271 13.4001 3.87802 13.4001ZM8.98161 13.4001L12.6827 13.4001C12.858 13.4001 13.0138 13.2644 13.0138 13.0705L13.0138 9.77376C13.0138 9.59922 12.8775 9.44409 12.6827 9.44409L8.98161 9.44409C8.8063 9.44409 8.65046 9.57983 8.65046 9.77376L8.65046 13.0705C8.66994 13.2644 8.8063 13.4001 8.98161 13.4001ZM14.1826 13.4001L17.8837 13.4001C18.059 13.4001 18.2148 13.2644 18.2148 13.0705L18.2148 9.77376C18.2148 9.59922 18.0785 9.44409 17.8837 9.44409L14.1826 9.44409C14.0073 9.44409 13.8514 9.57983 13.8514 9.77376L13.8514 13.0705C13.8514 13.2644 13.9878 13.4001 14.1826 13.4001ZM19.3057 13.4001L23.0067 13.4001C23.182 13.4001 23.3379 13.2644 23.3379 13.0705L23.3379 9.77376C23.3379 9.59922 23.2015 9.44409 23.0067 9.44409L19.3057 9.44409C19.1303 9.44409 18.9745 9.57983 18.9745 9.77376L18.9745 13.0705C18.9745 13.2644 19.1303 13.4001 19.3057 13.4001ZM8.98161 8.68779L12.6827 8.68779C12.858 8.68779 13.0138 8.53265 13.0138 8.35812L13.0138 5.06141C13.0138 4.88688 12.8775 4.73174 12.6827 4.73174L8.98161 4.73174C8.8063 4.73174 8.65046 4.86749 8.65046 5.06141L8.65046 8.35811C8.66994 8.53265 8.8063 8.68779 8.98161 8.68779ZM14.1826 8.68779L17.8837 8.68779C18.059 8.68779 18.2148 8.53265 18.2148 8.35812L18.2148 5.06141C18.2148 4.88688 18.0785 4.73174 17.8837 4.73174L14.1826 4.73174C14.0073 4.73174 13.8514 4.86749 13.8514 5.06141L13.8514 8.35812C13.8514 8.53265 13.9878 8.68779 14.1826 8.68779ZM19.3057 8.68779L23.0067 8.68779C23.182 8.68779 23.3379 8.53265 23.3379 8.35812L23.3379 5.06141C23.3379 4.88688 23.182 4.73174 23.0067 4.73174L19.3057 4.73174C19.1303 4.73174 18.9745 4.86749 18.9745 5.06141L18.9745 8.35812C18.9745 8.53265 19.1303 8.68779 19.3057 8.68779ZM19.3057 3.95604L23.0067 3.95604C23.182 3.95604 23.3379 3.8203 23.3379 3.62638L23.3379 0.329674C23.3379 0.155143 23.182 1.71656e-06 23.0067 1.70123e-06L19.3057 1.37768e-06C19.1303 1.36235e-06 18.9745 0.13575 18.9745 0.329674L18.9745 3.62638C18.9745 3.80091 19.1303 3.95604 19.3057 3.95604ZM24.4677 13.4001L28.1688 13.4001C28.3441 13.4001 28.4999 13.2644 28.4999 13.0705L28.4999 9.77376C28.4999 9.59923 28.3636 9.44409 28.1688 9.44409L24.4677 9.44409C24.2924 9.44409 24.1365 9.57983 24.1365 9.77376L24.1365 13.0705C24.156 13.2644 24.2924 13.4001 24.4677 13.4001Z" fill="#0091E2"/>
</svg>
