<svg width="31" height="30" viewBox="0 0 31 30" fill="none" xmlns="http://www.w3.org/2000/svg">
<path d="M28.2881 6.67216C28.1108 6.10432 27.6854 5.64295 27.1537 5.35903L16.3415 0.177451C16.0579 0.0354902 15.7388 0 15.4552 0C15.1716 0 14.8526 0 14.569 0.0709805L3.75678 5.28804C3.22503 5.53648 2.83508 5.99785 2.69328 6.60118L0.0345409 18.2775C-0.0718087 18.8808 0.0699908 19.4841 0.424489 19.981L7.90441 29.2439C8.32981 29.6698 8.93246 29.9538 9.5351 29.9892H21.4463C22.0844 30.0602 22.687 29.7763 23.077 29.2439L30.5569 19.981C30.9114 19.4841 31.0532 18.8808 30.9823 18.2775L28.2881 6.67216Z" fill="#326DE6"/>
<path d="M26.6226 17.8157C26.5872 17.8157 26.5517 17.8157 26.5517 17.7802C26.5517 17.7447 26.4808 17.7447 26.4099 17.7447C26.2681 17.7093 26.1263 17.7093 25.9845 17.7093C25.9136 17.7093 25.8427 17.7093 25.7718 17.6738H25.7364C25.3464 17.6383 24.921 17.5673 24.5311 17.4608C24.4247 17.4253 24.3184 17.3189 24.283 17.2124C24.3184 17.2124 24.283 17.2124 24.283 17.2124L23.9994 17.1414C24.1412 16.1122 24.0703 15.0475 23.8576 14.0183C23.6094 12.9891 23.184 11.9953 22.6168 11.1081L22.8295 10.8951V10.8596C22.8295 10.7532 22.865 10.6112 22.9359 10.5402C23.2549 10.2563 23.574 10.0434 23.9285 9.83042C23.9994 9.79493 24.0703 9.75944 24.1412 9.72395C24.283 9.65297 24.3893 9.58199 24.5311 9.51101C24.5665 9.47552 24.602 9.47552 24.6374 9.44003C24.6729 9.40454 24.6374 9.40454 24.6374 9.36905C24.9565 9.12062 25.0274 8.69474 24.7792 8.37532C24.6729 8.23336 24.4602 8.12689 24.283 8.12689C24.1057 8.12689 23.9285 8.19787 23.7867 8.30434L23.7512 8.33983C23.7158 8.37532 23.6803 8.41081 23.6449 8.41081C23.5385 8.51728 23.4322 8.62375 23.3613 8.73023C23.3258 8.80121 23.2549 8.8367 23.2195 8.87219C22.9713 9.15611 22.6523 9.44003 22.3332 9.65297C22.2623 9.68846 22.1914 9.72395 22.1205 9.72395C22.0851 9.72395 22.0142 9.72395 21.9787 9.68846H21.9433L21.6597 9.86591C21.3761 9.58199 21.057 9.29807 20.7734 9.01415C19.4618 7.98493 17.8311 7.34611 16.1649 7.16866L16.1295 6.88473V6.92022C16.0231 6.84924 15.9877 6.74277 15.9522 6.6363C15.9522 6.24591 15.9522 5.85552 16.0231 5.42963V5.39414C16.0231 5.32316 16.0586 5.25218 16.0586 5.1812C16.094 5.03924 16.094 4.89728 16.1295 4.75532V4.54238C16.1649 4.18748 15.8813 3.83257 15.5268 3.79708C15.3141 3.76159 15.1014 3.86806 14.9242 4.04551C14.7824 4.18748 14.7115 4.36493 14.7115 4.54238V4.71983C14.7115 4.86179 14.7469 5.00375 14.7824 5.14571C14.8178 5.21669 14.8178 5.28767 14.8178 5.35865V5.39414C14.8887 5.78454 14.8887 6.17493 14.8887 6.60081C14.8533 6.70728 14.8178 6.81375 14.7115 6.88473V6.95571L14.676 7.23964C14.2861 7.27513 13.8961 7.34611 13.4707 7.41709C11.8046 7.77199 10.2803 8.65925 9.11041 9.9014L8.89771 9.75944H8.86226C8.82681 9.75944 8.79136 9.79493 8.72046 9.79493C8.64956 9.79493 8.57866 9.75944 8.50776 9.72395C8.18872 9.47552 7.86967 9.1916 7.62152 8.90768C7.58607 8.8367 7.51517 8.80121 7.47972 8.76572C7.37337 8.65925 7.30247 8.55277 7.19612 8.4463C7.16067 8.41081 7.12522 8.41081 7.08977 8.37532C7.05432 8.33983 7.05432 8.33983 7.05432 8.33983C6.91252 8.23336 6.73527 8.16238 6.55802 8.16238C6.34532 8.16238 6.16807 8.23336 6.06172 8.41081C5.84902 8.73023 5.91992 9.15611 6.20352 9.40454C6.23897 9.40454 6.23897 9.44003 6.23897 9.44003C6.23897 9.44003 6.30987 9.51101 6.34532 9.51101C6.45167 9.58199 6.59347 9.65297 6.73527 9.72395C6.80617 9.75944 6.87707 9.79493 6.94797 9.83042C7.30247 10.0434 7.65697 10.2563 7.94057 10.5402C8.01147 10.6112 8.08237 10.7532 8.04692 10.8596V10.8241L8.25961 11.0371C8.22416 11.1081 8.18872 11.1436 8.15327 11.2145C7.05432 12.9536 6.59347 15.012 6.91252 17.0349L6.62892 17.1059C6.62892 17.1414 6.59347 17.1414 6.59347 17.1414C6.55802 17.2479 6.45167 17.3189 6.34532 17.3898C5.95537 17.4963 5.56543 17.5673 5.14003 17.6028C5.06913 17.6028 4.99823 17.6028 4.92733 17.6383C4.78553 17.6383 4.64373 17.6738 4.50193 17.6738C4.46648 17.6738 4.43103 17.7093 4.36013 17.7093C4.32468 17.7093 4.32468 17.7093 4.28923 17.7447C3.89928 17.8157 3.65113 18.1706 3.72203 18.561C3.79293 18.8804 4.11198 19.0934 4.43103 19.0579C4.50193 19.0579 4.53738 19.0579 4.60828 19.0224C4.64373 19.0224 4.64373 19.0224 4.64373 18.9869C4.64373 18.9514 4.75008 18.9869 4.78553 18.9869C4.92733 18.9514 5.06913 18.8804 5.17548 18.8449C5.24638 18.8095 5.31728 18.774 5.38818 18.774H5.42363C5.81357 18.632 6.16807 18.5255 6.59347 18.4545H6.62892C6.73527 18.4545 6.84162 18.49 6.91252 18.561C6.94797 18.561 6.94797 18.5965 6.94797 18.5965L7.26702 18.561C7.79877 20.1936 8.79136 21.6487 10.1739 22.7134C10.493 22.9618 10.7766 23.1748 11.1311 23.3522L10.9538 23.6006C10.9538 23.6361 10.9893 23.6361 10.9893 23.6361C11.0602 23.7426 11.0602 23.8846 11.0247 23.991C10.8829 24.3459 10.6702 24.7008 10.4575 25.0202V25.0557C10.4221 25.1267 10.3866 25.1622 10.3157 25.2332C10.2448 25.3042 10.1739 25.4461 10.0676 25.5881C10.0321 25.6236 10.0321 25.6591 9.99666 25.6946C9.99666 25.6946 9.99666 25.73 9.96121 25.73C9.78396 26.0849 9.92576 26.5108 10.2448 26.6883C10.3157 26.7238 10.4221 26.7593 10.493 26.7593C10.7766 26.7593 11.0247 26.5818 11.1665 26.3334C11.1665 26.3334 11.1665 26.2979 11.202 26.2979C11.202 26.2624 11.2374 26.2269 11.2729 26.1914C11.3083 26.0495 11.3792 25.943 11.4147 25.801L11.4856 25.5881C11.5919 25.1977 11.7692 24.8428 11.9464 24.4879C12.0173 24.3814 12.1236 24.3104 12.23 24.2749C12.2654 24.2749 12.2654 24.2749 12.2654 24.2395L12.4072 23.9555C13.3998 24.3459 14.4279 24.5234 15.4914 24.5234C16.1295 24.5234 16.7676 24.4524 17.4057 24.2749C17.7956 24.204 18.1856 24.062 18.5401 23.9555L18.6819 24.204C18.7173 24.204 18.7173 24.204 18.7173 24.2395C18.8237 24.2749 18.93 24.3459 19.0009 24.4524C19.1782 24.8073 19.3554 25.1622 19.4618 25.5526V25.5881L19.5327 25.801C19.5681 25.943 19.6036 26.085 19.6745 26.1914C19.7099 26.2269 19.7099 26.2624 19.7454 26.2979C19.7454 26.2979 19.7454 26.3334 19.7808 26.3334C19.9226 26.5818 20.1708 26.7593 20.4544 26.7593C20.5607 26.7593 20.6316 26.7238 20.738 26.6883C20.8798 26.6173 21.0216 26.4753 21.057 26.2979C21.0925 26.1204 21.0925 25.943 21.0216 25.7655C21.0216 25.73 20.9861 25.73 20.9861 25.73C20.9861 25.6946 20.9507 25.6591 20.9152 25.6236C20.8443 25.4816 20.7734 25.3751 20.6671 25.2687C20.6316 25.1977 20.5962 25.1622 20.5253 25.0912V25.0202C20.2771 24.7008 20.0999 24.3459 19.9581 23.991C19.9226 23.8846 19.9226 23.7426 19.9935 23.6361C19.9935 23.6006 20.029 23.6006 20.029 23.6006L19.9226 23.3167C21.7306 22.2165 23.1131 20.513 23.7512 18.49L24.0348 18.5255C24.0703 18.5255 24.0703 18.49 24.0703 18.49C24.1412 18.4191 24.2475 18.3836 24.3538 18.3836H24.3893C24.7793 18.4545 25.1692 18.561 25.5237 18.703H25.5591C25.63 18.7385 25.7009 18.774 25.7718 18.774C25.9136 18.8449 26.02 18.9159 26.1618 18.9514C26.1972 18.9514 26.2327 18.9869 26.3036 18.9869C26.339 18.9869 26.339 18.9869 26.3745 19.0224C26.4454 19.0579 26.4808 19.0579 26.5517 19.0579C26.8708 19.0579 27.1544 18.8449 27.2607 18.561C27.2253 18.1706 26.9417 17.8867 26.6226 17.8157ZM16.3776 16.7155L15.4205 17.1769L14.4633 16.7155L14.2152 15.6863L14.8887 14.8345H15.9522L16.6258 15.6863L16.3776 16.7155ZM22.156 14.4087C22.3332 15.154 22.3687 15.8993 22.2978 16.6445L18.93 15.6863C18.611 15.6153 18.4337 15.2959 18.5046 14.9765C18.5401 14.87 18.5755 14.7991 18.6464 14.7281L21.3052 12.3147C21.6951 12.9536 21.9787 13.6634 22.156 14.4087ZM20.2417 11.0016L17.3348 13.06C17.0866 13.202 16.7321 13.1665 16.5549 12.9181C16.484 12.8471 16.4485 12.7761 16.4485 12.6696L16.2358 9.08513C17.7956 9.26258 19.1782 9.93689 20.2417 11.0016ZM13.8252 9.1916L14.5342 9.04964L14.357 12.5987C14.357 12.9181 14.0734 13.1665 13.7543 13.1665C13.648 13.1665 13.5771 13.131 13.4707 13.0955L10.5284 11.0016C11.4501 10.1143 12.5845 9.47552 13.8252 9.1916ZM9.50036 12.3147L12.1236 14.6571C12.3718 14.87 12.4072 15.2249 12.1945 15.4734C12.1236 15.5798 12.0527 15.6153 11.9109 15.6508L8.47231 16.6445C8.36596 15.154 8.72046 13.6279 9.50036 12.3147ZM8.89771 18.3126L12.4072 17.7093C12.6908 17.7093 12.9744 17.8867 13.0099 18.1706C13.0453 18.2771 13.0453 18.4191 12.9744 18.5255L11.6274 21.7906C10.3866 20.9744 9.39401 19.7322 8.89771 18.3126ZM16.9448 22.7134C16.4485 22.8198 15.9522 22.8908 15.4205 22.8908C14.676 22.8908 13.8961 22.7489 13.1871 22.5359L14.9242 19.3773C15.1014 19.1644 15.385 19.0934 15.6332 19.2353C15.7395 19.3063 15.8104 19.3773 15.9168 19.4838L17.6184 22.5714C17.4057 22.6069 17.193 22.6424 16.9448 22.7134ZM21.2697 19.6257C20.738 20.4775 19.9935 21.2228 19.1427 21.7551L17.7602 18.4191C17.6893 18.1351 17.8311 17.8512 18.0792 17.7447C18.1856 17.7093 18.2919 17.6738 18.3983 17.6738L21.9433 18.2771C21.766 18.774 21.5533 19.2353 21.2697 19.6257Z" fill="white"/>
</svg>
