<svg width="49" height="30" viewBox="0 0 49 30" fill="none" xmlns="http://www.w3.org/2000/svg">
<path d="M24.212 30.0001C24.0458 30.0001 23.8908 29.9558 23.7468 29.8783L22.2737 29.0034C22.0522 28.8816 22.1629 28.8373 22.2294 28.8151C22.5284 28.7155 22.5838 28.6933 22.8939 28.5161C22.9272 28.494 22.9715 28.5051 23.0047 28.5272L24.1344 29.2027C24.1788 29.2249 24.2341 29.2249 24.2674 29.2027L28.6867 26.6446C28.731 26.6224 28.7531 26.5781 28.7531 26.5228V21.4176C28.7531 21.3622 28.731 21.3179 28.6867 21.2957L24.2674 18.7487C24.2231 18.7265 24.1677 18.7265 24.1344 18.7487L19.7152 21.2957C19.6708 21.3179 19.6487 21.3733 19.6487 21.4176V26.5228C19.6487 26.5671 19.6708 26.6224 19.7152 26.6446L20.9224 27.3423C21.5759 27.6745 21.9857 27.2869 21.9857 26.8993V21.8605C21.9857 21.7941 22.0411 21.7276 22.1186 21.7276H22.6835C22.75 21.7276 22.8164 21.783 22.8164 21.8605V26.8993C22.8164 27.7742 22.3401 28.2836 21.5095 28.2836C21.2547 28.2836 21.0553 28.2836 20.4905 28.0067L19.3275 27.3423C19.0395 27.1762 18.8623 26.8661 18.8623 26.5339V21.4286C18.8623 21.0964 19.0395 20.7863 19.3275 20.6202L23.7468 18.0621C24.0237 17.907 24.4003 17.907 24.6772 18.0621L29.0965 20.6202C29.3844 20.7863 29.5617 21.0964 29.5617 21.4286V26.5339C29.5617 26.8661 29.3844 27.1762 29.0965 27.3423L24.6772 29.9004C24.5443 29.9558 24.3781 30.0001 24.212 30.0001Z" fill="#679E63"/>
<path d="M25.5847 26.4895C23.6467 26.4895 23.248 25.6035 23.248 24.8505C23.248 24.784 23.3034 24.7176 23.3809 24.7176H23.9568C24.0232 24.7176 24.0786 24.7619 24.0786 24.8283C24.1672 25.4153 24.4219 25.7032 25.5958 25.7032C26.526 25.7032 26.9247 25.4928 26.9247 24.9944C26.9247 24.7065 26.814 24.4961 25.3632 24.3521C24.1561 24.2303 23.4031 23.9645 23.4031 23.0011C23.4031 22.1041 24.1561 21.5725 25.4186 21.5725C26.8361 21.5725 27.5338 22.0598 27.6224 23.1229C27.6224 23.1561 27.6113 23.1893 27.5891 23.2226C27.567 23.2447 27.5338 23.2669 27.5006 23.2669H26.9136C26.8582 23.2669 26.8029 23.2226 26.7918 23.1672C26.6589 22.5581 26.3156 22.3588 25.4075 22.3588C24.3887 22.3588 24.2669 22.7132 24.2669 22.9789C24.2669 23.3001 24.4108 23.3998 25.784 23.5769C27.1462 23.7541 27.7885 24.0088 27.7885 24.9612C27.7885 25.9357 26.9801 26.4895 25.5847 26.4895Z" fill="#679E63"/>
<path d="M31.9652 21.1296C31.9652 21.5947 31.5776 21.9823 31.1125 21.9823C30.6474 21.9823 30.2598 21.6058 30.2598 21.1296C30.2598 20.6423 30.6584 20.2769 31.1125 20.2769C31.5665 20.2769 31.9652 20.6534 31.9652 21.1296ZM30.3927 21.1296C30.3927 21.5282 30.7138 21.8494 31.1014 21.8494C31.5001 21.8494 31.8212 21.5172 31.8212 21.1296C31.8212 20.7309 31.5001 20.4208 31.1014 20.4208C30.7249 20.4208 30.3927 20.7309 30.3927 21.1296ZM30.7913 20.6534H31.1236C31.2343 20.6534 31.4558 20.6534 31.4558 20.9081C31.4558 21.0853 31.345 21.1185 31.2786 21.1406C31.4115 21.1517 31.4226 21.2403 31.4336 21.3621C31.4447 21.4396 31.4558 21.5725 31.4779 21.6168H31.2786C31.2786 21.5725 31.2454 21.3289 31.2454 21.3178C31.2343 21.2625 31.2121 21.2403 31.1457 21.2403H30.9796V21.6279H30.7913V20.6534ZM30.9685 21.0742H31.1125C31.2343 21.0742 31.2564 20.9856 31.2564 20.9413C31.2564 20.8084 31.1678 20.8084 31.1125 20.8084H30.9574V21.0742H30.9685Z" fill="#679E63"/>
<path fill-rule="evenodd" clip-rule="evenodd" d="M10.5111 10.0333C10.5111 9.834 10.4003 9.64574 10.2231 9.54607L5.53798 6.83289C5.46044 6.78859 5.37184 6.76645 5.28323 6.75537C5.27215 6.75537 5.23892 6.75537 5.23892 6.75537C5.15032 6.75537 5.06171 6.78859 4.98418 6.83289L0.287975 9.53499C0.110759 9.63466 0 9.82292 0 10.0333L0.011076 17.298C0.011076 17.3977 0.0664557 17.4973 0.155063 17.5416C0.243671 17.597 0.35443 17.597 0.431962 17.5416L3.2231 15.947C3.40032 15.8473 3.51108 15.659 3.51108 15.4597V12.0599C3.51108 11.8606 3.62184 11.6723 3.79905 11.5726L4.98418 10.886C5.07279 10.8307 5.17247 10.8085 5.27215 10.8085C5.37184 10.8085 5.47152 10.8307 5.54905 10.886L6.73418 11.5726C6.91139 11.6723 7.02215 11.8606 7.02215 12.0599V15.4597C7.02215 15.659 7.13291 15.8473 7.31013 15.947L10.0791 17.5416C10.1677 17.597 10.2785 17.597 10.3671 17.5416C10.4557 17.4973 10.5111 17.3977 10.5111 17.298V10.0333Z" fill="white"/>
<path fill-rule="evenodd" clip-rule="evenodd" d="M33.0837 0.0332226C32.9951 -0.0110742 32.8843 -0.0110742 32.8068 0.0332226C32.7182 0.0885936 32.6628 0.177187 32.6628 0.276855V7.47508C32.6628 7.54153 32.6295 7.60797 32.5631 7.65227C32.4966 7.68549 32.4302 7.68549 32.3637 7.65227L31.1897 6.97674C31.0125 6.87708 30.802 6.87708 30.6248 6.97674L25.9286 9.68992C25.7514 9.78959 25.6406 9.97785 25.6406 10.1772V15.5925C25.6406 15.7918 25.7514 15.9801 25.9286 16.0797L30.6248 18.7929C30.802 18.8926 31.0125 18.8926 31.1897 18.7929L35.8859 16.0797C36.0631 15.9801 36.1739 15.7918 36.1739 15.5925V2.09302C36.1739 1.88261 36.0631 1.69435 35.8859 1.59468L33.0837 0.0332226ZM32.6517 13.8095C32.6517 13.8649 32.6296 13.9092 32.5852 13.9313L30.9792 14.8616C30.9349 14.8837 30.8795 14.8837 30.8352 14.8616L29.2292 13.9313C29.1849 13.9092 29.1628 13.8538 29.1628 13.8095V11.9491C29.1628 11.8937 29.1849 11.8494 29.2292 11.8272L30.8352 10.897C30.8795 10.8749 30.9349 10.8749 30.9792 10.897L32.5852 11.8272C32.6296 11.8494 32.6517 11.9048 32.6517 11.9491V13.8095Z" fill="white"/>
<path fill-rule="evenodd" clip-rule="evenodd" d="M48.712 11.9047C48.8892 11.805 48.9889 11.6167 48.9889 11.4174V10.0996C48.9889 9.90023 48.8782 9.71197 48.712 9.6123L44.0491 6.9102C43.8718 6.81053 43.6614 6.81053 43.4842 6.9102L38.788 9.62338C38.6108 9.72305 38.5 9.91131 38.5 10.1106V15.5259C38.5 15.7253 38.6108 15.9135 38.788 16.0132L43.4509 18.671C43.6282 18.7707 43.8386 18.7707 44.0047 18.671L46.8291 17.0985C46.9177 17.0542 46.9731 16.9545 46.9731 16.8548C46.9731 16.7552 46.9177 16.6555 46.8291 16.6112L42.1108 13.898C42.0222 13.8426 41.9668 13.7541 41.9668 13.6544V11.96C41.9668 11.8604 42.0222 11.7607 42.1108 11.7164L43.5839 10.8748C43.6725 10.8194 43.7832 10.8194 43.8718 10.8748L45.3449 11.7164C45.4335 11.7718 45.4889 11.8604 45.4889 11.96V13.2889C45.4889 13.3886 45.5443 13.4883 45.6329 13.5326C45.7215 13.5879 45.8323 13.5879 45.9209 13.5326L48.712 11.9047Z" fill="white"/>
<path fill-rule="evenodd" clip-rule="evenodd" d="M43.6936 11.6499C43.7268 11.6278 43.7711 11.6278 43.8043 11.6499L44.7013 12.1704C44.7346 12.1925 44.7567 12.2258 44.7567 12.2701V13.311C44.7567 13.3553 44.7346 13.3886 44.7013 13.4107L43.8043 13.9312C43.7711 13.9533 43.7268 13.9533 43.6936 13.9312L42.7966 13.4107C42.7634 13.3886 42.7412 13.3553 42.7412 13.311V12.2701C42.7412 12.2258 42.7634 12.1925 42.7966 12.1704L43.6936 11.6499Z" fill="#679E63"/>
<path d="M18.3631 6.93217C18.1859 6.8325 17.9755 6.8325 17.7983 6.93217L13.1353 9.6232C12.9581 9.72287 12.8584 9.91113 12.8584 10.1105V15.5036C12.8584 15.7029 12.9692 15.8912 13.1353 15.9909L17.7983 18.6819C17.9755 18.7816 18.1859 18.7816 18.3631 18.6819L23.0261 15.9909C23.2033 15.8912 23.303 15.7029 23.303 15.5036V10.1105C23.303 9.91113 23.1923 9.72287 23.0261 9.6232L18.3631 6.93217Z" fill="url(#paint0_linear)"/>
<path d="M23.0381 9.62311L18.353 6.93208C18.3087 6.90993 18.2533 6.88778 18.209 6.87671L12.959 15.8579C13.0033 15.9133 13.0587 15.9576 13.114 15.9908L17.7992 18.6818C17.9321 18.7593 18.0871 18.7815 18.2311 18.7372L23.1599 9.72278C23.1267 9.67848 23.0824 9.64526 23.0381 9.62311Z" fill="url(#paint1_linear)"/>
<path d="M17.6426 5.94678L17.5762 5.98H17.6648L17.6426 5.94678Z" fill="url(#paint2_linear)"/>
<path d="M23.0376 15.9912C23.1705 15.9136 23.2702 15.7808 23.3145 15.6368L18.1864 6.86603C18.0535 6.84389 17.9095 6.85496 17.7876 6.93248L13.1357 9.61243L18.1531 18.7597C18.2196 18.7486 18.2971 18.7265 18.3636 18.6933L23.0376 15.9912Z" fill="url(#paint3_linear)"/>
<path d="M23.4805 15.9025L23.4473 15.8472V15.9247L23.4805 15.9025Z" fill="url(#paint4_linear)"/>
<path d="M23.0361 15.9912L18.3628 18.6822C18.2963 18.7154 18.2299 18.7376 18.1523 18.7487L18.2409 18.9148L23.4237 15.9137V15.8472L23.2908 15.6257C23.2797 15.7808 23.18 15.9137 23.0361 15.9912Z" fill="url(#paint5_linear)"/>
<path d="M23.0361 15.9912L18.3628 18.6822C18.2963 18.7154 18.2299 18.7376 18.1523 18.7487L18.2409 18.9148L23.4237 15.9137V15.8472L23.2908 15.6257C23.2797 15.7808 23.18 15.9137 23.0361 15.9912Z" fill="url(#paint6_linear)"/>
<defs>
<linearGradient id="paint0_linear" x1="19.9798" y1="8.93634" x2="15.7648" y2="17.5362" gradientUnits="userSpaceOnUse">
<stop stop-color="#3F873F"/>
<stop offset="0.3296" stop-color="#3F8B3D"/>
<stop offset="0.6367" stop-color="#3E9638"/>
<stop offset="0.9341" stop-color="#3DA92E"/>
<stop offset="1" stop-color="#3DAE2B"/>
</linearGradient>
<linearGradient id="paint1_linear" x1="17.3729" y1="13.4367" x2="29.2016" y2="4.6957" gradientUnits="userSpaceOnUse">
<stop offset="0.1376" stop-color="#3F873F"/>
<stop offset="0.4016" stop-color="#52A044"/>
<stop offset="0.7129" stop-color="#64B749"/>
<stop offset="0.9081" stop-color="#6ABF4B"/>
</linearGradient>
<linearGradient id="paint2_linear" x1="12.6876" y1="5.95978" x2="23.4758" y2="5.95978" gradientUnits="userSpaceOnUse">
<stop offset="0.0919165" stop-color="#6ABF4B"/>
<stop offset="0.2871" stop-color="#64B749"/>
<stop offset="0.5984" stop-color="#52A044"/>
<stop offset="0.8624" stop-color="#3F873F"/>
</linearGradient>
<linearGradient id="paint3_linear" x1="12.6879" y1="12.8056" x2="23.4777" y2="12.8056" gradientUnits="userSpaceOnUse">
<stop offset="0.0919165" stop-color="#6ABF4B"/>
<stop offset="0.2871" stop-color="#64B749"/>
<stop offset="0.5984" stop-color="#52A044"/>
<stop offset="0.8624" stop-color="#3F873F"/>
</linearGradient>
<linearGradient id="paint4_linear" x1="12.6889" y1="15.8854" x2="23.4776" y2="15.8854" gradientUnits="userSpaceOnUse">
<stop offset="0.0919165" stop-color="#6ABF4B"/>
<stop offset="0.2871" stop-color="#64B749"/>
<stop offset="0.5984" stop-color="#52A044"/>
<stop offset="0.8624" stop-color="#3F873F"/>
</linearGradient>
<linearGradient id="paint5_linear" x1="12.6879" y1="17.2774" x2="23.4761" y2="17.2774" gradientUnits="userSpaceOnUse">
<stop offset="0.0919165" stop-color="#6ABF4B"/>
<stop offset="0.2871" stop-color="#64B749"/>
<stop offset="0.5984" stop-color="#52A044"/>
<stop offset="0.8624" stop-color="#3F873F"/>
</linearGradient>
<linearGradient id="paint6_linear" x1="25.0478" y1="8.6817" x2="18.3944" y2="22.2547" gradientUnits="userSpaceOnUse">
<stop stop-color="#3F873F"/>
<stop offset="0.3296" stop-color="#3F8B3D"/>
<stop offset="0.6367" stop-color="#3E9638"/>
<stop offset="0.9341" stop-color="#3DA92E"/>
<stop offset="1" stop-color="#3DAE2B"/>
</linearGradient>
</defs>
</svg>
