<svg width="84" height="173" viewBox="0 0 84 173" fill="none" xmlns="http://www.w3.org/2000/svg"><path d="M57.417 94.195c11.445.163 13.634 7.546 13.5 11.217 11.485 0 10.88 12.848 10.88 18.558 0 5.711-1.41 35.079-20.753 44.256-15.475 7.342-40.702-11.353-51.38-21.618-13.097-10.605-6.247-34.058 0-43.644l30.223-47.315c5.964-9.463 12.596-9.414 16.022-6.966 7.093 5.384 2.14 13.444-.663 18.71l-10.68 18.152c5.804.326 11.978 6.338 12.851 8.65z" fill="#E6C8B3"/><path d="M61.687 167.543c-36.98-2.563-58.473-45.279-43.656-77.53l-8.132 11.748-5.564 11.533c-.642 5.055-1.926 15.335-1.926 16.018 0 .684 1.284 7.689 1.926 11.106l11.128 11.961 23.326 14.096 14.124 4.058 8.774-2.99z" fill="#DFBBA0"/><path d="M50.987 88.092c-12.252 19.869-18.408 26.337-22.167 27.497l17.03-30.488 5.137 2.99zM64.683 96.635c-6.164 17.94-15.286 25.697-19.352 27.406L58.05 94.712l6.634 1.922zM77.103 107.751c-2.97 11.924-12.546 21.563-17.05 24.476l11.654-26.288 5.396 1.812z" fill="#DFBBA0"/><path d="M19.957 51.142c6.163-1.708 12.555 7.404 14.98 12.174L16.82 92.246c-.306.75-.684 1.368-1.143 1.826l1.143-1.826c2.666-6.523-.08-23.042-2-31.28-.855-2.562-1.027-8.115 5.137-9.824z" fill="#D9AC8C"/><path fill-rule="evenodd" clip-rule="evenodd" d="M48.224 45.657c3.483-1.063 6.688-.314 8.93 1.29.017.011.034.024.05.036 2.094 1.59 3.4 3.464 4.034 5.529.625 2.036.546 4.096.145 6.008-.69 3.291-2.445 6.538-3.76 8.97a145.966 145.966 0 00-.532.985L47.933 84.04c2.324.75 4.479 2.056 6.216 3.395a24.39 24.39 0 013.31 3.064c.46.517.894 1.063 1.253 1.607 5.505.334 9.167 2.318 11.434 5.006 1.715 2.033 2.513 4.328 2.793 6.29 2.368.306 4.323 1.162 5.892 2.464 1.963 1.63 3.145 3.813 3.867 6.021 1.284 3.922 1.258 8.434 1.243 11.267l-.003.816c0 2.971-.362 11.968-3.214 21.443-2.838 9.426-8.28 19.77-18.761 24.742-4.405 2.09-9.378 2.267-14.368 1.334-4.99-.934-10.137-3.001-15.038-5.58-9.76-5.136-18.863-12.472-24.314-17.701C.938 142.24-.604 132.854.281 124.187c.89-8.723 4.278-17.303 7.583-22.379l5.534-8.663c1.698-3.48 2.177-8.126 1.982-12.732-.192-4.55-1.029-8.792-1.736-11.297-1.054-2.766-2.13-7.049-1.844-11 .146-2.013.657-4.096 1.858-5.847 1.238-1.806 3.108-3.106 5.64-3.643 5.061-1.072 9.155 1.416 12.006 4.445 1.66 1.763 3.007 3.81 4.027 5.738l2.745-4.297c0-.002.002-.004.004-.006 3.162-5.017 6.68-7.79 10.144-8.849zM32.608 63.071c-.884-2.168-2.402-4.929-4.423-7.076-2.326-2.47-4.995-3.827-7.998-3.19-1.498.317-2.404 1.01-2.997 1.876-.631.921-1.008 2.189-1.121 3.744-.228 3.141.666 6.816 1.605 9.25.023.06.043.12.061.181.797 2.787 1.712 7.409 1.922 12.378.042.999.056 2.024.034 3.06L32.608 63.07zM68.78 105.31c.047-1.432-.37-3.624-1.907-5.446-1.314-1.558-3.634-3.066-7.771-3.445-1.596 6.402-5.77 18.44-12.888 26.997a2.143 2.143 0 01-3.013.279 2.133 2.133 0 01-.28-3.008c6.905-8.3 10.934-20.471 12.242-26.194a10.245 10.245 0 00-.908-1.163 20.098 20.098 0 00-2.722-2.514c-1.83-1.41-3.894-2.532-5.834-2.96L30.154 114.58a2.142 2.142 0 01-2.926.774 2.133 2.133 0 01-.776-2.919l16.264-27.963.006-.009 10.655-18.112c.16-.3.323-.602.487-.906 1.346-2.503 2.776-5.163 3.33-7.8.3-1.436.305-2.729-.049-3.882-.343-1.12-1.07-2.264-2.506-3.36-1.183-.835-2.997-1.322-5.163-.661-2.198.671-4.977 2.602-7.777 7.044l-.007.011-30.224 47.315-.01.017c-2.94 4.51-6.098 12.445-6.92 20.491-.824 8.08.743 15.69 6.474 20.33.047.038.092.078.136.12 5.236 5.033 14.052 12.139 23.405 17.061 4.675 2.46 9.404 4.331 13.83 5.159 4.426.828 8.41.589 11.742-.992 8.862-4.206 13.796-13.135 16.5-22.114 2.689-8.931 3.033-17.474 3.033-20.214l.001-.81c.01-2.917.024-6.727-1.03-9.947-.561-1.718-1.382-3.105-2.535-4.063-.8-.664-1.85-1.196-3.272-1.447-.862 5.924-4.03 16.361-12.007 24.004a2.143 2.143 0 01-3.026-.061 2.133 2.133 0 01.062-3.02c8.034-7.697 10.645-18.804 10.928-23.317zM23.735 8.598c.626 1 .322 2.317-.68 2.943l-.053.034-.137.095c-.114.08-.262.185-.441.315-.36.26-.831.605-1.39 1.02a740.643 740.643 0 00-4.14 3.092c-2.259 1.696-4.76 3.586-6.867 5.183l13.177 9.863a2.133 2.133 0 01.428 2.99 2.143 2.143 0 01-2.996.427L5.19 23a2.135 2.135 0 01-.012-3.41c2.372-1.8 5.99-4.54 9.14-6.906 3.08-2.314 5.872-4.395 6.467-4.766a2.142 2.142 0 012.949.68zM46.117 8.598c-.627 1-.322 2.317.68 2.943l.052.034.138.095c.113.08.261.185.441.315.36.26.831.605 1.39 1.02a742.21 742.21 0 014.14 3.092 2328.56 2328.56 0 016.867 5.183l-13.177 9.863a2.133 2.133 0 00-.428 2.99 2.143 2.143 0 002.996.427L64.66 23a2.135 2.135 0 00.011-3.41c-2.37-1.8-5.99-4.54-9.14-6.906-3.079-2.314-5.872-4.395-6.466-4.766a2.142 2.142 0 00-2.95.68zM38.65.344a2.138 2.138 0 011.736 2.475l-6.692 37.953a2.138 2.138 0 01-2.478 1.733 2.138 2.138 0 01-1.737-2.476l6.693-37.954A2.138 2.138 0 0138.65.344z" fill="#362417"/></svg>