<svg width="42" height="30" viewBox="0 0 42 30" fill="none" xmlns="http://www.w3.org/2000/svg">
<path d="M41.5909 11.3445C41.4741 11.2476 40.4222 10.4525 38.1626 10.4525C37.5782 10.4525 36.9743 10.5107 36.3899 10.6076C35.9614 7.6406 33.4875 6.20556 33.3901 6.12799L32.7863 5.77893L32.3967 6.34131C31.9097 7.09761 31.5396 7.95088 31.3253 8.82353C30.9163 10.5107 31.1695 12.1008 32.0266 13.4583C30.9942 14.0401 29.3189 14.1758 28.9683 14.1952L1.30766 14.1952C0.586922 14.1952 0.0025416 14.777 0.00254154 15.4945C-0.0364174 17.8992 0.372649 20.3038 1.21026 22.5727C2.16475 25.0549 3.58674 26.8972 5.4178 28.022C7.48261 29.2825 10.8525 30 14.651 30C16.3652 30 18.0794 29.8449 19.7741 29.5346C22.1311 29.108 24.3907 28.2935 26.475 27.1105C28.1891 26.1215 29.728 24.861 31.0331 23.3872C33.2343 20.9244 34.5394 18.1707 35.4939 15.7272L35.8835 15.7272C38.2794 15.7272 39.7599 14.777 40.578 13.9625C41.1234 13.4583 41.5325 12.8378 41.8247 12.1396L42 11.6354L41.5909 11.3445Z" fill="#0091E2"/>
<path d="M3.87821 13.4001L7.57928 13.4001C7.75459 13.4001 7.91043 13.2644 7.91043 13.0705L7.91043 9.77376C7.91043 9.59922 7.77407 9.44409 7.57928 9.44409L3.87821 9.44409C3.70289 9.44409 3.54706 9.57983 3.54706 9.77376L3.54706 13.0705C3.56654 13.2644 3.70289 13.4001 3.87821 13.4001ZM8.98179 13.4001L12.6829 13.4001C12.8582 13.4001 13.014 13.2644 13.014 13.0705L13.014 9.77376C13.014 9.59922 12.8777 9.44409 12.6829 9.44409L8.98179 9.44409C8.80648 9.44409 8.65064 9.57983 8.65064 9.77376L8.65064 13.0705C8.67012 13.2644 8.80648 13.4001 8.98179 13.4001ZM14.1828 13.4001L17.8838 13.4001C18.0592 13.4001 18.215 13.2644 18.215 13.0705L18.215 9.77376C18.215 9.59922 18.0786 9.44409 17.8839 9.44409L14.1828 9.44409C14.0075 9.44409 13.8516 9.57983 13.8516 9.77376L13.8516 13.0705C13.8516 13.2644 13.988 13.4001 14.1828 13.4001ZM19.3058 13.4001L23.0069 13.4001C23.1822 13.4001 23.3381 13.2644 23.3381 13.0705L23.3381 9.77376C23.3381 9.59922 23.2017 9.44409 23.0069 9.44409L19.3058 9.44409C19.1305 9.44409 18.9747 9.57983 18.9747 9.77376L18.9747 13.0705C18.9747 13.2644 19.1305 13.4001 19.3058 13.4001ZM8.98179 8.68779L12.6829 8.68779C12.8582 8.68779 13.014 8.53265 13.014 8.35812L13.014 5.06141C13.014 4.88688 12.8777 4.73174 12.6829 4.73174L8.98179 4.73174C8.80648 4.73174 8.65065 4.86749 8.65065 5.06141L8.65065 8.35811C8.67012 8.53265 8.80648 8.68779 8.98179 8.68779ZM14.1828 8.68779L17.8839 8.68779C18.0592 8.68779 18.215 8.53265 18.215 8.35812L18.215 5.06141C18.215 4.88688 18.0786 4.73174 17.8839 4.73174L14.1828 4.73174C14.0075 4.73174 13.8516 4.86749 13.8516 5.06141L13.8516 8.35812C13.8516 8.53265 13.988 8.68779 14.1828 8.68779ZM19.3058 8.68779L23.0069 8.68779C23.1822 8.68779 23.3381 8.53265 23.3381 8.35812L23.3381 5.06141C23.3381 4.88688 23.1822 4.73174 23.0069 4.73174L19.3058 4.73174C19.1305 4.73174 18.9747 4.86749 18.9747 5.06141L18.9747 8.35812C18.9747 8.53265 19.1305 8.68779 19.3058 8.68779ZM19.3058 3.95604L23.0069 3.95604C23.1822 3.95604 23.3381 3.8203 23.3381 3.62638L23.3381 0.329674C23.3381 0.155143 23.1822 1.71656e-06 23.0069 1.70123e-06L19.3058 1.37768e-06C19.1305 1.36235e-06 18.9747 0.13575 18.9747 0.329674L18.9747 3.62638C18.9747 3.80091 19.1305 3.95604 19.3058 3.95604ZM24.4679 13.4001L28.1689 13.4001C28.3443 13.4001 28.5001 13.2644 28.5001 13.0705L28.5001 9.77376C28.5001 9.59923 28.3637 9.44409 28.1689 9.44409L24.4679 9.44409C24.2926 9.44409 24.1367 9.57983 24.1367 9.77376L24.1367 13.0705C24.1562 13.2644 24.2926 13.4001 24.4679 13.4001Z" fill="#0091E2"/>
</svg>
