<svg width="31" height="30" viewBox="0 0 31 30" fill="none" xmlns="http://www.w3.org/2000/svg">
<path d="M28.2881 6.67216C28.1108 6.10432 27.6854 5.64295 27.1537 5.35903L16.3415 0.177451C16.0579 0.0354902 15.7388 0 15.4552 0C15.1716 0 14.8526 0 14.569 0.0709805L3.75678 5.28804C3.22503 5.53648 2.83508 5.99785 2.69328 6.60118L0.0345409 18.2775C-0.0718087 18.8808 0.0699908 19.4841 0.424489 19.981L7.90441 29.2439C8.32981 29.6698 8.93246 29.9538 9.5351 29.9892H21.4463C22.0844 30.0602 22.687 29.7763 23.077 29.2439L30.5569 19.981C30.9114 19.4841 31.0532 18.8808 30.9823 18.2775L28.2881 6.67216Z" fill="#326DE6"/>
<path d="M26.6223 17.8157C26.5869 17.8157 26.5514 17.8157 26.5514 17.7802C26.5514 17.7447 26.4805 17.7447 26.4096 17.7447C26.2678 17.7093 26.126 17.7093 25.9842 17.7093C25.9133 17.7093 25.8424 17.7093 25.7715 17.6738H25.7361C25.3461 17.6383 24.9207 17.5673 24.5308 17.4608C24.4244 17.4253 24.3181 17.3189 24.2826 17.2124C24.3181 17.2124 24.2826 17.2124 24.2826 17.2124L23.999 17.1414C24.1408 16.1122 24.0699 15.0475 23.8572 14.0183C23.6091 12.9891 23.1837 11.9953 22.6165 11.1081L22.8292 10.8951V10.8596C22.8292 10.7532 22.8647 10.6112 22.9356 10.5402C23.2546 10.2563 23.5736 10.0434 23.9281 9.83042C23.999 9.79493 24.0699 9.75944 24.1408 9.72395C24.2826 9.65297 24.389 9.58199 24.5308 9.51101C24.5662 9.47552 24.6017 9.47552 24.6371 9.44003C24.6726 9.40454 24.6371 9.40454 24.6371 9.36905C24.9562 9.12062 25.0271 8.69474 24.7789 8.37532C24.6726 8.23336 24.4599 8.12689 24.2826 8.12689C24.1054 8.12689 23.9281 8.19787 23.7863 8.30434L23.7509 8.33983C23.7154 8.37532 23.68 8.41081 23.6445 8.41081C23.5382 8.51728 23.4319 8.62375 23.361 8.73023C23.3255 8.80121 23.2546 8.8367 23.2192 8.87219C22.971 9.15611 22.652 9.44003 22.3329 9.65297C22.262 9.68846 22.1911 9.72395 22.1202 9.72395C22.0848 9.72395 22.0139 9.72395 21.9784 9.68846H21.943L21.6594 9.86591C21.3758 9.58199 21.0567 9.29807 20.7731 9.01415C19.4615 7.98493 17.8308 7.34611 16.1646 7.16866L16.1292 6.88473V6.92022C16.0228 6.84924 15.9874 6.74277 15.9519 6.6363C15.9519 6.24591 15.9519 5.85552 16.0228 5.42963V5.39414C16.0228 5.32316 16.0583 5.25218 16.0583 5.1812C16.0937 5.03924 16.0937 4.89728 16.1292 4.75532V4.54238C16.1646 4.18748 15.881 3.83257 15.5265 3.79708C15.3138 3.76159 15.1011 3.86806 14.9239 4.04551C14.7821 4.18748 14.7112 4.36493 14.7112 4.54238V4.71983C14.7112 4.86179 14.7466 5.00375 14.7821 5.14571C14.8175 5.21669 14.8175 5.28767 14.8175 5.35865V5.39414C14.8884 5.78454 14.8884 6.17493 14.8884 6.60081C14.853 6.70728 14.8175 6.81375 14.7112 6.88473V6.95571L14.6757 7.23964C14.2858 7.27513 13.8958 7.34611 13.4704 7.41709C11.8043 7.77199 10.28 8.65925 9.11011 9.9014L8.89741 9.75944H8.86196C8.82651 9.75944 8.79106 9.79493 8.72016 9.79493C8.64926 9.79493 8.57836 9.75944 8.50746 9.72395C8.18841 9.47552 7.86936 9.1916 7.62121 8.90768C7.58576 8.8367 7.51486 8.80121 7.47941 8.76572C7.37306 8.65925 7.30216 8.55277 7.19581 8.4463C7.16036 8.41081 7.12491 8.41081 7.08946 8.37532C7.05401 8.33983 7.05401 8.33983 7.05401 8.33983C6.91221 8.23336 6.73497 8.16238 6.55772 8.16238C6.34502 8.16238 6.16777 8.23336 6.06142 8.41081C5.84872 8.73023 5.91962 9.15611 6.20322 9.40454C6.23867 9.40454 6.23867 9.44003 6.23867 9.44003C6.23867 9.44003 6.30957 9.51101 6.34502 9.51101C6.45137 9.58199 6.59317 9.65297 6.73497 9.72395C6.80587 9.75944 6.87677 9.79493 6.94767 9.83042C7.30216 10.0434 7.65666 10.2563 7.94026 10.5402C8.01116 10.6112 8.08206 10.7532 8.04661 10.8596V10.8241L8.25931 11.0371C8.22386 11.1081 8.18841 11.1436 8.15296 11.2145C7.05401 12.9536 6.59317 15.012 6.91222 17.0349L6.62862 17.1059C6.62862 17.1414 6.59317 17.1414 6.59317 17.1414C6.55772 17.2479 6.45137 17.3189 6.34502 17.3898C5.95507 17.4963 5.56512 17.5673 5.13972 17.6028C5.06882 17.6028 4.99792 17.6028 4.92702 17.6383C4.78522 17.6383 4.64342 17.6738 4.50162 17.6738C4.46617 17.6738 4.43072 17.7093 4.35983 17.7093C4.32438 17.7093 4.32438 17.7093 4.28893 17.7447C3.89898 17.8157 3.65083 18.1706 3.72173 18.561C3.79263 18.8804 4.11168 19.0934 4.43072 19.0579C4.50162 19.0579 4.53707 19.0579 4.60797 19.0224C4.64342 19.0224 4.64342 19.0224 4.64342 18.9869C4.64342 18.9514 4.74977 18.9869 4.78522 18.9869C4.92702 18.9514 5.06882 18.8804 5.17517 18.8449C5.24607 18.8095 5.31697 18.774 5.38787 18.774H5.42332C5.81327 18.632 6.16777 18.5255 6.59317 18.4545H6.62862C6.73497 18.4545 6.84132 18.49 6.91222 18.561C6.94766 18.561 6.94767 18.5965 6.94767 18.5965L7.26671 18.561C7.79846 20.1936 8.79106 21.6487 10.1736 22.7134C10.4927 22.9618 10.7762 23.1748 11.1307 23.3522L10.9535 23.6006C10.9535 23.6361 10.9889 23.6361 10.9889 23.6361C11.0598 23.7426 11.0598 23.8846 11.0244 23.991C10.8826 24.3459 10.6699 24.7008 10.4572 25.0202V25.0557C10.4218 25.1267 10.3863 25.1622 10.3154 25.2332C10.2445 25.3042 10.1736 25.4461 10.0673 25.5881C10.0318 25.6236 10.0318 25.6591 9.99635 25.6946C9.99635 25.6946 9.99635 25.73 9.9609 25.73C9.78365 26.0849 9.92545 26.5108 10.2445 26.6883C10.3154 26.7238 10.4218 26.7593 10.4927 26.7593C10.7762 26.7593 11.0244 26.5818 11.1662 26.3334C11.1662 26.3334 11.1662 26.2979 11.2016 26.2979C11.2016 26.2624 11.2371 26.2269 11.2725 26.1914C11.308 26.0495 11.3789 25.943 11.4143 25.801L11.4852 25.5881C11.5916 25.1977 11.7688 24.8428 11.9461 24.4879C12.017 24.3814 12.1233 24.3104 12.2297 24.2749C12.2651 24.2749 12.2651 24.2749 12.2651 24.2395L12.4069 23.9555C13.3995 24.3459 14.4276 24.5234 15.4911 24.5234C16.1292 24.5234 16.7673 24.4524 17.4054 24.2749C17.7953 24.204 18.1853 24.062 18.5398 23.9555L18.6816 24.204C18.717 24.204 18.717 24.204 18.717 24.2395C18.8234 24.2749 18.9297 24.3459 19.0006 24.4524C19.1779 24.8073 19.3551 25.1622 19.4615 25.5526V25.5881L19.5324 25.801C19.5678 25.943 19.6033 26.085 19.6742 26.1914C19.7096 26.2269 19.7096 26.2624 19.7451 26.2979C19.7451 26.2979 19.7451 26.3334 19.7805 26.3334C19.9223 26.5818 20.1705 26.7593 20.4541 26.7593C20.5604 26.7593 20.6313 26.7238 20.7377 26.6883C20.8795 26.6173 21.0213 26.4753 21.0567 26.2979C21.0922 26.1204 21.0922 25.943 21.0213 25.7655C21.0213 25.73 20.9858 25.73 20.9858 25.73C20.9858 25.6946 20.9504 25.6591 20.9149 25.6236C20.844 25.4816 20.7731 25.3751 20.6668 25.2687C20.6313 25.1977 20.5959 25.1622 20.525 25.0912V25.0202C20.2768 24.7008 20.0996 24.3459 19.9578 23.991C19.9223 23.8846 19.9223 23.7426 19.9932 23.6361C19.9932 23.6006 20.0287 23.6006 20.0287 23.6006L19.9223 23.3167C21.7303 22.2165 23.1128 20.513 23.7509 18.49L24.0345 18.5255C24.0699 18.5255 24.0699 18.49 24.0699 18.49C24.1408 18.4191 24.2472 18.3836 24.3535 18.3836H24.389C24.7789 18.4545 25.1689 18.561 25.5234 18.703H25.5588C25.6297 18.7385 25.7006 18.774 25.7715 18.774C25.9133 18.8449 26.0197 18.9159 26.1615 18.9514C26.1969 18.9514 26.2324 18.9869 26.3033 18.9869C26.3387 18.9869 26.3387 18.9869 26.3742 19.0224C26.4451 19.0579 26.4805 19.0579 26.5514 19.0579C26.8705 19.0579 27.1541 18.8449 27.2604 18.561C27.225 18.1706 26.9414 17.8867 26.6223 17.8157ZM16.3773 16.7155L15.4202 17.1769L14.463 16.7155L14.2149 15.6863L14.8884 14.8345H15.9519L16.6255 15.6863L16.3773 16.7155ZM22.1557 14.4087C22.3329 15.154 22.3684 15.8993 22.2975 16.6445L18.9297 15.6863C18.6107 15.6153 18.4334 15.2959 18.5043 14.9765C18.5398 14.87 18.5752 14.7991 18.6461 14.7281L21.3049 12.3147C21.6948 12.9536 21.9784 13.6634 22.1557 14.4087ZM20.2414 11.0016L17.3345 13.06C17.0863 13.202 16.7318 13.1665 16.5546 12.9181C16.4837 12.8471 16.4482 12.7761 16.4482 12.6696L16.2355 9.08513C17.7953 9.26258 19.1779 9.93689 20.2414 11.0016ZM13.8249 9.1916L14.5339 9.04964L14.3567 12.5987C14.3567 12.9181 14.0731 13.1665 13.754 13.1665C13.6477 13.1665 13.5768 13.131 13.4704 13.0955L10.5281 11.0016C11.4498 10.1143 12.5842 9.47552 13.8249 9.1916ZM9.50005 12.3147L12.1233 14.6571C12.3715 14.87 12.4069 15.2249 12.1942 15.4734C12.1233 15.5798 12.0524 15.6153 11.9106 15.6508L8.47201 16.6445C8.36566 15.154 8.72016 13.6279 9.50005 12.3147ZM8.89741 18.3126L12.4069 17.7093C12.6905 17.7093 12.9741 17.8867 13.0096 18.1706C13.045 18.2771 13.045 18.4191 12.9741 18.5255L11.627 21.7906C10.3863 20.9744 9.39371 19.7322 8.89741 18.3126ZM16.9445 22.7134C16.4482 22.8198 15.9519 22.8908 15.4202 22.8908C14.6757 22.8908 13.8958 22.7489 13.1868 22.5359L14.9239 19.3773C15.1011 19.1644 15.3847 19.0934 15.6329 19.2353C15.7392 19.3063 15.8101 19.3773 15.9165 19.4838L17.6181 22.5714C17.4054 22.6069 17.1927 22.6424 16.9445 22.7134ZM21.2694 19.6257C20.7377 20.4775 19.9932 21.2228 19.1424 21.7551L17.7599 18.4191C17.689 18.1351 17.8308 17.8512 18.0789 17.7447C18.1853 17.7093 18.2916 17.6738 18.398 17.6738L21.943 18.2771C21.7657 18.774 21.553 19.2353 21.2694 19.6257Z" fill="white"/>
</svg>
