<svg xmlns="http://www.w3.org/2000/svg" viewBox="0 0 31 30"><defs/><path fill-rule="evenodd" d="M15.5743.00000795C11.877-.00370655 8.29926 1.29419 5.48215 3.66111 2.66504 6.02803.792734 9.30925.200757 12.9168c-.591978 3.6075.13507 7.3055 2.050853 10.4312 1.91578 3.1258 4.89508 5.475 8.40399 6.6267.7832.1416 1.0601-.3398 1.0601-.7458v-2.6151c-4.34564.9346-5.26253-2.0676-5.26253-2.0676-.2883-.9304-.90077-1.7298-1.72872-2.2563-1.40398-.9441.11461-.9441.11461-.9441.49216.0687.96205.2472 1.37408.522.41203.2748.7554.6387 1.0041 1.064.21133.3788.49624.7126.83838.9823.34215.2696.7348.4698 1.15542.5891.42062.1193.86096.1553 1.29566.106.4347-.0493.8553-.183 1.2377-.3934.0599-.7767.3987-1.5066.9551-2.0581-3.45746-.3871-7.08681-1.7088-7.08681-7.5527-.02374-1.5266.54734-3.0038 1.595-4.1256-.4666-1.3274-.41207-2.77954.15282-4.06905 0 0 1.30847-.4154 4.27879 1.57662 2.5507-.69224 5.2429-.69224 7.7936 0 2.9703-1.99202 4.2692-1.57662 4.2692-1.57662.5728 1.27586.6409 2.71759.1911 4.04065 1.0476 1.1219 1.6187 2.5991 1.595 4.1257 0 5.91-3.6389 7.2034-7.1059 7.5527.3717.3694.6588.8134.8417 1.3021.1829.4887.2574 1.0105.2184 1.5301v4.2201c0 .5004.277.8874 1.0697.7364 3.469-1.1821 6.4036-3.538 8.2856-6.6516 1.8819-3.1136 2.5901-6.7845 1.9993-10.3642-.5908-3.57963-2.4426-6.83771-5.2281-9.19862C22.7835 1.34277 19.2434.0309637 15.5743.00000795z" clip-rule="evenodd"/></svg>
