<svg width="142" height="28" viewBox="0 0 142 28" fill="none" xmlns="http://www.w3.org/2000/svg">
    <path
        d="M8.32327 22.6667C6.6948 22.6667 5.1166 22.4444 3.58866 22C2.08082 21.5556 0.884599 20.9662 0 20.2319L1.35705 17.3043C2.22155 17.9614 3.27704 18.5024 4.52352 18.9275C5.7901 19.3333 7.05669 19.5362 8.32327 19.5362C9.89142 19.5362 11.0575 19.2947 11.8215 18.8116C12.6055 18.3285 12.9976 17.6908 12.9976 16.8986C12.9976 16.3188 12.7764 15.8454 12.3341 15.4783C11.9119 15.0918 11.3691 14.7923 10.7057 14.5797C10.0422 14.3671 9.1375 14.1256 7.99154 13.8551C6.38318 13.4879 5.07639 13.1208 4.07116 12.7536C3.08604 12.3865 2.2316 11.8164 1.50784 11.0435C0.804181 10.2512 0.452352 9.18841 0.452352 7.85507C0.452352 6.7343 0.763972 5.71981 1.38721 4.81159C2.03056 3.88406 2.98552 3.14976 4.25211 2.6087C5.53879 2.06763 7.10695 1.7971 8.95656 1.7971C10.2433 1.7971 11.5098 1.95169 12.7563 2.26087C14.0028 2.57005 15.0784 3.01449 15.9831 3.5942L14.7467 6.52174C13.8219 6 12.8568 5.60386 11.8516 5.33333C10.8464 5.0628 9.87132 4.92753 8.92641 4.92753C7.37836 4.92753 6.22235 5.17874 5.45838 5.68116C4.71451 6.18358 4.34258 6.85024 4.34258 7.68116C4.34258 8.26087 4.55367 8.7343 4.97587 9.10145C5.41817 9.4686 5.97104 9.75845 6.63449 9.97101C7.29794 10.1836 8.20264 10.4251 9.3486 10.6957C10.9168 11.0435 12.2034 11.4106 13.2087 11.7971C14.2139 12.1643 15.0683 12.7343 15.772 13.5072C16.4958 14.2802 16.8576 15.3237 16.8576 16.6377C16.8576 17.7585 16.536 18.7729 15.8926 19.6812C15.2694 20.5894 14.3144 21.314 13.0277 21.8551C11.741 22.3961 10.1729 22.6667 8.32327 22.6667Z"
        fill="white" />
    <path
        d="M29.5207 6.72464C31.5512 6.72464 33.1797 7.29469 34.4061 8.43478C35.6324 9.57488 36.2456 11.2657 36.2456 13.5072V22.3768H32.476V13.971C32.476 12.6184 32.1443 11.6039 31.4808 10.9275C30.8174 10.2319 29.8725 9.88406 28.6461 9.88406C27.2589 9.88406 26.1632 10.2899 25.359 11.1014C24.5548 11.8937 24.1528 13.0435 24.1528 14.5507V22.3768H20.3832V6.89855H23.9718V8.89855C24.595 8.18357 25.3791 7.64251 26.324 7.27536C27.2689 6.90821 28.3345 6.72464 29.5207 6.72464Z"
        fill="white" />
    <path
        d="M41.0276 6.89855H44.7972V22.3768H41.0276V6.89855ZM42.9275 4.34783C42.2439 4.34783 41.6709 4.14493 41.2085 3.73913C40.7461 3.31401 40.5149 2.79227 40.5149 2.17391C40.5149 1.55556 40.7461 1.04348 41.2085 0.63768C41.6709 0.21256 42.2439 0 42.9275 0C43.611 0 44.184 0.202898 44.6464 0.608695C45.1088 0.995169 45.34 1.48792 45.34 2.08696C45.34 2.72464 45.1088 3.2657 44.6464 3.71014C44.2041 4.13526 43.6311 4.34783 42.9275 4.34783Z"
        fill="white" />
    <path
        d="M58.6712 6.72464C60.2393 6.72464 61.6366 7.05314 62.863 7.71014C64.1095 8.36715 65.0845 9.29468 65.7882 10.4928C66.4918 11.6908 66.8437 13.0725 66.8437 14.6377C66.8437 16.2029 66.4918 17.5942 65.7882 18.8116C65.0845 20.0097 64.1095 20.9372 62.863 21.5942C61.6366 22.2512 60.2393 22.5797 58.6712 22.5797C56.4999 22.5797 54.781 21.8841 53.5144 20.4928V28H49.7448V6.89855H53.3334V8.92754C53.9567 8.19324 54.7206 7.64251 55.6253 7.27536C56.5502 6.90821 57.5654 6.72464 58.6712 6.72464ZM58.249 19.4783C59.6362 19.4783 60.7721 19.0338 61.6567 18.1449C62.5614 17.256 63.0138 16.087 63.0138 14.6377C63.0138 13.1884 62.5614 12.0193 61.6567 11.1304C60.7721 10.2415 59.6362 9.7971 58.249 9.7971C57.3443 9.7971 56.5301 10 55.8063 10.4058C55.0825 10.7923 54.5095 11.3527 54.0874 12.087C53.6652 12.8213 53.4541 13.6715 53.4541 14.6377C53.4541 15.6039 53.6652 16.4541 54.0874 17.1884C54.5095 17.9227 55.0825 18.4928 55.8063 18.8986C56.5301 19.285 57.3443 19.4783 58.249 19.4783Z"
        fill="white" />
    <path
        d="M75.3945 22.5797C74.0877 22.5797 72.8111 22.4155 71.5646 22.087C70.3181 21.7585 69.323 21.343 68.5791 20.8406L70.0266 18.087C70.7504 18.5507 71.6149 18.9275 72.6201 19.2174C73.6454 19.4879 74.6507 19.6232 75.6358 19.6232C77.8875 19.6232 79.0133 19.0531 79.0133 17.913C79.0133 17.372 78.7218 16.9952 78.1388 16.7826C77.5759 16.57 76.6611 16.3672 75.3945 16.1739C74.0676 15.9807 72.982 15.7585 72.1376 15.5072C71.3133 15.256 70.5895 14.8213 69.9663 14.2029C69.3632 13.5652 69.0616 12.686 69.0616 11.5652C69.0616 10.0966 69.6949 8.92754 70.9615 8.05797C72.2482 7.16908 73.9772 6.72464 76.1484 6.72464C77.2542 6.72464 78.3599 6.85024 79.4657 7.10145C80.5714 7.33333 81.4761 7.65217 82.1798 8.05797L80.7323 10.8116C79.3652 10.0386 77.8272 9.65217 76.1183 9.65217C75.0125 9.65217 74.1681 9.81643 73.5851 10.1449C73.0222 10.4541 72.7407 10.8696 72.7407 11.3913C72.7407 11.971 73.0423 12.3865 73.6454 12.6377C74.2687 12.8696 75.2236 13.0918 76.5103 13.3043C77.797 13.4976 78.8525 13.7198 79.6768 13.971C80.5011 14.2222 81.2047 14.6473 81.7878 15.2464C82.3909 15.8454 82.6925 16.6957 82.6925 17.7971C82.6925 19.2464 82.0391 20.4058 80.7323 21.2754C79.4255 22.1449 77.6462 22.5797 75.3945 22.5797Z"
        fill="white" />
    <path
        d="M95.0763 6.72464C97.1069 6.72464 98.7353 7.29469 99.9617 8.43478C101.188 9.57488 101.801 11.2657 101.801 13.5072V22.3768H98.0317V13.971C98.0317 12.6184 97.6999 11.6039 97.0365 10.9275C96.373 10.2319 95.4281 9.88406 94.2017 9.88406C92.8145 9.88406 91.7188 10.2899 90.9147 11.1014C90.1105 11.8937 89.7084 13.0435 89.7084 14.5507V22.3768H85.9388V6.89855H89.5274V8.89855C90.1507 8.18357 90.9348 7.64251 91.8797 7.27536C92.8246 6.90821 93.8901 6.72464 95.0763 6.72464Z"
        fill="white" />
    <path
        d="M112.735 6.72464C115.108 6.72464 116.917 7.27536 118.163 8.37681C119.43 9.45894 120.063 11.1014 120.063 13.3043V22.3768H116.505V20.4928C116.042 21.1691 115.379 21.6908 114.514 22.058C113.67 22.4058 112.645 22.5797 111.438 22.5797C110.232 22.5797 109.177 22.3865 108.272 22C107.367 21.5942 106.664 21.0435 106.161 20.3478C105.679 19.6329 105.437 18.8309 105.437 17.942C105.437 16.5507 105.97 15.4396 107.036 14.6087C108.121 13.7585 109.82 13.3333 112.132 13.3333H116.294V13.1014C116.294 12.0193 115.952 11.1884 115.268 10.6087C114.605 10.029 113.61 9.73913 112.283 9.73913C111.378 9.73913 110.483 9.8744 109.599 10.1449C108.734 10.4155 108.001 10.7923 107.397 11.2754L105.92 8.63768C106.764 8.01932 107.779 7.54589 108.966 7.21739C110.152 6.88889 111.408 6.72464 112.735 6.72464ZM112.223 19.942C113.167 19.942 114.002 19.7391 114.726 19.3333C115.469 18.9082 115.992 18.3092 116.294 17.5362V15.7391H112.403C110.232 15.7391 109.147 16.4251 109.147 17.7971C109.147 18.4541 109.418 18.9758 109.961 19.3623C110.504 19.7488 111.258 19.942 112.223 19.942Z"
        fill="white" />
    <path
        d="M133.828 6.72464C135.396 6.72464 136.793 7.05314 138.019 7.71014C139.266 8.36715 140.241 9.29468 140.945 10.4928C141.648 11.6908 142 13.0725 142 14.6377C142 16.2029 141.648 17.5942 140.945 18.8116C140.241 20.0097 139.266 20.9372 138.019 21.5942C136.793 22.2512 135.396 22.5797 133.828 22.5797C131.656 22.5797 129.937 21.8841 128.671 20.4928V28H124.901V6.89855H128.49V8.92754C129.113 8.19324 129.877 7.64251 130.782 7.27536C131.706 6.90821 132.722 6.72464 133.828 6.72464ZM133.405 19.4783C134.793 19.4783 135.928 19.0338 136.813 18.1449C137.718 17.256 138.17 16.087 138.17 14.6377C138.17 13.1884 137.718 12.0193 136.813 11.1304C135.928 10.2415 134.793 9.7971 133.405 9.7971C132.501 9.7971 131.686 10 130.963 10.4058C130.239 10.7923 129.666 11.3527 129.244 12.087C128.821 12.8213 128.61 13.6715 128.61 14.6377C128.61 15.6039 128.821 16.4541 129.244 17.1884C129.666 17.9227 130.239 18.4928 130.963 18.8986C131.686 19.285 132.501 19.4783 133.405 19.4783Z"
        fill="white" />
</svg>