<svg width="100" height="100" viewBox="0 0 100 100" fill="none" xmlns="http://www.w3.org/2000/svg">
<path d="M57.2042 53.8291C62.5522 53.9055 63.5754 57.3553 63.5126 59.0707C68.8794 59.0707 68.597 65.0747 68.597 67.7431C68.597 70.4115 67.9378 84.1349 58.899 88.4233C51.6678 91.8543 39.8796 83.1183 34.8894 78.3215C28.7694 73.3659 31.9706 62.4063 34.8894 57.9271L49.0128 35.8173C51.7996 31.3953 54.8988 31.4183 56.4994 32.5621C59.8138 35.0779 57.4994 38.8441 56.1896 41.3053L51.1994 49.7871C53.9112 49.9395 56.7962 52.7491 57.2042 53.8291Z" fill="#E6C8B3"/>
<path d="M59.1995 88.1041C41.9195 86.9065 31.8759 66.9457 38.7995 51.8755L34.9995 57.3647L32.3995 62.7541C32.0995 65.1161 31.4995 69.9199 31.4995 70.2393C31.4995 70.5587 32.0995 73.8323 32.3995 75.4291L37.5995 81.0181L48.4995 87.6051L55.0995 89.5013L59.1995 88.1041Z" fill="#DFBBA0"/>
<path d="M54.1992 50.9775C48.474 60.2623 45.5976 63.2847 43.8408 63.8267L51.7992 49.5801L54.1992 50.9775Z" fill="#DFBBA0"/>
<path d="M60.5994 54.9695C57.7194 63.3531 53.4566 66.9777 51.5566 67.7761L57.4994 54.0713L60.5994 54.9695Z" fill="#DFBBA0"/>
<path d="M66.4034 60.1639C65.0158 65.7359 60.5404 70.2403 58.436 71.6013L63.882 59.3171L66.4034 60.1639Z" fill="#DFBBA0"/>
<path d="M39.6991 33.7114C42.5791 32.913 45.5659 37.1712 46.6991 39.4002L38.2333 52.9188C38.0901 53.2692 37.9135 53.5578 37.6991 53.7718L38.2333 52.9188C39.4791 49.8704 38.1961 42.1514 37.2991 38.3022C36.8991 37.1046 36.8191 34.5098 39.6991 33.7114Z" fill="#D9AC8C"/>
<path fill-rule="evenodd" clip-rule="evenodd" d="M52.9083 31.1482C54.5359 30.6514 56.0333 31.0016 57.0815 31.7506C57.0893 31.7562 57.0971 31.762 57.1047 31.7678C58.0829 32.5104 58.6935 33.3866 58.9895 34.3514C59.2815 35.303 59.2447 36.2656 59.0573 37.1588C58.7347 38.6968 57.9147 40.2138 57.3005 41.3502C57.2205 41.498 57.1441 41.6394 57.0727 41.7736C57.0661 41.786 57.0591 41.7984 57.0519 41.8108L52.7725 49.0842C53.8583 49.4346 54.8653 50.045 55.6769 50.6704C56.2801 51.1354 56.8103 51.6354 57.2241 52.1022C57.4385 52.344 57.6415 52.5992 57.8091 52.8532C60.3817 53.0094 62.0929 53.9366 63.1523 55.1926C63.9537 56.1426 64.3263 57.215 64.4573 58.1316C65.5637 58.2748 66.4773 58.6746 67.2105 59.2834C68.1281 60.045 68.6803 61.0648 69.0177 62.0966C69.6175 63.9292 69.6057 66.038 69.5983 67.3618C69.5975 67.4976 69.5969 67.625 69.5969 67.7432C69.5969 69.1314 69.4281 73.3354 68.0951 77.763C66.7691 82.1678 64.2257 87.0012 59.3283 89.3248C57.2699 90.3014 54.9463 90.3842 52.6143 89.948C50.2827 89.5118 47.8775 88.5458 45.5873 87.3408C41.0269 84.9408 36.7727 81.5124 34.2257 79.0692C30.8121 76.2804 30.0915 71.8944 30.5049 67.8446C30.9211 63.7682 32.5039 59.759 34.0485 57.387L36.6343 53.339C37.4281 51.713 37.6517 49.5414 37.5609 47.3894C37.4709 45.263 37.0799 43.2808 36.7495 42.1104C36.2567 40.8176 35.7537 38.8164 35.8877 36.9702C35.9561 36.0294 36.1949 35.056 36.7559 34.2378C37.3343 33.3938 38.2081 32.7862 39.3917 32.5354C41.7565 32.0344 43.6693 33.197 45.0017 34.6124C45.7771 35.4362 46.4069 36.3932 46.8835 37.294L48.1661 35.286C48.1667 35.285 48.1673 35.2842 48.1679 35.2832C49.6459 32.939 51.2895 31.6426 52.9083 31.1482ZM45.6113 39.2856C45.1981 38.2724 44.4885 36.9824 43.5441 35.979C42.4573 34.8246 41.2103 34.1906 39.8071 34.488C39.1067 34.6364 38.6837 34.9604 38.4065 35.365C38.1115 35.7954 37.9353 36.3876 37.8825 37.1144C37.7759 38.5824 38.1939 40.2996 38.6327 41.4368C38.6433 41.4646 38.6529 41.493 38.6611 41.5216C39.0333 42.824 39.4609 44.9836 39.5591 47.3054C39.5787 47.7724 39.5855 48.2514 39.5749 48.7354L45.6113 39.2856ZM62.5135 59.0228C62.5353 58.3536 62.3405 57.3294 61.6223 56.478C61.0081 55.75 59.9243 55.0454 57.9909 54.8684C57.2453 57.8596 55.2947 63.4852 51.9687 67.4836C51.6161 67.9076 50.9855 67.966 50.5607 67.614C50.1357 67.2618 50.0771 66.6326 50.4299 66.2086C53.6563 62.33 55.5391 56.6424 56.1503 53.9684C56.0627 53.834 55.9255 53.6498 55.7261 53.4248C55.3993 53.0562 54.9623 52.6416 54.4543 52.2502C53.5991 51.5912 52.6343 51.0666 51.7279 50.8664L44.4643 63.355C44.1869 63.8316 43.5749 63.9938 43.0973 63.717C42.6197 63.4404 42.4573 62.8296 42.7345 62.3528L50.3345 49.286L50.3371 49.2818L55.3165 40.8184C55.3911 40.6782 55.4671 40.537 55.5437 40.3948C56.1727 39.2252 56.8411 37.9822 57.0997 36.7498C57.2403 36.0792 57.2425 35.4748 57.0771 34.9358C56.9169 34.413 56.5769 33.8782 55.9059 33.3656C55.3533 32.9758 54.5055 32.748 53.4935 33.057C52.4663 33.3706 51.1675 34.2728 49.8591 36.3488L49.8559 36.3538L35.7325 58.4636L35.7277 58.4714C34.3543 60.5788 32.8785 64.2868 32.4947 68.0468C32.1091 71.8222 32.8417 75.3784 35.5195 77.5466C35.5415 77.5644 35.5627 77.5832 35.5831 77.6028C38.0297 79.9546 42.1493 83.275 46.5201 85.575C48.7047 86.7246 50.9143 87.5992 52.9827 87.986C55.0507 88.3728 56.9123 88.261 58.4695 87.5222C62.6109 85.5572 64.9165 81.3846 66.1797 77.1886C67.4361 73.0152 67.5969 69.0234 67.5969 67.7432C67.5969 67.6212 67.5973 67.4948 67.5977 67.3646C67.6025 66.0016 67.6089 64.2208 67.1165 62.7162C66.8539 61.9134 66.4705 61.2654 65.9315 60.8178C65.5577 60.5076 65.0675 60.2588 64.4027 60.1418C63.9997 62.9098 62.5195 67.787 58.7919 71.3586C58.3935 71.7402 57.7605 71.7274 57.3779 71.3298C56.9955 70.9322 57.0085 70.3004 57.4069 69.9186C61.1609 66.3218 62.3813 61.1318 62.5135 59.0228Z" fill="#17181C"/>
<path fill-rule="evenodd" clip-rule="evenodd" d="M41.4648 13.8305C41.7576 14.298 41.6152 14.9137 41.1468 15.2058C41.147 15.2057 41.14 15.2102 41.1226 15.2219C41.1062 15.2329 41.085 15.2475 41.0584 15.2661C41.0052 15.3034 40.9362 15.3526 40.8522 15.4133C40.6842 15.5347 40.4638 15.6963 40.2026 15.8897C39.6804 16.276 39.0024 16.783 38.268 17.3348C37.2128 18.1276 36.044 19.0107 35.0592 19.7567L41.2168 24.3659C41.6586 24.6965 41.7482 25.3221 41.4168 25.7631C41.0854 26.2041 40.4586 26.2935 40.0168 25.9627L32.7994 20.5603C32.5486 20.3725 32.4006 20.0783 32.3994 19.7653C32.3984 19.4524 32.5444 19.1571 32.794 18.9676C33.9022 18.1262 35.5932 16.8461 37.0652 15.7401C38.5042 14.6589 39.809 13.6864 40.0868 13.5132C40.5552 13.221 41.1722 13.3631 41.4648 13.8305Z" fill="white"/>
<path fill-rule="evenodd" clip-rule="evenodd" d="M51.9237 13.8305C51.6309 14.298 51.7733 14.9137 52.2417 15.2058C52.2415 15.2057 52.2485 15.2102 52.2659 15.2219C52.2823 15.2329 52.3035 15.2475 52.3301 15.2661C52.3833 15.3034 52.4523 15.3526 52.5365 15.4133C52.7045 15.5347 52.9247 15.6963 53.1861 15.8897C53.7083 16.276 54.3861 16.783 55.1205 17.3348C56.1757 18.1276 57.3445 19.0107 58.3293 19.7567L52.1717 24.3659C51.7299 24.6965 51.6403 25.3221 51.9717 25.7631C52.3031 26.2041 52.9299 26.2935 53.3717 25.9627L60.5891 20.5603C60.8399 20.3725 60.9879 20.0783 60.9891 19.7653C60.9901 19.4524 60.8441 19.1571 60.5945 18.9676C59.4865 18.1262 57.7953 16.8461 56.3235 15.7401C54.8845 14.6589 53.5795 13.6864 53.3017 13.5132C52.8333 13.221 52.2163 13.3631 51.9237 13.8305Z" fill="white"/>
<path fill-rule="evenodd" clip-rule="evenodd" d="M48.4345 9.97364C48.9783 10.0695 49.3415 10.5873 49.2459 11.1302L46.1187 28.8656C46.0229 29.4086 45.5045 29.7708 44.9605 29.675C44.4167 29.579 44.0533 29.0612 44.1491 28.5184L47.2763 10.7829C47.3721 10.2401 47.8905 9.87774 48.4345 9.97364Z" fill="white"/>
</svg>
