<svg width="246" height="422" viewBox="0 0 246 422" fill="none" xmlns="http://www.w3.org/2000/svg">
    <path
        d="M22.0493 310.222C24.1821 310.222 25.5469 309.13 25.5469 307.378V307.372C25.5469 306.014 24.7598 305.239 22.8364 304.827L21.8398 304.604C20.6528 304.351 20.1704 303.906 20.1704 303.227V303.221C20.1704 302.357 20.9639 301.856 22.0366 301.856C23.1475 301.85 23.8647 302.396 23.9854 303.145L23.998 303.227H25.3755L25.3691 303.138C25.2676 301.716 23.998 300.618 22.0557 300.618C20.1133 300.618 18.7422 301.71 18.7358 303.291V303.297C18.7358 304.649 19.5356 305.512 21.3955 305.906L22.3984 306.122C23.6108 306.382 24.106 306.839 24.106 307.543V307.55C24.106 308.4 23.2744 308.984 22.1064 308.984C20.8813 308.984 19.999 308.451 19.9229 307.62L19.9165 307.55H18.52L18.5264 307.632C18.6533 309.175 19.98 310.222 22.0493 310.222ZM27.3242 310H28.7017V305.957C28.7017 304.846 29.3301 304.154 30.3394 304.154C31.3486 304.154 31.8247 304.719 31.8247 305.861V310H33.1958V305.538C33.1958 303.894 32.3452 302.973 30.8027 302.973C29.7998 302.973 29.1396 303.417 28.8032 304.154H28.7017V300.402H27.3242V310ZM38.0391 310.133C40.0576 310.133 41.2954 308.781 41.2954 306.56V306.547C41.2954 304.325 40.0513 302.973 38.0391 302.973C36.0205 302.973 34.7764 304.332 34.7764 306.547V306.56C34.7764 308.781 36.0142 310.133 38.0391 310.133ZM38.0391 308.984C36.8521 308.984 36.1855 308.089 36.1855 306.56V306.547C36.1855 305.017 36.8521 304.122 38.0391 304.122C39.2197 304.122 39.8926 305.017 39.8926 306.547V306.56C39.8926 308.083 39.2197 308.984 38.0391 308.984ZM43.9995 310H45.4023L46.8242 304.858H46.9321L48.3604 310H49.7759L51.6738 303.106H50.3091L49.0776 308.426H48.9697L47.5479 303.106H46.2402L44.8184 308.426H44.7168L43.479 303.106H42.0952L43.9995 310ZM56.0918 310H57.5835L58.415 307.524H61.9189L62.7441 310H64.2422L60.9351 300.84H59.3989L56.0918 310ZM60.1099 302.446H60.2178L61.5381 306.382H58.7959L60.1099 302.446ZM65.7402 310H67.1177V300.402H65.7402V310ZM69.2314 310H70.6089V300.402H69.2314V310ZM80.1304 310.222C82.1743 310.222 83.666 309.054 83.9326 307.296V307.258H82.5234L82.5107 307.283C82.2505 308.318 81.3428 308.965 80.1304 308.965C78.48 308.965 77.4517 307.601 77.4517 305.43V305.417C77.4517 303.24 78.48 301.875 80.124 301.875C81.3301 301.875 82.2505 302.605 82.5171 303.729V303.748H83.9263L83.9326 303.716C83.6914 301.894 82.1426 300.618 80.124 300.618C77.5786 300.618 75.998 302.459 75.998 305.417V305.43C75.998 308.381 77.585 310.222 80.1304 310.222ZM88.5664 310.133C90.585 310.133 91.8228 308.781 91.8228 306.56V306.547C91.8228 304.325 90.5786 302.973 88.5664 302.973C86.5479 302.973 85.3037 304.332 85.3037 306.547V306.56C85.3037 308.781 86.5415 310.133 88.5664 310.133ZM88.5664 308.984C87.3794 308.984 86.7129 308.089 86.7129 306.56V306.547C86.7129 305.017 87.3794 304.122 88.5664 304.122C89.7471 304.122 90.4199 305.017 90.4199 306.547V306.56C90.4199 308.083 89.7471 308.984 88.5664 308.984ZM93.4668 310H94.8442V305.766C94.8442 304.865 95.46 304.154 96.2915 304.154C97.104 304.154 97.6182 304.649 97.6182 305.436V310H98.9893V305.639C98.9893 304.808 99.5669 304.154 100.443 304.154C101.344 304.154 101.776 304.624 101.776 305.576V310H103.147V305.246C103.147 303.811 102.334 302.973 100.944 302.973C99.9858 302.973 99.1924 303.462 98.8433 304.205H98.7354C98.4307 303.462 97.7642 302.973 96.8247 302.973C95.9233 302.973 95.2505 303.411 94.9458 304.167H94.8442V303.106H93.4668V310ZM105.07 310H106.448V305.766C106.448 304.865 107.063 304.154 107.895 304.154C108.708 304.154 109.222 304.649 109.222 305.436V310H110.593V305.639C110.593 304.808 111.17 304.154 112.046 304.154C112.948 304.154 113.379 304.624 113.379 305.576V310H114.75V305.246C114.75 303.811 113.938 302.973 112.548 302.973C111.589 302.973 110.796 303.462 110.447 304.205H110.339C110.034 303.462 109.368 302.973 108.428 302.973C107.527 302.973 106.854 303.411 106.549 304.167H106.448V303.106H105.07V310ZM118.565 310.114C119.479 310.114 120.203 309.721 120.609 309.022H120.717V310H122.082V305.284C122.082 303.836 121.104 302.973 119.372 302.973C117.804 302.973 116.718 303.729 116.553 304.858L116.547 304.903H117.874L117.88 304.877C118.045 304.389 118.546 304.109 119.308 304.109C120.241 304.109 120.717 304.528 120.717 305.284V305.893L118.851 306.001C117.207 306.103 116.28 306.82 116.28 308.051V308.064C116.28 309.314 117.251 310.114 118.565 310.114ZM117.651 308.007V307.994C117.651 307.372 118.083 307.029 119.035 306.972L120.717 306.864V307.455C120.717 308.343 119.962 309.016 118.934 309.016C118.191 309.016 117.651 308.642 117.651 308.007ZM124.024 310H125.402V305.957C125.402 304.846 126.03 304.154 127.04 304.154C128.049 304.154 128.525 304.719 128.525 305.861V310H129.896V305.538C129.896 303.894 129.045 302.973 127.503 302.973C126.5 302.973 125.84 303.417 125.503 304.154H125.402V303.106H124.024V310ZM134.333 310.114C135.298 310.114 136.053 309.67 136.453 308.915H136.561V310H137.932V300.402H136.561V304.198H136.453C136.085 303.456 135.279 302.986 134.333 302.986C132.581 302.986 131.477 304.363 131.477 306.547V306.56C131.477 308.724 132.6 310.114 134.333 310.114ZM134.727 308.94C133.571 308.94 132.879 308.039 132.879 306.56V306.547C132.879 305.068 133.571 304.167 134.727 304.167C135.869 304.167 136.58 305.074 136.58 306.547V306.56C136.58 308.032 135.875 308.94 134.727 308.94ZM142.49 310.133C144.127 310.133 145.346 309.264 145.346 307.988V307.975C145.346 306.979 144.711 306.414 143.385 306.103L142.293 305.855C141.519 305.671 141.201 305.404 141.201 304.973V304.96C141.201 304.408 141.747 304.033 142.502 304.033C143.277 304.033 143.766 304.395 143.899 304.877V304.89H145.213V304.884C145.092 303.76 144.083 302.973 142.509 302.973C140.947 302.973 139.83 303.836 139.83 305.036V305.042C139.83 306.052 140.433 306.642 141.734 306.94L142.833 307.194C143.632 307.378 143.956 307.67 143.956 308.102V308.115C143.956 308.68 143.366 309.067 142.515 309.067C141.696 309.067 141.195 308.718 141.023 308.197L141.017 308.191H139.64V308.197C139.773 309.353 140.827 310.133 142.49 310.133Z"
        fill="#8A8A8A" />
    <path
        d="M31.9453 346.222C34.5923 346.222 36.2173 344.356 36.2173 341.423V341.411C36.2173 338.472 34.5796 336.618 31.9453 336.618C29.3174 336.618 27.667 338.465 27.667 341.411V341.423C27.667 344.362 29.2793 346.222 31.9453 346.222ZM31.9453 344.965C30.1807 344.965 29.1206 343.569 29.1206 341.423V341.411C29.1206 339.246 30.2124 337.875 31.9453 337.875C33.6782 337.875 34.7637 339.246 34.7637 341.411V341.423C34.7637 343.569 33.6846 344.965 31.9453 344.965ZM37.9883 348.298H39.3657V344.908H39.4673C39.8354 345.651 40.6416 346.114 41.5874 346.114C43.3394 346.114 44.4438 344.743 44.4438 342.56V342.547C44.4438 340.376 43.3267 338.986 41.5874 338.986C40.6226 338.986 39.8672 339.437 39.4673 340.192H39.3657V339.106H37.9883V348.298ZM41.2002 344.94C40.0513 344.94 39.3403 344.032 39.3403 342.56V342.547C39.3403 341.074 40.0513 340.167 41.2002 340.167C42.3491 340.167 43.041 341.062 43.041 342.547V342.56C43.041 344.039 42.3491 344.94 41.2002 344.94ZM48.9951 346.133C50.7598 346.133 51.7119 345.118 51.9404 344.21L51.9531 344.153L50.6265 344.159L50.6011 344.21C50.436 344.565 49.9092 345.003 49.0269 345.003C47.8906 345.003 47.167 344.235 47.1416 342.915H52.0293V342.433C52.0293 340.363 50.8486 338.973 48.9253 338.973C47.002 338.973 45.7578 340.414 45.7578 342.566V342.572C45.7578 344.756 46.9766 346.133 48.9951 346.133ZM48.9316 340.103C49.8647 340.103 50.5566 340.7 50.6646 341.931H47.1606C47.2812 340.744 47.9922 340.103 48.9316 340.103ZM53.667 346H55.0444V341.957C55.0444 340.846 55.6729 340.154 56.6821 340.154C57.6914 340.154 58.1675 340.719 58.1675 341.861V346H59.5386V341.538C59.5386 339.894 58.688 338.973 57.1455 338.973C56.1426 338.973 55.4824 339.417 55.146 340.154H55.0444V339.106H53.667V346ZM65.1753 346H66.5972V342.166H70.5327V340.966H66.5972V338.065H70.8945V336.84H65.1753V346ZM73.3003 337.875C73.77 337.875 74.1636 337.488 74.1636 337.018C74.1636 336.542 73.77 336.155 73.3003 336.155C72.8242 336.155 72.437 336.542 72.437 337.018C72.437 337.488 72.8242 337.875 73.3003 337.875ZM72.6084 346H73.9795V339.106H72.6084V346ZM76.0488 346H77.4263V336.402H76.0488V346ZM82.3711 346.133C84.1357 346.133 85.0879 345.118 85.3164 344.21L85.3291 344.153L84.0024 344.159L83.9771 344.21C83.812 344.565 83.2852 345.003 82.4028 345.003C81.2666 345.003 80.543 344.235 80.5176 342.915H85.4053V342.433C85.4053 340.363 84.2246 338.973 82.3013 338.973C80.3779 338.973 79.1338 340.414 79.1338 342.566V342.572C79.1338 344.756 80.3525 346.133 82.3711 346.133ZM82.3076 340.103C83.2407 340.103 83.9326 340.7 84.0405 341.931H80.5366C80.6572 340.744 81.3682 340.103 82.3076 340.103ZM93.5176 346.133C95.5361 346.133 96.7739 344.781 96.7739 342.56V342.547C96.7739 340.325 95.5298 338.973 93.5176 338.973C91.499 338.973 90.2549 340.332 90.2549 342.547V342.56C90.2549 344.781 91.4927 346.133 93.5176 346.133ZM93.5176 344.984C92.3306 344.984 91.6641 344.089 91.6641 342.56V342.547C91.6641 341.017 92.3306 340.122 93.5176 340.122C94.6982 340.122 95.3711 341.017 95.3711 342.547V342.56C95.3711 344.083 94.6982 344.984 93.5176 344.984ZM98.418 346H99.7954V341.88C99.7954 340.884 100.513 340.236 101.566 340.236C101.827 340.236 102.062 340.268 102.309 340.319V339.049C102.169 339.018 101.928 338.986 101.706 338.986C100.786 338.986 100.145 339.417 99.897 340.147H99.7954V339.106H98.418V346ZM107.336 346H108.758V342.166H112.694V340.966H108.758V338.065H113.056V336.84H107.336V346ZM117.664 346.133C119.683 346.133 120.92 344.781 120.92 342.56V342.547C120.92 340.325 119.676 338.973 117.664 338.973C115.646 338.973 114.401 340.332 114.401 342.547V342.56C114.401 344.781 115.639 346.133 117.664 346.133ZM117.664 344.984C116.477 344.984 115.811 344.089 115.811 342.56V342.547C115.811 341.017 116.477 340.122 117.664 340.122C118.845 340.122 119.518 341.017 119.518 342.547V342.56C119.518 344.083 118.845 344.984 117.664 344.984ZM122.628 346H124.005V336.402H122.628V346ZM128.569 346.114C129.534 346.114 130.29 345.67 130.689 344.915H130.797V346H132.168V336.402H130.797V340.198H130.689C130.321 339.456 129.515 338.986 128.569 338.986C126.817 338.986 125.713 340.363 125.713 342.547V342.56C125.713 344.724 126.836 346.114 128.569 346.114ZM128.963 344.94C127.808 344.94 127.116 344.039 127.116 342.56V342.547C127.116 341.068 127.808 340.167 128.963 340.167C130.105 340.167 130.816 341.074 130.816 342.547V342.56C130.816 344.032 130.112 344.94 128.963 344.94ZM137.113 346.133C138.878 346.133 139.83 345.118 140.059 344.21L140.071 344.153L138.745 344.159L138.719 344.21C138.554 344.565 138.027 345.003 137.145 345.003C136.009 345.003 135.285 344.235 135.26 342.915H140.147V342.433C140.147 340.363 138.967 338.973 137.043 338.973C135.12 338.973 133.876 340.414 133.876 342.566V342.572C133.876 344.756 135.095 346.133 137.113 346.133ZM137.05 340.103C137.983 340.103 138.675 340.7 138.783 341.931H135.279C135.399 340.744 136.11 340.103 137.05 340.103ZM141.785 346H143.163V341.88C143.163 340.884 143.88 340.236 144.934 340.236C145.194 340.236 145.429 340.268 145.676 340.319V339.049C145.537 339.018 145.295 338.986 145.073 338.986C144.153 338.986 143.512 339.417 143.264 340.147H143.163V339.106H141.785V346Z"
        fill="#8A8A8A" />
    <path
        d="M70.1455 382.222C72.7925 382.222 74.4175 380.356 74.4175 377.423V377.411C74.4175 374.472 72.7798 372.618 70.1455 372.618C67.5176 372.618 65.8672 374.465 65.8672 377.411V377.423C65.8672 380.362 67.4795 382.222 70.1455 382.222ZM70.1455 380.965C68.3809 380.965 67.3208 379.569 67.3208 377.423V377.411C67.3208 375.246 68.4126 373.875 70.1455 373.875C71.8784 373.875 72.9639 375.246 72.9639 377.411V377.423C72.9639 379.569 71.8848 380.965 70.1455 380.965ZM76.1885 384.298H77.5659V380.908H77.6675C78.0356 381.651 78.8418 382.114 79.7876 382.114C81.5396 382.114 82.644 380.743 82.644 378.56V378.547C82.644 376.376 81.5269 374.986 79.7876 374.986C78.8228 374.986 78.0674 375.437 77.6675 376.192H77.5659V375.106H76.1885V384.298ZM79.4004 380.94C78.2515 380.94 77.5405 380.032 77.5405 378.56V378.547C77.5405 377.074 78.2515 376.167 79.4004 376.167C80.5493 376.167 81.2412 377.062 81.2412 378.547V378.56C81.2412 380.039 80.5493 380.94 79.4004 380.94ZM87.1953 382.133C88.96 382.133 89.9121 381.118 90.1406 380.21L90.1533 380.153L88.8267 380.159L88.8013 380.21C88.6362 380.565 88.1094 381.003 87.2271 381.003C86.0908 381.003 85.3672 380.235 85.3418 378.915H90.2295V378.433C90.2295 376.363 89.0488 374.973 87.1255 374.973C85.2021 374.973 83.958 376.414 83.958 378.566V378.572C83.958 380.756 85.1768 382.133 87.1953 382.133ZM87.1318 376.103C88.0649 376.103 88.7568 376.7 88.8647 377.931H85.3608C85.4814 376.744 86.1924 376.103 87.1318 376.103ZM91.8672 382H93.2446V377.957C93.2446 376.846 93.873 376.154 94.8823 376.154C95.8916 376.154 96.3677 376.719 96.3677 377.861V382H97.7388V377.538C97.7388 375.894 96.8882 374.973 95.3457 374.973C94.3428 374.973 93.6826 375.417 93.3462 376.154H93.2446V375.106H91.8672V382ZM103.375 382H104.797V378.477H106.803L108.669 382H110.313L108.257 378.255C109.374 377.88 110.034 376.877 110.034 375.646V375.633C110.034 373.932 108.866 372.84 106.987 372.84H103.375V382ZM104.797 377.322V374.034H106.803C107.901 374.034 108.574 374.656 108.574 375.671V375.684C108.574 376.725 107.939 377.322 106.848 377.322H104.797ZM114.592 382.133C116.356 382.133 117.309 381.118 117.537 380.21L117.55 380.153L116.223 380.159L116.198 380.21C116.033 380.565 115.506 381.003 114.624 381.003C113.487 381.003 112.764 380.235 112.738 378.915H117.626V378.433C117.626 376.363 116.445 374.973 114.522 374.973C112.599 374.973 111.354 376.414 111.354 378.566V378.572C111.354 380.756 112.573 382.133 114.592 382.133ZM114.528 376.103C115.461 376.103 116.153 376.7 116.261 377.931H112.757C112.878 376.744 113.589 376.103 114.528 376.103ZM122.165 382.133C123.872 382.133 124.856 381.213 125.104 379.874L125.116 379.816H123.796L123.783 379.848C123.561 380.591 123.028 380.984 122.165 380.984C121.028 380.984 120.324 380.058 120.324 378.534V378.521C120.324 377.036 121.016 376.122 122.165 376.122C123.079 376.122 123.637 376.63 123.79 377.309L123.796 377.328L125.116 377.322V377.29C124.926 375.951 123.891 374.973 122.158 374.973C120.146 374.973 118.921 376.338 118.921 378.521V378.534C118.921 380.762 120.152 382.133 122.165 382.133ZM129.572 382.133C131.337 382.133 132.289 381.118 132.518 380.21L132.53 380.153L131.204 380.159L131.178 380.21C131.013 380.565 130.486 381.003 129.604 381.003C128.468 381.003 127.744 380.235 127.719 378.915H132.606V378.433C132.606 376.363 131.426 374.973 129.502 374.973C127.579 374.973 126.335 376.414 126.335 378.566V378.572C126.335 380.756 127.554 382.133 129.572 382.133ZM129.509 376.103C130.442 376.103 131.134 376.7 131.242 377.931H127.738C127.858 376.744 128.569 376.103 129.509 376.103ZM134.244 382H135.622V377.957C135.622 376.846 136.25 376.154 137.259 376.154C138.269 376.154 138.745 376.719 138.745 377.861V382H140.116V377.538C140.116 375.894 139.265 374.973 137.723 374.973C136.72 374.973 136.06 375.417 135.723 376.154H135.622V375.106H134.244V382ZM144.642 382.044C144.908 382.044 145.162 382.013 145.384 381.975V380.876C145.194 380.896 145.073 380.902 144.864 380.902C144.185 380.902 143.905 380.597 143.905 379.854V376.192H145.384V375.106H143.905V373.367H142.502V375.106H141.423V376.192H142.502V380.185C142.502 381.511 143.125 382.044 144.642 382.044Z"
        fill="#8A8A8A" />
    <path
        d="M40.2925 418H41.6763V411.348H41.7778L46.4814 418H47.7637V408.84H46.3799V415.505H46.2847L41.5747 408.84H40.2925V418ZM52.8037 418.133C54.5684 418.133 55.5205 417.118 55.749 416.21L55.7617 416.153L54.4351 416.159L54.4097 416.21C54.2446 416.565 53.7178 417.003 52.8354 417.003C51.6992 417.003 50.9756 416.235 50.9502 414.915H55.8379V414.433C55.8379 412.363 54.6572 410.973 52.7339 410.973C50.8105 410.973 49.5664 412.414 49.5664 414.566V414.572C49.5664 416.756 50.7852 418.133 52.8037 418.133ZM52.7402 412.103C53.6733 412.103 54.3652 412.7 54.4731 413.931H50.9692C51.0898 412.744 51.8008 412.103 52.7402 412.103ZM58.7515 418H60.1543L61.5762 412.858H61.6841L63.1123 418H64.5278L66.4258 411.106H65.061L63.8296 416.426H63.7217L62.2998 411.106H60.9922L59.5703 416.426H59.4688L58.231 411.106H56.8472L58.7515 418ZM75.249 418.222C77.5532 418.222 78.9561 416.857 78.9561 414.845V408.84H77.5342V414.737C77.5342 416.064 76.709 416.965 75.249 416.965C73.7891 416.965 72.9575 416.064 72.9575 414.737V408.84H71.5356V414.845C71.5356 416.857 72.9512 418.222 75.249 418.222ZM81.0889 418H82.4663V413.957C82.4663 412.846 83.0947 412.154 84.104 412.154C85.1133 412.154 85.5894 412.719 85.5894 413.861V418H86.9604V413.538C86.9604 411.894 86.1099 410.973 84.5674 410.973C83.5645 410.973 82.9043 411.417 82.5679 412.154H82.4663V411.106H81.0889V418ZM91.4863 418.044C91.7529 418.044 92.0068 418.013 92.229 417.975V416.876C92.0386 416.896 91.918 416.902 91.7085 416.902C91.0293 416.902 90.75 416.597 90.75 415.854V412.192H92.229V411.106H90.75V409.367H89.3472V411.106H88.2681V412.192H89.3472V416.185C89.3472 417.511 89.9692 418.044 91.4863 418.044ZM94.5522 409.875C95.022 409.875 95.4155 409.488 95.4155 409.018C95.4155 408.542 95.022 408.155 94.5522 408.155C94.0762 408.155 93.689 408.542 93.689 409.018C93.689 409.488 94.0762 409.875 94.5522 409.875ZM93.8604 418H95.2314V411.106H93.8604V418ZM99.8398 418.044C100.106 418.044 100.36 418.013 100.583 417.975V416.876C100.392 416.896 100.271 416.902 100.062 416.902C99.3828 416.902 99.1035 416.597 99.1035 415.854V412.192H100.583V411.106H99.1035V409.367H97.7007V411.106H96.6216V412.192H97.7007V416.185C97.7007 417.511 98.3228 418.044 99.8398 418.044ZM102.252 418H103.629V408.402H102.252V418ZM108.574 418.133C110.339 418.133 111.291 417.118 111.52 416.21L111.532 416.153L110.206 416.159L110.18 416.21C110.015 416.565 109.488 417.003 108.606 417.003C107.47 417.003 106.746 416.235 106.721 414.915H111.608V414.433C111.608 412.363 110.428 410.973 108.504 410.973C106.581 410.973 105.337 412.414 105.337 414.566V414.572C105.337 416.756 106.556 418.133 108.574 418.133ZM108.511 412.103C109.444 412.103 110.136 412.7 110.244 413.931H106.74C106.86 412.744 107.571 412.103 108.511 412.103ZM115.76 418.114C116.725 418.114 117.48 417.67 117.88 416.915H117.988V418H119.359V408.402H117.988V412.198H117.88C117.512 411.456 116.706 410.986 115.76 410.986C114.008 410.986 112.903 412.363 112.903 414.547V414.56C112.903 416.724 114.027 418.114 115.76 418.114ZM116.153 416.94C114.998 416.94 114.306 416.039 114.306 414.56V414.547C114.306 413.068 114.998 412.167 116.153 412.167C117.296 412.167 118.007 413.074 118.007 414.547V414.56C118.007 416.032 117.302 416.94 116.153 416.94ZM125.123 418H126.544V414.166H130.48V412.966H126.544V410.065H130.842V408.84H125.123V418ZM133.248 409.875C133.717 409.875 134.111 409.488 134.111 409.018C134.111 408.542 133.717 408.155 133.248 408.155C132.771 408.155 132.384 408.542 132.384 409.018C132.384 409.488 132.771 409.875 133.248 409.875ZM132.556 418H133.927V411.106H132.556V418ZM135.996 418H137.374V408.402H135.996V418ZM142.318 418.133C144.083 418.133 145.035 417.118 145.264 416.21L145.276 416.153L143.95 416.159L143.924 416.21C143.759 416.565 143.232 417.003 142.35 417.003C141.214 417.003 140.49 416.235 140.465 414.915H145.353V414.433C145.353 412.363 144.172 410.973 142.249 410.973C140.325 410.973 139.081 412.414 139.081 414.566V414.572C139.081 416.756 140.3 418.133 142.318 418.133ZM142.255 412.103C143.188 412.103 143.88 412.7 143.988 413.931H140.484C140.604 412.744 141.315 412.103 142.255 412.103Z"
        fill="#8A8A8A" />
    <g filter="url(#filter0_i)">
        <rect x="160" y="296" width="22" height="18" rx="2" fill="#808080" fill-opacity="0.17" />
        <path
            d="M169.594 309.105H172.406C173.127 309.105 173.514 308.684 173.514 308.004V306.064H175.26C175.693 306.064 176.027 305.801 176.027 305.391C176.027 305.139 175.91 304.969 175.699 304.758L171.621 300.674C171.445 300.492 171.234 300.381 171 300.381C170.771 300.381 170.561 300.492 170.379 300.674L166.301 304.758C166.084 304.975 165.973 305.139 165.973 305.391C165.973 305.801 166.307 306.064 166.746 306.064H168.492V308.004C168.492 308.684 168.873 309.105 169.594 309.105ZM169.787 308.121C169.641 308.121 169.535 308.016 169.535 307.863V305.309C169.535 305.197 169.488 305.15 169.377 305.15H167.408C167.385 305.15 167.373 305.145 167.373 305.127C167.373 305.115 167.379 305.104 167.391 305.092L170.947 301.559C170.959 301.541 170.982 301.535 171 301.535C171.018 301.535 171.041 301.541 171.053 301.559L174.609 305.092C174.621 305.104 174.627 305.115 174.627 305.127C174.627 305.145 174.615 305.15 174.598 305.15H172.623C172.512 305.15 172.465 305.197 172.465 305.309V307.863C172.465 308.01 172.359 308.121 172.213 308.121H169.787Z"
            fill="#CCCCCC" />
        <rect x="160.5" y="296.5" width="21" height="17" rx="1.5" stroke="#333333" stroke-opacity="0.6" />
    </g>
    <g filter="url(#filter1_i)">
        <rect x="186" y="296" width="22" height="18" rx="2" fill="#808080" fill-opacity="0.17" />
        <path
            d="M195.154 303.85V305.695H194.352C193.396 305.701 192.617 306.451 192.617 307.412C192.617 308.373 193.391 309.152 194.352 309.152C195.307 309.152 196.086 308.373 196.086 307.412V306.621H197.908V307.412C197.908 308.373 198.688 309.152 199.643 309.152C200.604 309.152 201.383 308.373 201.383 307.412C201.383 306.451 200.604 305.701 199.643 305.695H198.846V303.85H199.643C200.604 303.85 201.383 303.094 201.383 302.133C201.383 301.172 200.604 300.393 199.643 300.393C198.688 300.393 197.908 301.172 197.908 302.133V302.93H196.086V302.133C196.086 301.172 195.307 300.393 194.352 300.393C193.391 300.393 192.617 301.172 192.617 302.133C192.617 303.094 193.396 303.85 194.352 303.85H195.154ZM194.363 302.941C193.918 302.941 193.555 302.578 193.555 302.133C193.555 301.693 193.918 301.33 194.352 301.33C194.785 301.33 195.154 301.693 195.154 302.145V302.941H194.363ZM199.631 302.941H198.846V302.145C198.846 301.693 199.209 301.33 199.643 301.33C200.082 301.33 200.439 301.693 200.439 302.133C200.439 302.578 200.082 302.941 199.631 302.941ZM196.086 305.707V303.844H197.908V305.707H196.086ZM194.363 306.604H195.154V307.395C195.154 307.846 194.785 308.209 194.352 308.209C193.918 308.209 193.555 307.852 193.555 307.406C193.555 306.967 193.918 306.604 194.363 306.604ZM199.631 306.604C200.082 306.604 200.439 306.967 200.439 307.406C200.439 307.852 200.082 308.209 199.643 308.209C199.209 308.209 198.846 307.846 198.846 307.395V306.604H199.631Z"
            fill="#CCCCCC" />
        <rect x="186.5" y="296.5" width="21" height="17" rx="1.5" stroke="#333333" stroke-opacity="0.6" />
    </g>
    <g filter="url(#filter2_i)">
        <rect x="212" y="296" width="18" height="18" rx="2" fill="#808080" fill-opacity="0.17" />
        <path
            d="M218.164 309H219.477V306.111H221.457C223.115 306.111 224.264 304.98 224.264 303.328V303.316C224.264 301.658 223.115 300.545 221.457 300.545H218.164V309ZM221.129 301.652C222.266 301.652 222.928 302.268 222.928 303.322V303.334C222.928 304.395 222.266 305.01 221.129 305.01H219.477V301.652H221.129Z"
            fill="#CCCCCC" />
        <rect x="212.5" y="296.5" width="17" height="17" rx="1.5" stroke="#333333" stroke-opacity="0.6" />
    </g>
    <g filter="url(#filter3_i)">
        <rect x="160" y="332" width="22" height="18" rx="2" fill="#808080" fill-opacity="0.17" />
        <path
            d="M169.154 339.85V341.695H168.352C167.396 341.701 166.617 342.451 166.617 343.412C166.617 344.373 167.391 345.152 168.352 345.152C169.307 345.152 170.086 344.373 170.086 343.412V342.621H171.908V343.412C171.908 344.373 172.688 345.152 173.643 345.152C174.604 345.152 175.383 344.373 175.383 343.412C175.383 342.451 174.604 341.701 173.643 341.695H172.846V339.85H173.643C174.604 339.85 175.383 339.094 175.383 338.133C175.383 337.172 174.604 336.393 173.643 336.393C172.688 336.393 171.908 337.172 171.908 338.133V338.93H170.086V338.133C170.086 337.172 169.307 336.393 168.352 336.393C167.391 336.393 166.617 337.172 166.617 338.133C166.617 339.094 167.396 339.85 168.352 339.85H169.154ZM168.363 338.941C167.918 338.941 167.555 338.578 167.555 338.133C167.555 337.693 167.918 337.33 168.352 337.33C168.785 337.33 169.154 337.693 169.154 338.145V338.941H168.363ZM173.631 338.941H172.846V338.145C172.846 337.693 173.209 337.33 173.643 337.33C174.082 337.33 174.439 337.693 174.439 338.133C174.439 338.578 174.082 338.941 173.631 338.941ZM170.086 341.707V339.844H171.908V341.707H170.086ZM168.363 342.604H169.154V343.395C169.154 343.846 168.785 344.209 168.352 344.209C167.918 344.209 167.555 343.852 167.555 343.406C167.555 342.967 167.918 342.604 168.363 342.604ZM173.631 342.604C174.082 342.604 174.439 342.967 174.439 343.406C174.439 343.852 174.082 344.209 173.643 344.209C173.209 344.209 172.846 343.846 172.846 343.395V342.604H173.631Z"
            fill="#CCCCCC" />
        <rect x="160.5" y="332.5" width="21" height="17" rx="1.5" stroke="#333333" stroke-opacity="0.6" />
    </g>
    <g filter="url(#filter4_i)">
        <rect x="186" y="332" width="20" height="18" rx="2" fill="#808080" fill-opacity="0.17" />
        <path
            d="M196 345.205C198.443 345.205 199.943 343.482 199.943 340.775V340.764C199.943 338.051 198.432 336.34 196 336.34C193.574 336.34 192.051 338.045 192.051 340.764V340.775C192.051 343.488 193.539 345.205 196 345.205ZM196 344.045C194.371 344.045 193.393 342.756 193.393 340.775V340.764C193.393 338.766 194.4 337.5 196 337.5C197.6 337.5 198.602 338.766 198.602 340.764V340.775C198.602 342.756 197.605 344.045 196 344.045Z"
            fill="#CCCCCC" />
        <rect x="186.5" y="332.5" width="19" height="17" rx="1.5" stroke="#333333" stroke-opacity="0.6" />
    </g>
    <g filter="url(#filter5_i)">
        <rect x="160" y="404" width="22" height="18" rx="2" fill="#808080" fill-opacity="0.17" />
        <path
            d="M169.154 411.85V413.695H168.352C167.396 413.701 166.617 414.451 166.617 415.412C166.617 416.373 167.391 417.152 168.352 417.152C169.307 417.152 170.086 416.373 170.086 415.412V414.621H171.908V415.412C171.908 416.373 172.688 417.152 173.643 417.152C174.604 417.152 175.383 416.373 175.383 415.412C175.383 414.451 174.604 413.701 173.643 413.695H172.846V411.85H173.643C174.604 411.85 175.383 411.094 175.383 410.133C175.383 409.172 174.604 408.393 173.643 408.393C172.688 408.393 171.908 409.172 171.908 410.133V410.93H170.086V410.133C170.086 409.172 169.307 408.393 168.352 408.393C167.391 408.393 166.617 409.172 166.617 410.133C166.617 411.094 167.396 411.85 168.352 411.85H169.154ZM168.363 410.941C167.918 410.941 167.555 410.578 167.555 410.133C167.555 409.693 167.918 409.33 168.352 409.33C168.785 409.33 169.154 409.693 169.154 410.145V410.941H168.363ZM173.631 410.941H172.846V410.145C172.846 409.693 173.209 409.33 173.643 409.33C174.082 409.33 174.439 409.693 174.439 410.133C174.439 410.578 174.082 410.941 173.631 410.941ZM170.086 413.707V411.844H171.908V413.707H170.086ZM168.363 414.604H169.154V415.395C169.154 415.846 168.785 416.209 168.352 416.209C167.918 416.209 167.555 415.852 167.555 415.406C167.555 414.967 167.918 414.604 168.363 414.604ZM173.631 414.604C174.082 414.604 174.439 414.967 174.439 415.406C174.439 415.852 174.082 416.209 173.643 416.209C173.209 416.209 172.846 415.846 172.846 415.395V414.604H173.631Z"
            fill="#CCCCCC" />
        <rect x="160.5" y="404.5" width="21" height="17" rx="1.5" stroke="#333333" stroke-opacity="0.6" />
    </g>
    <g filter="url(#filter6_i)">
        <rect x="186" y="404" width="20" height="18" rx="2" fill="#808080" fill-opacity="0.17" />
        <path
            d="M192.549 417H193.826V410.859H193.92L198.262 417H199.445V408.545H198.168V414.697H198.08L193.732 408.545H192.549V417Z"
            fill="#CCCCCC" />
        <rect x="186.5" y="404.5" width="19" height="17" rx="1.5" stroke="#333333" stroke-opacity="0.6" />
    </g>
    <g filter="url(#filter7_i)">
        <rect x="160" y="368" width="21" height="18" rx="2" fill="#808080" fill-opacity="0.17" />
        <path
            d="M166.516 376.172L170.043 372.615C170.178 372.48 170.33 372.416 170.5 372.416C170.67 372.416 170.828 372.48 170.951 372.615L174.479 376.178C174.59 376.289 174.648 376.424 174.648 376.594C174.648 376.928 174.391 377.186 174.057 377.186C173.898 377.186 173.746 377.121 173.629 377.004L170.5 373.84L167.365 377.004C167.254 377.115 167.102 377.186 166.938 377.186C166.604 377.186 166.346 376.928 166.346 376.594C166.346 376.43 166.404 376.289 166.516 376.172Z"
            fill="#CCCCCC" />
        <rect x="160.5" y="368.5" width="20" height="17" rx="1.5" stroke="#333333" stroke-opacity="0.6" />
    </g>
    <g filter="url(#filter8_i)">
        <rect x="185" y="368" width="19" height="18" rx="2" fill="#808080" fill-opacity="0.17" />
        <path
            d="M191.553 381H192.865V377.748H194.717L196.439 381H197.957L196.059 377.543C197.09 377.197 197.699 376.271 197.699 375.135V375.123C197.699 373.553 196.621 372.545 194.887 372.545H191.553V381ZM192.865 376.682V373.646H194.717C195.73 373.646 196.352 374.221 196.352 375.158V375.17C196.352 376.131 195.766 376.682 194.758 376.682H192.865Z"
            fill="#CCCCCC" />
        <rect x="185.5" y="368.5" width="18" height="17" rx="1.5" stroke="#333333" stroke-opacity="0.6" />
    </g>
    <path
        d="M237.234 25.9L186.598 1.50327C184.366 0.434859 181.909 -0.0775893 179.437 0.00950596C176.965 0.0966012 174.55 0.780663 172.398 2.00352C171.421 2.55651 170.51 3.21807 169.681 3.97565C169.575 4.06223 169.479 4.15843 169.383 4.25463C169.296 4.3266 169.212 4.4037 169.134 4.48552L72.163 93.0389L29.9183 60.9461C28.0156 59.5152 25.6745 58.7938 23.2982 58.9062C20.9218 59.0186 18.659 59.9577 16.8992 61.5618L3.35214 73.866C2.29912 74.8279 1.45796 75.9994 0.882417 77.3055C0.306872 78.6116 0.00960107 80.0237 0.00960107 81.4515C0.00960107 82.8793 0.306872 84.2913 0.882417 85.5975C1.45796 86.9036 2.29912 88.075 3.35214 89.037L39.9706 122.496L3.34254 155.945C2.28952 156.907 1.44836 158.078 0.872816 159.385C0.297271 160.691 0 162.103 0 163.531C0 164.958 0.297271 166.37 0.872816 167.677C1.44836 168.983 2.28952 170.154 3.34254 171.116L16.8992 183.459C18.6693 185.068 20.9454 186.007 23.3336 186.113C25.7217 186.218 28.0714 185.483 29.9759 184.036L72.2206 151.943L169.191 240.497C169.278 240.593 169.383 240.679 169.479 240.775L169.739 241.006C171.99 243.064 174.804 244.399 177.819 244.84C180.834 245.281 183.912 244.807 186.656 243.479L237.292 219.082C239.9 217.826 242.101 215.858 243.642 213.404C245.182 210.949 246 208.109 246 205.21V39.7433C245.989 36.8427 245.16 34.0042 243.61 31.555C242.059 29.1057 239.849 27.1454 237.234 25.9ZM110.942 122.496L184.496 66.5835V178.398L110.942 122.496Z"
        fill="#151515" />
    <defs>
        <filter id="filter0_i" x="160" y="296" width="22" height="18" filterUnits="userSpaceOnUse"
            color-interpolation-filters="sRGB">
            <feFlood flood-opacity="0" result="BackgroundImageFix" />
            <feBlend mode="normal" in="SourceGraphic" in2="BackgroundImageFix" result="shape" />
            <feColorMatrix in="SourceAlpha" type="matrix" values="0 0 0 0 0 0 0 0 0 0 0 0 0 0 0 0 0 0 127 0"
                result="hardAlpha" />
            <feOffset dy="-2" />
            <feComposite in2="hardAlpha" operator="arithmetic" k2="-1" k3="1" />
            <feColorMatrix type="matrix" values="0 0 0 0 0.266667 0 0 0 0 0.266667 0 0 0 0 0.266667 0 0 0 0.6 0" />
            <feBlend mode="normal" in2="shape" result="effect1_innerShadow" />
        </filter>
        <filter id="filter1_i" x="186" y="296" width="22" height="18" filterUnits="userSpaceOnUse"
            color-interpolation-filters="sRGB">
            <feFlood flood-opacity="0" result="BackgroundImageFix" />
            <feBlend mode="normal" in="SourceGraphic" in2="BackgroundImageFix" result="shape" />
            <feColorMatrix in="SourceAlpha" type="matrix" values="0 0 0 0 0 0 0 0 0 0 0 0 0 0 0 0 0 0 127 0"
                result="hardAlpha" />
            <feOffset dy="-2" />
            <feComposite in2="hardAlpha" operator="arithmetic" k2="-1" k3="1" />
            <feColorMatrix type="matrix" values="0 0 0 0 0.266667 0 0 0 0 0.266667 0 0 0 0 0.266667 0 0 0 0.6 0" />
            <feBlend mode="normal" in2="shape" result="effect1_innerShadow" />
        </filter>
        <filter id="filter2_i" x="212" y="296" width="18" height="18" filterUnits="userSpaceOnUse"
            color-interpolation-filters="sRGB">
            <feFlood flood-opacity="0" result="BackgroundImageFix" />
            <feBlend mode="normal" in="SourceGraphic" in2="BackgroundImageFix" result="shape" />
            <feColorMatrix in="SourceAlpha" type="matrix" values="0 0 0 0 0 0 0 0 0 0 0 0 0 0 0 0 0 0 127 0"
                result="hardAlpha" />
            <feOffset dy="-2" />
            <feComposite in2="hardAlpha" operator="arithmetic" k2="-1" k3="1" />
            <feColorMatrix type="matrix" values="0 0 0 0 0.266667 0 0 0 0 0.266667 0 0 0 0 0.266667 0 0 0 0.6 0" />
            <feBlend mode="normal" in2="shape" result="effect1_innerShadow" />
        </filter>
        <filter id="filter3_i" x="160" y="332" width="22" height="18" filterUnits="userSpaceOnUse"
            color-interpolation-filters="sRGB">
            <feFlood flood-opacity="0" result="BackgroundImageFix" />
            <feBlend mode="normal" in="SourceGraphic" in2="BackgroundImageFix" result="shape" />
            <feColorMatrix in="SourceAlpha" type="matrix" values="0 0 0 0 0 0 0 0 0 0 0 0 0 0 0 0 0 0 127 0"
                result="hardAlpha" />
            <feOffset dy="-2" />
            <feComposite in2="hardAlpha" operator="arithmetic" k2="-1" k3="1" />
            <feColorMatrix type="matrix" values="0 0 0 0 0.266667 0 0 0 0 0.266667 0 0 0 0 0.266667 0 0 0 0.6 0" />
            <feBlend mode="normal" in2="shape" result="effect1_innerShadow" />
        </filter>
        <filter id="filter4_i" x="186" y="332" width="20" height="18" filterUnits="userSpaceOnUse"
            color-interpolation-filters="sRGB">
            <feFlood flood-opacity="0" result="BackgroundImageFix" />
            <feBlend mode="normal" in="SourceGraphic" in2="BackgroundImageFix" result="shape" />
            <feColorMatrix in="SourceAlpha" type="matrix" values="0 0 0 0 0 0 0 0 0 0 0 0 0 0 0 0 0 0 127 0"
                result="hardAlpha" />
            <feOffset dy="-2" />
            <feComposite in2="hardAlpha" operator="arithmetic" k2="-1" k3="1" />
            <feColorMatrix type="matrix" values="0 0 0 0 0.266667 0 0 0 0 0.266667 0 0 0 0 0.266667 0 0 0 0.6 0" />
            <feBlend mode="normal" in2="shape" result="effect1_innerShadow" />
        </filter>
        <filter id="filter5_i" x="160" y="404" width="22" height="18" filterUnits="userSpaceOnUse"
            color-interpolation-filters="sRGB">
            <feFlood flood-opacity="0" result="BackgroundImageFix" />
            <feBlend mode="normal" in="SourceGraphic" in2="BackgroundImageFix" result="shape" />
            <feColorMatrix in="SourceAlpha" type="matrix" values="0 0 0 0 0 0 0 0 0 0 0 0 0 0 0 0 0 0 127 0"
                result="hardAlpha" />
            <feOffset dy="-2" />
            <feComposite in2="hardAlpha" operator="arithmetic" k2="-1" k3="1" />
            <feColorMatrix type="matrix" values="0 0 0 0 0.266667 0 0 0 0 0.266667 0 0 0 0 0.266667 0 0 0 0.6 0" />
            <feBlend mode="normal" in2="shape" result="effect1_innerShadow" />
        </filter>
        <filter id="filter6_i" x="186" y="404" width="20" height="18" filterUnits="userSpaceOnUse"
            color-interpolation-filters="sRGB">
            <feFlood flood-opacity="0" result="BackgroundImageFix" />
            <feBlend mode="normal" in="SourceGraphic" in2="BackgroundImageFix" result="shape" />
            <feColorMatrix in="SourceAlpha" type="matrix" values="0 0 0 0 0 0 0 0 0 0 0 0 0 0 0 0 0 0 127 0"
                result="hardAlpha" />
            <feOffset dy="-2" />
            <feComposite in2="hardAlpha" operator="arithmetic" k2="-1" k3="1" />
            <feColorMatrix type="matrix" values="0 0 0 0 0.266667 0 0 0 0 0.266667 0 0 0 0 0.266667 0 0 0 0.6 0" />
            <feBlend mode="normal" in2="shape" result="effect1_innerShadow" />
        </filter>
        <filter id="filter7_i" x="160" y="368" width="21" height="18" filterUnits="userSpaceOnUse"
            color-interpolation-filters="sRGB">
            <feFlood flood-opacity="0" result="BackgroundImageFix" />
            <feBlend mode="normal" in="SourceGraphic" in2="BackgroundImageFix" result="shape" />
            <feColorMatrix in="SourceAlpha" type="matrix" values="0 0 0 0 0 0 0 0 0 0 0 0 0 0 0 0 0 0 127 0"
                result="hardAlpha" />
            <feOffset dy="-2" />
            <feComposite in2="hardAlpha" operator="arithmetic" k2="-1" k3="1" />
            <feColorMatrix type="matrix" values="0 0 0 0 0.266667 0 0 0 0 0.266667 0 0 0 0 0.266667 0 0 0 0.6 0" />
            <feBlend mode="normal" in2="shape" result="effect1_innerShadow" />
        </filter>
        <filter id="filter8_i" x="185" y="368" width="19" height="18" filterUnits="userSpaceOnUse"
            color-interpolation-filters="sRGB">
            <feFlood flood-opacity="0" result="BackgroundImageFix" />
            <feBlend mode="normal" in="SourceGraphic" in2="BackgroundImageFix" result="shape" />
            <feColorMatrix in="SourceAlpha" type="matrix" values="0 0 0 0 0 0 0 0 0 0 0 0 0 0 0 0 0 0 127 0"
                result="hardAlpha" />
            <feOffset dy="-2" />
            <feComposite in2="hardAlpha" operator="arithmetic" k2="-1" k3="1" />
            <feColorMatrix type="matrix" values="0 0 0 0 0.266667 0 0 0 0 0.266667 0 0 0 0 0.266667 0 0 0 0.6 0" />
            <feBlend mode="normal" in2="shape" result="effect1_innerShadow" />
        </filter>
    </defs>
</svg>