<svg xmlns="http://www.w3.org/2000/svg" viewBox="0 0 14 14"><defs/><path d="M2.33333 8.16667c0 .30942.12292.60616.34171.82495.21879.2188.51554.34171.82496.34171h8.1667c.2447-.00018.4832-.07734.6817-.22055.1985-.14322.3469-.34523.4243-.57745l1.1666-3.5c.0584-.17529.0743-.36195.0465-.5446-.0279-.18264-.0987-.35606-.2067-.50598-.108-.14991-.2501-.27204-.4145-.35631-.1644-.08428-.3465-.1283-.5313-.12844H4.66667V1.16667c0-.309423-.12292-.606169-.34171-.824961C4.10617.122916 3.80942 0 3.5 0H0v2.33333h2.33333v5.83334zM2.91669 14c.9665 0 1.75-.7835 1.75-1.75s-.7835-1.75-1.75-1.75-1.75.7835-1.75 1.75.7835 1.75 1.75 1.75zM12.25 14c.9665 0 1.75-.7835 1.75-1.75s-.7835-1.75-1.75-1.75-1.75.7835-1.75 1.75.7835 1.75 1.75 1.75z"/></svg>