<svg xmlns="http://www.w3.org/2000/svg" fill="none" viewBox="0 0 13 12"><defs/><path fill="#FFE666" d="M12.9888 4.56034c-.0131-.03926-.0373-.07416-.0699-.10075-.0325-.02659-.0721-.0438-.1142-.04968l-4.21462-.59372L6.70527.112467C6.68412.0781734 6.65416.0497852 6.61831.0300734 6.58247.0103617 6.54197 0 6.50076 0s-.08171.0103617-.11755.0300734c-.03585.0197118-.06581.0481-.08696.0823936L4.41144 3.81619l-4.215026.59372c-.042352.00573-.082188.0229-.1149532.04955-.0327655.02665-.0571395.0617-.0703364.10114-.01319678.03945-.01468396.0817-.00429157.12192.01039237.04023.03224507.07681.06306057.10556L3.12111 7.66992l-.72099 4.07078c-.00735.0407-.00277.0826.01321.121.01598.0383.04272.0715.07719.0959.03447.0243.07529.0388.11782.0418.04253.003.08508-.0056.12281-.0249l3.76961-1.9226 3.76964 1.9226c.0376.0192.0801.0278.1225.0248.0424-.0029.0832-.0173.1176-.0416.0345-.0242.0612-.0573.0773-.0955.016-.0382.0208-.08.0136-.1207l-.71969-4.07137 3.04969-2.88289c.0304-.0289.0519-.06545.062-.10553.0102-.04008.0086-.08212-.0046-.12137z"/></svg>
