<svg width="18" height="14" viewBox="0 0 18 14" fill="none" xmlns="http://www.w3.org/2000/svg">
<mask id="path-1-inside-1" fill="white">
<path fill-rule="evenodd" clip-rule="evenodd" d="M0 1C0 0.447716 0.447715 0 1 0H17C17.5523 0 18 0.447715 18 1V5H16C14.8954 5 14 5.89543 14 7C14 8.10457 14.8954 9 16 9H18V13C18 13.5523 17.5523 14 17 14H1C0.447716 14 0 13.5523 0 13V9H2C3.10457 9 4 8.10457 4 7C4 5.89543 3.10457 5 2 5H0V1Z"/>
</mask>
<path d="M18 5V6H19V5H18ZM18 9H19V8H18V9ZM0 9V8H-1V9H0ZM4 7H5H4ZM0 5H-1V6H0V5ZM1 -1C-0.10457 -1 -1 -0.104569 -1 1H1V1V-1ZM17 -1H1V1H17V-1ZM19 1C19 -0.10457 18.1046 -1 17 -1V1H19ZM19 5V1H17V5H19ZM16 6H18V4H16V6ZM15 7C15 6.44772 15.4477 6 16 6V4C14.3431 4 13 5.34315 13 7H15ZM16 8C15.4477 8 15 7.55228 15 7H13C13 8.65685 14.3431 10 16 10V8ZM18 8H16V10H18V8ZM19 13V9H17V13H19ZM17 15C18.1046 15 19 14.1046 19 13H17V15ZM1 15H17V13H1V15ZM-1 13C-1 14.1046 -0.104569 15 1 15V13H1H-1ZM-1 9V13H1V9H-1ZM2 8H0V10H2V8ZM3 7C3 7.55228 2.55228 8 2 8V10C3.65685 10 5 8.65685 5 7H3ZM2 6C2.55228 6 3 6.44772 3 7H5C5 5.34315 3.65685 4 2 4V6ZM0 6H2V4H0V6ZM-1 1V5H1V1H-1Z" fill="#5C5F70" mask="url(#path-1-inside-1)"/>
</svg>
