<svg width="18" height="18" viewBox="0 0 18 18" fill="none" xmlns="http://www.w3.org/2000/svg">
<path d="M5.25 3.75H2.25C1.85218 3.75 1.47064 3.90804 1.18934 4.18934C0.908035 4.47064 0.75 4.85218 0.75 5.25V15.75C0.75 16.1478 0.908035 16.5294 1.18934 16.8107C1.47064 17.092 1.85218 17.25 2.25 17.25H15.75C16.1478 17.25 16.5294 17.092 16.8107 16.8107C17.092 16.5294 17.25 16.1478 17.25 15.75V5.25C17.25 4.85218 17.092 4.47064 16.8107 4.18934C16.5294 3.90804 16.1478 3.75 15.75 3.75H12.75" stroke="white" stroke-linecap="round" stroke-linejoin="round"/>
<path d="M13.5 8.25L9 12.75L4.5 8.25" stroke="white" stroke-linecap="round" stroke-linejoin="round"/>
<path d="M9 0.75V12.75" stroke="white" stroke-linecap="round" stroke-linejoin="round"/>
</svg>
