<svg viewBox="0 0 1100 666" fill="none" xmlns="http://www.w3.org/2000/svg">
    <path d="M0 28H1100V656C1100 661.523 1095.52 666 1090 666H9.99999C4.47714 666 0 661.523 0 656V28Z" fill="#252526" />
    <rect width="48" height="616" transform="translate(0 28)" fill="#333333" />
    <path opacity="0.4"
        d="M36 571.976C36 569.816 35.456 567.8 34.368 565.928C33.296 564.12 31.856 562.688 30.048 561.632C28.192 560.544 26.176 560 24 560C21.824 560 19.808 560.544 17.952 561.632C16.144 562.688 14.704 564.12 13.632 565.928C12.544 567.8 12 569.816 12 571.976C12 573.768 12.384 575.472 13.152 577.088C13.888 578.656 14.92 580 16.248 581.12L16.272 581.144C16.288 581.16 16.296 581.168 16.296 581.168C16.584 581.392 16.808 581.56 16.968 581.672C17.016 581.704 17.096 581.76 17.208 581.84L17.304 581.936C18.296 582.608 19.36 583.12 20.496 583.472C21.648 583.824 22.824 584 24.024 584C25.224 584 26.392 583.824 27.528 583.472C28.68 583.12 29.752 582.608 30.744 581.936L31.776 581.168C31.792 581.168 31.8 581.16 31.8 581.144C33.096 580.008 34.112 578.656 34.848 577.088C35.616 575.472 36 573.768 36 571.976ZM24 582.488C22.896 582.488 21.824 582.32 20.784 581.984C19.792 581.648 18.856 581.176 17.976 580.568C17.992 580.44 18.032 580.256 18.096 580.016V579.992C18.24 579.48 18.448 578.992 18.72 578.528C18.992 578.048 19.312 577.632 19.68 577.28C20.048 576.928 20.448 576.616 20.88 576.344C21.328 576.072 21.816 575.864 22.344 575.72C22.888 575.576 23.44 575.504 24 575.504C24.816 575.504 25.6 575.656 26.352 575.96C27.12 576.264 27.8 576.696 28.392 577.256C28.936 577.816 29.368 578.464 29.688 579.2C29.848 579.632 29.968 580.088 30.048 580.568C29.168 581.192 28.208 581.672 27.168 582.008C26.144 582.328 25.088 582.488 24 582.488ZM20.328 571.4C20.12 570.904 20.016 570.384 20.016 569.84C20.016 569.296 20.12 568.784 20.328 568.304C20.552 567.824 20.84 567.408 21.192 567.056C21.544 566.704 21.968 566.416 22.464 566.192C22.928 565.984 23.44 565.88 24 565.88C24.56 565.88 25.08 565.992 25.56 566.216C26.04 566.424 26.456 566.704 26.808 567.056C27.16 567.408 27.44 567.824 27.648 568.304C27.872 568.784 27.984 569.304 27.984 569.864C27.984 570.424 27.88 570.936 27.672 571.4C27.464 571.864 27.176 572.28 26.808 572.648C26.44 573.016 26.008 573.304 25.512 573.512C25.032 573.72 24.52 573.824 23.976 573.824C23.448 573.824 22.936 573.72 22.44 573.512C21.96 573.304 21.536 573.024 21.168 572.672C20.8 572.304 20.52 571.88 20.328 571.4ZM31.464 579.344C31.464 579.328 31.464 579.312 31.464 579.296L31.44 579.224C31.2 578.472 30.856 577.768 30.408 577.112C29.96 576.456 29.416 575.888 28.776 575.408C28.296 575.056 27.776 574.752 27.216 574.496C27.472 574.336 27.704 574.144 27.912 573.92C28.264 573.568 28.576 573.176 28.848 572.744C29.392 571.864 29.656 570.904 29.64 569.864C29.64 569.096 29.496 568.368 29.208 567.68C28.92 566.976 28.512 566.368 27.984 565.856C27.456 565.344 26.848 564.944 26.16 564.656C25.472 564.352 24.744 564.2 23.976 564.2C23.208 564.2 22.472 564.352 21.768 564.656C21.08 564.944 20.48 565.352 19.968 565.88C19.456 566.392 19.056 567 18.768 567.704C18.48 568.392 18.336 569.12 18.336 569.888C18.336 570.416 18.408 570.912 18.552 571.376C18.696 571.904 18.896 572.368 19.152 572.768C19.344 573.136 19.656 573.528 20.088 573.944C20.296 574.168 20.536 574.36 20.808 574.52C20.248 574.776 19.728 575.088 19.248 575.456C18.624 575.936 18.08 576.504 17.616 577.16C17.168 577.8 16.824 578.496 16.584 579.248C16.568 579.28 16.56 579.32 16.56 579.368C15.584 578.392 14.832 577.28 14.304 576.032C13.76 574.752 13.488 573.408 13.488 572C13.488 570.096 13.968 568.328 14.928 566.696C15.856 565.112 17.112 563.856 18.696 562.928C20.328 561.968 22.096 561.488 24 561.488C25.904 561.488 27.672 561.968 29.304 562.928C30.888 563.856 32.144 565.112 33.072 566.696C34.032 568.328 34.512 570.088 34.512 571.976C34.512 573.368 34.248 574.704 33.72 575.984C33.192 577.248 32.44 578.368 31.464 579.344Z"
        fill="white" />
    <path opacity="0.4"
        d="M31.848 616.76L36 617.576V622.424L31.848 623.24L34.2 626.768L30.768 630.2L27.24 627.848L26.424 632H21.576L20.76 627.848L17.232 630.2L13.8 626.768L16.152 623.24L12 622.424V617.576L16.152 616.76L13.8 613.232L17.232 609.8L20.76 612.152L21.576 608H26.424L27.24 612.152L30.768 609.8L34.2 613.232L31.848 616.76ZM30.288 621.824L34.272 621.008V619.016L30.288 618.2L29.736 616.904L32.04 613.472L30.6 612.032L27.168 614.336L25.872 613.784L25.056 609.8H23.064L22.248 613.784L20.952 614.336L17.52 612.032L16.08 613.472L18.384 616.904L17.832 618.2L13.848 619.016V621.008L17.832 621.824L18.384 623.12L16.08 626.552L17.52 627.992L20.952 625.688L22.248 626.24L23.064 630.224H25.056L25.872 626.24L27.168 625.688L30.6 627.992L32.04 626.552L29.736 623.12L30.288 621.824ZM22.104 617.144C22.68 616.76 23.312 616.568 24 616.568C24.624 616.568 25.192 616.728 25.704 617.048C26.232 617.352 26.648 617.768 26.952 618.296C27.272 618.808 27.432 619.376 27.432 620C27.432 620.816 27.168 621.544 26.64 622.184C26.128 622.808 25.472 623.2 24.672 623.36C23.872 623.52 23.112 623.408 22.392 623.024C21.672 622.64 21.152 622.072 20.832 621.32C20.512 620.552 20.472 619.784 20.712 619.016C20.952 618.232 21.416 617.608 22.104 617.144ZM23.04 621.416C23.328 621.608 23.648 621.704 24 621.704C24.48 621.704 24.88 621.544 25.2 621.224C25.536 620.888 25.704 620.48 25.704 620C25.704 619.6 25.576 619.24 25.32 618.92C25.064 618.6 24.736 618.4 24.336 618.32C23.936 618.24 23.552 618.296 23.184 618.488C22.832 618.68 22.576 618.968 22.416 619.352C22.256 619.72 22.232 620.104 22.344 620.504C22.472 620.888 22.704 621.192 23.04 621.416Z"
        fill="white" />
    <rect y="28" width="2" height="48" fill="white" />
    <path
        d="M29.496 40H20.496L19.008 41.488V46H14.496L13.008 47.488V62.56L14.496 64H26.568L28.008 62.56V58H32.688L34.008 56.56V44.488L29.496 40ZM29.496 42.112L31.872 44.488H29.496V42.112ZM26.496 62.488H14.496V47.488H19.008V56.56L20.496 58H26.496V62.488ZM32.496 56.488H20.496V41.488H28.008V46H32.496V56.488Z"
        fill="white" />
    <path opacity="0.4"
        d="M27.24 88C25.624 88 24.128 88.44 22.752 89.32C21.392 90.2 20.376 91.384 19.704 92.872C19.048 94.344 18.84 95.888 19.08 97.504C19.336 99.104 20 100.512 21.072 101.728L13.008 110.872L14.112 111.88L22.176 102.76C23.104 103.496 24.136 104 25.272 104.272C26.424 104.544 27.576 104.576 28.728 104.368C29.896 104.16 30.968 103.72 31.944 103.048C32.92 102.376 33.712 101.536 34.32 100.528C34.928 99.52 35.304 98.432 35.448 97.264C35.592 96.096 35.488 94.944 35.136 93.808C34.784 92.672 34.216 91.664 33.432 90.784C32.648 89.904 31.72 89.224 30.648 88.744C29.576 88.248 28.44 88 27.24 88ZM27.24 103C26.024 103 24.888 102.696 23.832 102.088C22.824 101.48 22.024 100.672 21.432 99.664C20.808 98.608 20.496 97.472 20.496 96.256C20.496 95.024 20.808 93.888 21.432 92.848C22.024 91.824 22.824 91.016 23.832 90.424C24.888 89.8 26.024 89.488 27.24 89.488C28.472 89.488 29.608 89.8 30.648 90.424C31.672 91.016 32.48 91.824 33.072 92.848C33.696 93.888 34.008 95.024 34.008 96.256C34.008 97.472 33.696 98.608 33.072 99.664C32.48 100.672 31.672 101.48 30.648 102.088C29.608 102.696 28.472 103 27.24 103Z"
        fill="white" />
    <path opacity="0.4"
        d="M22.944 149.488L21.624 150.808C21.416 149.992 20.976 149.32 20.304 148.792C19.632 148.264 18.864 148 18 148C17.136 148 16.368 148.264 15.696 148.792C15.024 149.32 14.584 150 14.376 150.832L13.056 149.488L12 150.568L13.728 152.272L13.512 152.488V154H12V155.488H13.512V155.584C13.576 156.08 13.712 156.552 13.92 157L12 158.944L13.056 160L14.712 158.344C15.112 158.856 15.6 159.256 16.176 159.544C16.752 159.832 17.36 159.976 18 159.976C18.64 159.976 19.248 159.832 19.824 159.544C20.4 159.256 20.888 158.856 21.288 158.344L22.944 160L24 158.944L22.08 157C22.288 156.536 22.432 156.056 22.512 155.56V155.44H24V154H22.512V152.488L22.272 152.272L24 150.568L22.944 149.488ZM18 149.488C18.624 149.488 19.152 149.712 19.584 150.16C20.032 150.592 20.256 151.12 20.256 151.744H15.744C15.744 151.12 15.96 150.592 16.392 150.16C16.84 149.712 17.376 149.488 18 149.488ZM21 155.488C20.92 156.288 20.6 156.976 20.04 157.552C19.48 158.112 18.8 158.432 18 158.512C17.2 158.432 16.52 158.112 15.96 157.552C15.4 156.976 15.08 156.288 15 155.488V153.256H21V155.488ZM35.76 145.6V146.848L25.512 153.376V151.6L34.008 146.224L21 137.992V147.448C20.536 147.128 20.032 146.888 19.488 146.728V136.624L20.64 136L35.76 145.6Z"
        fill="white" />
    <path opacity="0.4"
        d="M33 192.232C33.016 191.512 32.832 190.856 32.448 190.264C32.08 189.656 31.584 189.192 30.96 188.872C30.336 188.552 29.664 188.424 28.944 188.488C28.24 188.536 27.6 188.776 27.024 189.208C26.464 189.624 26.056 190.16 25.8 190.816C25.544 191.472 25.472 192.152 25.584 192.856C25.712 193.544 26.008 194.152 26.472 194.68C26.952 195.208 27.528 195.576 28.2 195.784C27.944 196.296 27.576 196.704 27.096 197.008C26.616 197.296 26.096 197.448 25.536 197.464H22.536C21.992 197.464 21.456 197.568 20.928 197.776C20.416 197.968 19.96 198.248 19.56 198.616V191.392C20.168 191.264 20.712 191.008 21.192 190.624C21.672 190.224 22.032 189.736 22.272 189.16C22.512 188.584 22.6 187.984 22.536 187.36C22.472 186.736 22.264 186.168 21.912 185.656C21.56 185.144 21.112 184.744 20.568 184.456C20.024 184.152 19.432 184 18.792 184C18.168 184 17.584 184.152 17.04 184.456C16.496 184.744 16.048 185.144 15.696 185.656C15.36 186.168 15.16 186.736 15.096 187.36C15.032 187.984 15.12 188.584 15.36 189.16C15.6 189.736 15.952 190.224 16.416 190.624C16.896 191.008 17.44 191.264 18.048 191.392V200.512C17.44 200.64 16.896 200.896 16.416 201.28C15.936 201.664 15.568 202.136 15.312 202.696C15.056 203.256 14.952 203.848 15 204.472C15.048 205.096 15.232 205.672 15.552 206.2C15.872 206.728 16.296 207.152 16.824 207.472C17.352 207.792 17.928 207.968 18.552 208C19.192 208.032 19.792 207.92 20.352 207.664C20.912 207.408 21.376 207.04 21.744 206.56C22.128 206.064 22.376 205.512 22.488 204.904C22.6 204.28 22.56 203.672 22.368 203.08C22.176 202.488 21.864 201.976 21.432 201.544C21 201.112 20.48 200.8 19.872 200.608C20.128 200.112 20.496 199.712 20.976 199.408C21.456 199.104 21.976 198.952 22.536 198.952H25.536C26.496 198.952 27.36 198.672 28.128 198.112C28.912 197.552 29.456 196.816 29.76 195.904C30.368 195.824 30.92 195.616 31.416 195.28C31.912 194.928 32.296 194.488 32.568 193.96C32.856 193.416 33 192.84 33 192.232ZM16.56 187.744C16.56 187.344 16.656 186.968 16.848 186.616C17.056 186.264 17.336 185.992 17.688 185.8C18.04 185.592 18.416 185.488 18.816 185.488C19.216 185.488 19.584 185.592 19.92 185.8C20.272 185.992 20.544 186.264 20.736 186.616C20.944 186.968 21.048 187.344 21.048 187.744C21.048 188.352 20.824 188.88 20.376 189.328C19.944 189.76 19.416 189.976 18.792 189.976C18.184 189.976 17.656 189.76 17.208 189.328C16.776 188.88 16.56 188.352 16.56 187.744ZM21.048 204.184C21.048 204.792 20.824 205.32 20.376 205.768C19.944 206.2 19.416 206.416 18.792 206.416C18.184 206.416 17.656 206.2 17.208 205.768C16.776 205.32 16.56 204.792 16.56 204.184C16.56 203.56 16.776 203.032 17.208 202.6C17.656 202.152 18.184 201.928 18.792 201.928C19.416 201.928 19.944 202.152 20.376 202.6C20.824 203.032 21.048 203.56 21.048 204.184ZM29.28 194.464C28.656 194.464 28.12 194.248 27.672 193.816C27.24 193.368 27.024 192.84 27.024 192.232C27.024 191.608 27.24 191.08 27.672 190.648C28.12 190.2 28.648 189.976 29.256 189.976C29.88 189.976 30.408 190.2 30.84 190.648C31.288 191.08 31.512 191.608 31.512 192.232C31.512 192.84 31.288 193.368 30.84 193.816C30.408 194.248 29.888 194.464 29.28 194.464Z"
        fill="white" />
    <path opacity="0.4"
        d="M25.512 233.488L27 232H34.512L36 233.488V241L34.512 242.488H27L25.512 241V233.488ZM27 233.488V241H34.512V233.488H27ZM12 247V238L13.512 236.488H21L22.512 238V245.488H30L31.512 247V254.488L30 256H13.512L12 254.488V247ZM21 245.488V238H13.512V245.488H21ZM21 247H13.512V254.488H21V247ZM22.512 254.488H30V247H22.512V254.488Z"
        fill="white" />
    <g clip-path="url(#clip0)">
        <rect width="320" height="616" transform="translate(48 28)" fill="#252526" />
        <path
            d="M68.9722 52H73.8921V50.9634H70.1753V48.5518H73.6934V47.5527H70.1753V45.2861H73.8921V44.2495H68.9722V52ZM75.1328 52H76.4648L78.4092 49.0405H78.4521L80.3857 52H81.793L79.2148 48.1436V48.1221L81.8413 44.2495H80.4878L78.5649 47.252H78.5112L76.5938 44.2495H75.1597L77.7109 48.0845V48.1006L75.1328 52ZM83.3022 52H84.5054V49.3521H86.3208C87.8408 49.3521 88.8936 48.3154 88.8936 46.8008V46.79C88.8936 45.27 87.8408 44.2495 86.3208 44.2495H83.3022V52ZM86.02 45.2646C87.062 45.2646 87.6689 45.8286 87.6689 46.7954V46.8062C87.6689 47.7783 87.062 48.3423 86.02 48.3423H84.5054V45.2646H86.02ZM90.4458 52H95.2798V50.9634H91.6489V44.2495H90.4458V52ZM99.8184 52.188C102.058 52.188 103.433 50.6089 103.433 48.1274V48.1167C103.433 45.6299 102.047 44.0615 99.8184 44.0615C97.5947 44.0615 96.1982 45.6245 96.1982 48.1167V48.1274C96.1982 50.6143 97.5625 52.188 99.8184 52.188ZM99.8184 51.1245C98.3252 51.1245 97.4282 49.9429 97.4282 48.1274V48.1167C97.4282 46.2852 98.3521 45.125 99.8184 45.125C101.285 45.125 102.203 46.2852 102.203 48.1167V48.1274C102.203 49.9429 101.29 51.1245 99.8184 51.1245ZM105.066 52H106.269V49.019H107.966L109.545 52H110.937L109.196 48.8311C110.142 48.5142 110.7 47.6655 110.7 46.6235V46.6128C110.7 45.1733 109.712 44.2495 108.122 44.2495H105.066V52ZM106.269 48.0415V45.2593H107.966C108.896 45.2593 109.465 45.7856 109.465 46.645V46.6558C109.465 47.5366 108.928 48.0415 108.004 48.0415H106.269ZM112.414 52H117.333V50.9634H113.617V48.5518H117.135V47.5527H113.617V45.2861H117.333V44.2495H112.414V52ZM119.074 52H120.277V49.019H121.974L123.553 52H124.944L123.204 48.8311C124.149 48.5142 124.708 47.6655 124.708 46.6235V46.6128C124.708 45.1733 123.72 44.2495 122.13 44.2495H119.074V52ZM120.277 48.0415V45.2593H121.974C122.903 45.2593 123.473 45.7856 123.473 46.645V46.6558C123.473 47.5366 122.936 48.0415 122.012 48.0415H120.277Z"
            fill="#CCCCCC" />
        <path
            d="M340 48C340 48.2773 339.899 48.5173 339.696 48.72C339.504 48.912 339.269 49.008 338.992 49.008C338.725 49.008 338.491 48.912 338.288 48.72C338.096 48.5173 338 48.2773 338 48C338 47.7227 338.096 47.488 338.288 47.296C338.491 47.0933 338.725 46.992 338.992 46.992C339.269 46.992 339.504 47.0933 339.696 47.296C339.899 47.488 340 47.7227 340 48ZM345.008 48C344.997 48.2773 344.896 48.5173 344.704 48.72C344.512 48.912 344.277 49.008 344 49.008C343.723 48.9973 343.488 48.896 343.296 48.704C343.104 48.512 343.008 48.2773 343.008 48C343.008 47.7227 343.104 47.488 343.296 47.296C343.488 47.0933 343.723 46.9973 344 47.008C344.277 47.008 344.512 47.104 344.704 47.296C344.907 47.488 345.008 47.7227 345.008 48ZM350 48C350 48.2773 349.899 48.5173 349.696 48.72C349.504 48.912 349.269 49.008 348.992 49.008C348.725 48.9973 348.491 48.896 348.288 48.704C348.096 48.512 348 48.2773 348 48C348 47.7227 348.096 47.488 348.288 47.296C348.491 47.0933 348.725 46.9973 348.992 47.008C349.269 47.008 349.504 47.104 349.696 47.296C349.899 47.488 350 47.7227 350 48Z"
            fill="#CCCCCC" />
        <path
            d="M60.984 81.564L65.336 77.212L65.96 77.836L61.288 82.492H60.664L56.008 77.836L56.616 77.212L60.984 81.564Z"
            fill="#C5C5C5" />
        <path
            d="M75.3291 83.1987C77.6172 83.1987 79.0566 81.6304 79.0566 79.1274V79.1167C79.0566 76.6138 77.6118 75.0508 75.3291 75.0508C73.0464 75.0508 71.5962 76.6084 71.5962 79.1167V79.1274C71.5962 81.6304 73.0249 83.1987 75.3291 83.1987ZM75.3291 81.8237C74.0508 81.8237 73.2505 80.7656 73.2505 79.1274V79.1167C73.2505 77.4731 74.0669 76.4258 75.3291 76.4258C76.5859 76.4258 77.4023 77.4731 77.4023 79.1167V79.1274C77.4023 80.7656 76.5913 81.8237 75.3291 81.8237ZM80.5981 83H82.2202V80.5562H83.7939C85.4268 80.5562 86.5171 79.5034 86.5171 77.9082V77.8975C86.5171 76.3022 85.4268 75.2495 83.7939 75.2495H80.5981V83ZM83.3965 76.5332C84.3257 76.5332 84.8735 77.022 84.8735 77.9028V77.9136C84.8735 78.7944 84.3257 79.2886 83.3965 79.2886H82.2202V76.5332H83.3965ZM88.0103 83H93.145V81.6626H89.6323V79.7021H92.9463V78.4561H89.6323V76.5869H93.145V75.2495H88.0103V83ZM94.853 83H96.4053V78.0425H96.4912L100.079 83H101.422V75.2495H99.8696V80.1855H99.7837L96.2065 75.2495H94.853V83ZM106.143 83H111.278V81.6626H107.765V79.7021H111.079V78.4561H107.765V76.5869H111.278V75.2495H106.143V83ZM112.986 83H116.037C118.357 83 119.673 81.582 119.673 79.0791V79.0684C119.673 76.6406 118.341 75.2495 116.037 75.2495H112.986V83ZM114.608 81.6626V76.5869H115.779C117.186 76.5869 118.019 77.5 118.019 79.0952V79.106C118.019 80.7603 117.213 81.6626 115.779 81.6626H114.608ZM121.214 83H122.836V75.2495H121.214V83ZM126.596 83H128.218V76.5869H130.544V75.2495H124.271V76.5869H126.596V83ZM135.099 83.1987C137.387 83.1987 138.826 81.6304 138.826 79.1274V79.1167C138.826 76.6138 137.381 75.0508 135.099 75.0508C132.816 75.0508 131.366 76.6084 131.366 79.1167V79.1274C131.366 81.6304 132.794 83.1987 135.099 83.1987ZM135.099 81.8237C133.82 81.8237 133.02 80.7656 133.02 79.1274V79.1167C133.02 77.4731 133.836 76.4258 135.099 76.4258C136.355 76.4258 137.172 77.4731 137.172 79.1167V79.1274C137.172 80.7656 136.361 81.8237 135.099 81.8237ZM140.368 83H141.99V80.1641H143.316L144.761 83H146.598L144.965 79.9224C145.852 79.5732 146.367 78.7192 146.367 77.7256V77.7148C146.367 76.1895 145.357 75.2495 143.596 75.2495H140.368V83ZM141.99 78.9824V76.5171H143.397C144.208 76.5171 144.708 77.0005 144.708 77.7471V77.7578C144.708 78.5205 144.229 78.9824 143.418 78.9824H141.99ZM150.777 83.1987C152.71 83.1987 153.903 82.2266 153.903 80.6904V80.6851C153.903 79.4766 153.188 78.8213 151.55 78.4829L150.729 78.3164C149.815 78.1284 149.439 77.8276 149.439 77.3228V77.3174C149.439 76.7373 149.971 76.3721 150.771 76.3667C151.588 76.3667 152.125 76.7534 152.216 77.3066L152.227 77.3711H153.752L153.747 77.3013C153.645 76.0068 152.582 75.0508 150.771 75.0508C149.053 75.0508 147.817 76.0015 147.817 77.4409V77.4463C147.817 78.6226 148.51 79.3745 150.122 79.7021L150.938 79.8687C151.899 80.0674 152.281 80.3521 152.281 80.8623V80.8677C152.281 81.4639 151.685 81.8774 150.82 81.8774C149.912 81.8774 149.284 81.4854 149.225 80.9053L149.219 80.8516H147.656L147.662 80.9375C147.753 82.3125 148.924 83.1987 150.777 83.1987Z"
            fill="#CCCCCC" />
        <rect x="48" y="90" width="320" height="1" fill="#3C3C3C" />
        <path
            d="M60.984 104.564L65.336 100.212L65.96 100.836L61.288 105.492H60.664L56.008 100.836L56.616 100.212L60.984 104.564Z"
            fill="#C5C5C5" />
        <path
            d="M71.9399 106H73.3848V100.726H73.4922L75.4795 106H76.4946L78.4819 100.726H78.5894V106H80.0342V98.2495H78.1758L76.0381 103.921H75.9414L73.7983 98.2495H71.9399V106ZM84.0625 106H85.6846V103.105L88.3862 98.2495H86.6299L84.9272 101.51H84.8306L83.1226 98.2495H81.3662L84.0625 103.105V106ZM88.9502 103.578H92.522V102.165H88.9502V103.578ZM94.3374 106H99.4722V104.663H95.9595V102.702H99.2734V101.456H95.9595V99.5869H99.4722V98.2495H94.3374V106ZM100.713 106H102.464L104.156 103.282H104.209L105.907 106H107.754L105.251 102.127V102.106L107.792 98.2495H105.977L104.344 101.042H104.279L102.636 98.2495H100.724L103.173 102.079V102.095L100.713 106ZM108.651 106H110.354L110.929 104.12H113.663L114.237 106H115.945L113.249 98.2495H111.342L108.651 106ZM112.25 99.7964H112.347L113.292 102.906H111.299L112.25 99.7964ZM117.261 106H118.706V100.726H118.813L120.801 106H121.816L123.803 100.726H123.911V106H125.355V98.2495H123.497L121.359 103.921H121.263L119.12 98.2495H117.261V106ZM127.241 106H128.863V103.556H130.437C132.069 103.556 133.16 102.503 133.16 100.908V100.897C133.16 99.3022 132.069 98.2495 130.437 98.2495H127.241V106ZM130.039 99.5332C130.968 99.5332 131.516 100.022 131.516 100.903V100.914C131.516 101.794 130.968 102.289 130.039 102.289H128.863V99.5332H130.039ZM134.653 106H139.723V104.663H136.275V98.2495H134.653V106ZM141.195 106H146.33V104.663H142.817V102.702H146.131V101.456H142.817V99.5869H146.33V98.2495H141.195V106Z"
            fill="#CCCCCC" />
        <rect x="48" y="621" width="320" height="1" fill="#3C3C3C" />
        <path
            d="M63.08 633.516L58.712 629.164L59.336 628.54L64.008 633.212V633.836L59.336 638.492L58.712 637.884L63.08 633.532V633.516Z"
            fill="#C5C5C5" />
        <path
            d="M75.3291 637.199C77.6172 637.199 79.0566 635.63 79.0566 633.127V633.117C79.0566 630.614 77.6118 629.051 75.3291 629.051C73.0464 629.051 71.5962 630.608 71.5962 633.117V633.127C71.5962 635.63 73.0249 637.199 75.3291 637.199ZM75.3291 635.824C74.0508 635.824 73.2505 634.766 73.2505 633.127V633.117C73.2505 631.473 74.0669 630.426 75.3291 630.426C76.5859 630.426 77.4023 631.473 77.4023 633.117V633.127C77.4023 634.766 76.5913 635.824 75.3291 635.824ZM83.8423 637.199C85.8403 637.199 87.0864 636.044 87.0864 634.325V629.25H85.4644V634.18C85.4644 635.185 84.8843 635.824 83.8423 635.824C82.8003 635.824 82.2148 635.185 82.2148 634.18V629.25H80.5928V634.325C80.5928 636.049 81.855 637.199 83.8423 637.199ZM90.8462 637H92.4683V630.587H94.7939V629.25H88.5205V630.587H90.8462V637ZM96.228 637H101.298V635.663H97.8501V629.25H96.228V637ZM102.77 637H104.392V629.25H102.77V637ZM106.272 637H107.824V632.042H107.91L111.498 637H112.841V629.25H111.289V634.186H111.203L107.625 629.25H106.272V637ZM114.726 637H119.861V635.663H116.348V633.702H119.662V632.456H116.348V630.587H119.861V629.25H114.726V637Z"
            fill="#CCCCCC" />
    </g>
    <rect y="644" width="1100" height="22" fill="#007ACC" />
    <path
        d="M19.532 648.868C20.204 648.915 20.8667 649.101 21.52 649.428C22.136 649.727 22.696 650.123 23.2 650.618C24.3667 651.878 24.95 653.367 24.95 655.084C24.95 655.775 24.824 656.451 24.572 657.114C24.3387 657.749 23.998 658.355 23.55 658.934C23.102 659.475 22.584 659.923 21.996 660.278C21.38 660.651 20.7313 660.903 20.05 661.034C19.3313 661.174 18.6407 661.193 17.978 661.09C17.278 660.987 16.6293 660.768 16.032 660.432C15.4067 660.068 14.8607 659.629 14.394 659.116C13.9367 658.593 13.5727 658.005 13.302 657.352C13.0407 656.699 12.8913 656.013 12.854 655.294C12.826 654.575 12.9193 653.894 13.134 653.25C13.5913 651.794 14.408 650.683 15.584 649.918C16.144 649.535 16.7647 649.255 17.446 649.078C18.1273 648.901 18.8227 648.831 19.532 648.868ZM19.966 660.166C20.5447 660.026 21.0813 659.807 21.576 659.508C22.0987 659.191 22.5513 658.794 22.934 658.318C23.3073 657.814 23.5827 657.296 23.76 656.764C23.956 656.176 24.0307 655.588 23.984 655C23.984 654.291 23.8533 653.605 23.592 652.942C23.34 652.279 22.976 651.71 22.5 651.234C21.5947 650.329 20.5447 649.834 19.35 649.75C18.762 649.703 18.188 649.75 17.628 649.89C17.0213 650.039 16.4847 650.282 16.018 650.618C15.0193 651.346 14.352 652.312 14.016 653.516C13.8293 654.104 13.75 654.687 13.778 655.266C13.7967 655.882 13.932 656.465 14.184 657.016C14.716 658.155 15.5047 659.027 16.55 659.634C17.0727 659.942 17.628 660.143 18.216 660.236C18.804 660.32 19.3873 660.297 19.966 660.166ZM18.916 654.566L21.016 652.368L21.632 652.984L19.532 655.168L21.632 657.366L21.016 657.968L18.916 655.784L16.816 657.968L16.2 657.366L18.3 655.168L16.2 652.984L16.816 652.368L18.916 654.566Z"
        fill="white" />
    <path
        d="M33.8965 659.205C35.8418 659.205 37.0195 657.5 37.0195 654.775V654.764C37.0195 652.039 35.8418 650.34 33.8965 650.34C31.9453 650.34 30.7734 652.039 30.7734 654.764V654.775C30.7734 657.5 31.9453 659.205 33.8965 659.205ZM33.8965 658.115C32.7598 658.115 32.0977 656.844 32.0977 654.775V654.764C32.0977 652.695 32.7598 651.436 33.8965 651.436C35.0273 651.436 35.6953 652.695 35.6953 654.764V654.775C35.6953 656.844 35.0273 658.115 33.8965 658.115Z"
        fill="white" />
    <path
        d="M52.622 648.868H53.392L59.104 659.606L58.726 660.25H47.26L46.882 659.606L52.622 648.868ZM53 649.988L48.002 659.368H57.984L53 649.988ZM53.546 658.5V657.618H52.454V658.5H53.546ZM52.454 656.75V653.25H53.546V656.75H52.454Z"
        fill="white" />
    <path
        d="M67.8965 659.205C69.8418 659.205 71.0195 657.5 71.0195 654.775V654.764C71.0195 652.039 69.8418 650.34 67.8965 650.34C65.9453 650.34 64.7734 652.039 64.7734 654.764V654.775C64.7734 657.5 65.9453 659.205 67.8965 659.205ZM67.8965 658.115C66.7598 658.115 66.0977 656.844 66.0977 654.775V654.764C66.0977 652.695 66.7598 651.436 67.8965 651.436C69.0273 651.436 69.6953 652.695 69.6953 654.764V654.775C69.6953 656.844 69.0273 658.115 67.8965 658.115Z"
        fill="white" />
    <path
        d="M1050.61 656.82C1051.01 656.979 1051.37 657.189 1051.7 657.45C1052.04 657.711 1052.32 658.019 1052.55 658.374C1052.8 658.719 1052.98 659.097 1053.1 659.508C1053.23 659.909 1053.3 660.32 1053.3 660.74V661.118H1052.53V660.74C1052.54 660.283 1052.45 659.844 1052.27 659.424C1052.1 659.004 1051.84 658.635 1051.52 658.318C1051.2 658.001 1050.83 657.753 1050.41 657.576C1049.99 657.389 1049.55 657.296 1049.08 657.296C1048.62 657.296 1048.19 657.385 1047.77 657.562C1047.35 657.73 1046.98 657.977 1046.66 658.304C1046.34 658.621 1046.1 658.99 1045.92 659.41C1045.74 659.821 1045.65 660.264 1045.64 660.74V661.118H1044.88V660.74C1044.87 660.32 1044.93 659.909 1045.06 659.508C1045.19 659.097 1045.38 658.719 1045.61 658.374C1046.1 657.655 1046.76 657.137 1047.57 656.82C1047.39 656.699 1047.23 656.559 1047.08 656.4C1046.94 656.232 1046.82 656.055 1046.72 655.868C1046.61 655.672 1046.53 655.471 1046.48 655.266C1046.43 655.051 1046.41 654.837 1046.41 654.622C1046.41 654.249 1046.48 653.903 1046.62 653.586C1046.76 653.259 1046.95 652.975 1047.19 652.732C1047.43 652.48 1047.72 652.284 1048.05 652.144C1048.37 652.004 1048.72 651.934 1049.08 651.934C1049.45 651.934 1049.79 652.004 1050.12 652.144C1050.44 652.284 1050.73 652.48 1050.97 652.732C1051.22 652.975 1051.42 653.255 1051.55 653.572C1051.78 654.113 1051.83 654.673 1051.69 655.252C1051.63 655.467 1051.55 655.672 1051.45 655.868C1051.35 656.055 1051.22 656.227 1051.08 656.386C1050.95 656.545 1050.79 656.689 1050.61 656.82ZM1049.08 656.526C1049.34 656.526 1049.59 656.479 1049.82 656.386C1050.06 656.283 1050.26 656.148 1050.43 655.98C1050.6 655.803 1050.74 655.597 1050.85 655.364C1050.95 655.131 1051 654.888 1051 654.636C1051 654.375 1050.95 654.127 1050.85 653.894C1050.75 653.661 1050.62 653.455 1050.44 653.278C1050.26 653.101 1050.06 652.961 1049.82 652.858C1049.59 652.755 1049.34 652.704 1049.08 652.704C1048.82 652.704 1048.57 652.755 1048.34 652.858C1048.12 652.951 1047.92 653.087 1047.74 653.264C1047.56 653.441 1047.42 653.647 1047.32 653.88C1047.22 654.113 1047.18 654.361 1047.18 654.622C1047.18 654.883 1047.22 655.131 1047.32 655.364C1047.42 655.597 1047.56 655.803 1047.74 655.98C1047.92 656.157 1048.12 656.297 1048.35 656.4C1048.59 656.493 1048.83 656.535 1049.08 656.526ZM1057.13 648.868V655H1055.59L1053.3 657.296V655H1052.53V654.23H1054.07V655.448L1055.28 654.23H1056.36V649.638H1048.7V651.01C1048.57 651.029 1048.44 651.052 1048.31 651.08C1048.19 651.099 1048.06 651.131 1047.93 651.178V648.868H1057.13Z"
        fill="white" />
    <path
        d="M1085.7 657.254C1085.48 656.573 1085.37 655.877 1085.37 655.168V653.418C1085.38 652.867 1085.28 652.331 1085.09 651.808C1084.9 651.285 1084.63 650.819 1084.26 650.408C1083.9 649.988 1083.47 649.647 1082.97 649.386C1082.49 649.125 1081.97 648.961 1081.42 648.896C1080.79 648.831 1080.19 648.896 1079.6 649.092C1079.02 649.288 1078.5 649.596 1078.05 650.016C1077.59 650.427 1077.23 650.917 1076.98 651.486C1076.74 652.046 1076.61 652.634 1076.6 653.25V655.182C1076.6 655.891 1076.49 656.582 1076.27 657.254L1075.75 658.794L1076.17 659.382H1079.24C1079.24 659.606 1079.28 659.825 1079.36 660.04C1079.46 660.255 1079.58 660.446 1079.74 660.614C1079.91 660.773 1080.1 660.899 1080.31 660.992C1080.53 661.076 1080.75 661.118 1080.97 661.118C1081.21 661.118 1081.43 661.076 1081.64 660.992C1081.87 660.899 1082.06 660.773 1082.22 660.614C1082.38 660.446 1082.5 660.255 1082.6 660.04C1082.69 659.825 1082.74 659.606 1082.74 659.382H1085.8L1086.22 658.794L1085.7 657.254ZM1081.6 659.998C1081.43 660.175 1081.23 660.264 1080.99 660.264C1080.74 660.264 1080.53 660.18 1080.36 660.012C1080.19 659.835 1080.1 659.625 1080.1 659.382H1081.85C1081.86 659.625 1081.78 659.835 1081.6 660.012V659.998ZM1076.77 658.514L1077.09 657.534C1077.36 656.769 1077.49 655.985 1077.49 655.182V653.25C1077.49 652.755 1077.59 652.284 1077.79 651.836C1078 651.379 1078.28 650.987 1078.63 650.66C1079.01 650.324 1079.43 650.081 1079.89 649.932C1080.37 649.773 1080.85 649.722 1081.34 649.778C1081.78 649.834 1082.2 649.969 1082.58 650.184C1082.97 650.389 1083.31 650.665 1083.6 651.01C1083.9 651.346 1084.13 651.724 1084.28 652.144C1084.43 652.555 1084.5 652.984 1084.49 653.432V655.196C1084.49 656.008 1084.62 656.792 1084.88 657.548L1085.2 658.514H1076.77Z"
        fill="white" />
    <rect width="731" height="616" transform="translate(368 28)" fill="#1E1E1E" />
    <path
        d="M633.049 434.222C635.182 434.222 636.547 433.13 636.547 431.378V431.372C636.547 430.014 635.76 429.239 633.836 428.827L632.84 428.604C631.653 428.351 631.17 427.906 631.17 427.227V427.221C631.17 426.357 631.964 425.856 633.037 425.856C634.147 425.85 634.865 426.396 634.985 427.145L634.998 427.227H636.375L636.369 427.138C636.268 425.716 634.998 424.618 633.056 424.618C631.113 424.618 629.742 425.71 629.736 427.291V427.297C629.736 428.649 630.536 429.512 632.396 429.906L633.398 430.122C634.611 430.382 635.106 430.839 635.106 431.543V431.55C635.106 432.4 634.274 432.984 633.106 432.984C631.881 432.984 630.999 432.451 630.923 431.62L630.917 431.55H629.52L629.526 431.632C629.653 433.175 630.98 434.222 633.049 434.222ZM638.324 434H639.702V429.957C639.702 428.846 640.33 428.154 641.339 428.154C642.349 428.154 642.825 428.719 642.825 429.861V434H644.196V429.538C644.196 427.894 643.345 426.973 641.803 426.973C640.8 426.973 640.14 427.417 639.803 428.154H639.702V424.402H638.324V434ZM649.039 434.133C651.058 434.133 652.295 432.781 652.295 430.56V430.547C652.295 428.325 651.051 426.973 649.039 426.973C647.021 426.973 645.776 428.332 645.776 430.547V430.56C645.776 432.781 647.014 434.133 649.039 434.133ZM649.039 432.984C647.852 432.984 647.186 432.089 647.186 430.56V430.547C647.186 429.017 647.852 428.122 649.039 428.122C650.22 428.122 650.893 429.017 650.893 430.547V430.56C650.893 432.083 650.22 432.984 649.039 432.984ZM655 434H656.402L657.824 428.858H657.932L659.36 434H660.776L662.674 427.106H661.309L660.078 432.426H659.97L658.548 427.106H657.24L655.818 432.426H655.717L654.479 427.106H653.095L655 434ZM667.092 434H668.583L669.415 431.524H672.919L673.744 434H675.242L671.935 424.84H670.399L667.092 434ZM671.11 426.446H671.218L672.538 430.382H669.796L671.11 426.446ZM676.74 434H678.118V424.402H676.74V434ZM680.231 434H681.609V424.402H680.231V434ZM691.13 434.222C693.174 434.222 694.666 433.054 694.933 431.296V431.258H693.523L693.511 431.283C693.25 432.318 692.343 432.965 691.13 432.965C689.48 432.965 688.452 431.601 688.452 429.43V429.417C688.452 427.24 689.48 425.875 691.124 425.875C692.33 425.875 693.25 426.605 693.517 427.729V427.748H694.926L694.933 427.716C694.691 425.894 693.143 424.618 691.124 424.618C688.579 424.618 686.998 426.459 686.998 429.417V429.43C686.998 432.381 688.585 434.222 691.13 434.222ZM699.566 434.133C701.585 434.133 702.823 432.781 702.823 430.56V430.547C702.823 428.325 701.579 426.973 699.566 426.973C697.548 426.973 696.304 428.332 696.304 430.547V430.56C696.304 432.781 697.542 434.133 699.566 434.133ZM699.566 432.984C698.379 432.984 697.713 432.089 697.713 430.56V430.547C697.713 429.017 698.379 428.122 699.566 428.122C700.747 428.122 701.42 429.017 701.42 430.547V430.56C701.42 432.083 700.747 432.984 699.566 432.984ZM704.467 434H705.844V429.766C705.844 428.865 706.46 428.154 707.292 428.154C708.104 428.154 708.618 428.649 708.618 429.436V434H709.989V429.639C709.989 428.808 710.567 428.154 711.443 428.154C712.344 428.154 712.776 428.624 712.776 429.576V434H714.147V429.246C714.147 427.811 713.334 426.973 711.944 426.973C710.986 426.973 710.192 427.462 709.843 428.205H709.735C709.431 427.462 708.764 426.973 707.825 426.973C706.923 426.973 706.25 427.411 705.946 428.167H705.844V427.106H704.467V434ZM716.07 434H717.448V429.766C717.448 428.865 718.063 428.154 718.895 428.154C719.708 428.154 720.222 428.649 720.222 429.436V434H721.593V429.639C721.593 428.808 722.17 428.154 723.046 428.154C723.948 428.154 724.379 428.624 724.379 429.576V434H725.75V429.246C725.75 427.811 724.938 426.973 723.548 426.973C722.589 426.973 721.796 427.462 721.447 428.205H721.339C721.034 427.462 720.368 426.973 719.428 426.973C718.527 426.973 717.854 427.411 717.549 428.167H717.448V427.106H716.07V434ZM729.565 434.114C730.479 434.114 731.203 433.721 731.609 433.022H731.717V434H733.082V429.284C733.082 427.836 732.104 426.973 730.372 426.973C728.804 426.973 727.718 427.729 727.553 428.858L727.547 428.903H728.874L728.88 428.877C729.045 428.389 729.546 428.109 730.308 428.109C731.241 428.109 731.717 428.528 731.717 429.284V429.893L729.851 430.001C728.207 430.103 727.28 430.82 727.28 432.051V432.064C727.28 433.314 728.251 434.114 729.565 434.114ZM728.651 432.007V431.994C728.651 431.372 729.083 431.029 730.035 430.972L731.717 430.864V431.455C731.717 432.343 730.962 433.016 729.934 433.016C729.191 433.016 728.651 432.642 728.651 432.007ZM735.024 434H736.402V429.957C736.402 428.846 737.03 428.154 738.04 428.154C739.049 428.154 739.525 428.719 739.525 429.861V434H740.896V429.538C740.896 427.894 740.045 426.973 738.503 426.973C737.5 426.973 736.84 427.417 736.503 428.154H736.402V427.106H735.024V434ZM745.333 434.114C746.298 434.114 747.053 433.67 747.453 432.915H747.561V434H748.932V424.402H747.561V428.198H747.453C747.085 427.456 746.279 426.986 745.333 426.986C743.581 426.986 742.477 428.363 742.477 430.547V430.56C742.477 432.724 743.6 434.114 745.333 434.114ZM745.727 432.94C744.571 432.94 743.879 432.039 743.879 430.56V430.547C743.879 429.068 744.571 428.167 745.727 428.167C746.869 428.167 747.58 429.074 747.58 430.547V430.56C747.58 432.032 746.875 432.94 745.727 432.94ZM753.49 434.133C755.127 434.133 756.346 433.264 756.346 431.988V431.975C756.346 430.979 755.711 430.414 754.385 430.103L753.293 429.855C752.519 429.671 752.201 429.404 752.201 428.973V428.96C752.201 428.408 752.747 428.033 753.502 428.033C754.277 428.033 754.766 428.395 754.899 428.877V428.89H756.213V428.884C756.092 427.76 755.083 426.973 753.509 426.973C751.947 426.973 750.83 427.836 750.83 429.036V429.042C750.83 430.052 751.433 430.642 752.734 430.94L753.833 431.194C754.632 431.378 754.956 431.67 754.956 432.102V432.115C754.956 432.68 754.366 433.067 753.515 433.067C752.696 433.067 752.195 432.718 752.023 432.197L752.017 432.191H750.64V432.197C750.773 433.353 751.827 434.133 753.49 434.133Z"
        fill="#8A8A8A" />
    <path
        d="M642.945 470.222C645.592 470.222 647.217 468.356 647.217 465.423V465.411C647.217 462.472 645.58 460.618 642.945 460.618C640.317 460.618 638.667 462.465 638.667 465.411V465.423C638.667 468.362 640.279 470.222 642.945 470.222ZM642.945 468.965C641.181 468.965 640.121 467.569 640.121 465.423V465.411C640.121 463.246 641.212 461.875 642.945 461.875C644.678 461.875 645.764 463.246 645.764 465.411V465.423C645.764 467.569 644.685 468.965 642.945 468.965ZM648.988 472.298H650.366V468.908H650.467C650.835 469.651 651.642 470.114 652.587 470.114C654.339 470.114 655.444 468.743 655.444 466.56V466.547C655.444 464.376 654.327 462.986 652.587 462.986C651.623 462.986 650.867 463.437 650.467 464.192H650.366V463.106H648.988V472.298ZM652.2 468.94C651.051 468.94 650.34 468.032 650.34 466.56V466.547C650.34 465.074 651.051 464.167 652.2 464.167C653.349 464.167 654.041 465.062 654.041 466.547V466.56C654.041 468.039 653.349 468.94 652.2 468.94ZM659.995 470.133C661.76 470.133 662.712 469.118 662.94 468.21L662.953 468.153L661.626 468.159L661.601 468.21C661.436 468.565 660.909 469.003 660.027 469.003C658.891 469.003 658.167 468.235 658.142 466.915H663.029V466.433C663.029 464.363 661.849 462.973 659.925 462.973C658.002 462.973 656.758 464.414 656.758 466.566V466.572C656.758 468.756 657.977 470.133 659.995 470.133ZM659.932 464.103C660.865 464.103 661.557 464.7 661.665 465.931H658.161C658.281 464.744 658.992 464.103 659.932 464.103ZM664.667 470H666.044V465.957C666.044 464.846 666.673 464.154 667.682 464.154C668.691 464.154 669.167 464.719 669.167 465.861V470H670.539V465.538C670.539 463.894 669.688 462.973 668.146 462.973C667.143 462.973 666.482 463.417 666.146 464.154H666.044V463.106H664.667V470ZM676.175 470H677.597V466.166H681.533V464.966H677.597V462.065H681.895V460.84H676.175V470ZM684.3 461.875C684.77 461.875 685.164 461.488 685.164 461.018C685.164 460.542 684.77 460.155 684.3 460.155C683.824 460.155 683.437 460.542 683.437 461.018C683.437 461.488 683.824 461.875 684.3 461.875ZM683.608 470H684.979V463.106H683.608V470ZM687.049 470H688.426V460.402H687.049V470ZM693.371 470.133C695.136 470.133 696.088 469.118 696.316 468.21L696.329 468.153L695.002 468.159L694.977 468.21C694.812 468.565 694.285 469.003 693.403 469.003C692.267 469.003 691.543 468.235 691.518 466.915H696.405V466.433C696.405 464.363 695.225 462.973 693.301 462.973C691.378 462.973 690.134 464.414 690.134 466.566V466.572C690.134 468.756 691.353 470.133 693.371 470.133ZM693.308 464.103C694.241 464.103 694.933 464.7 695.041 465.931H691.537C691.657 464.744 692.368 464.103 693.308 464.103ZM704.518 470.133C706.536 470.133 707.774 468.781 707.774 466.56V466.547C707.774 464.325 706.53 462.973 704.518 462.973C702.499 462.973 701.255 464.332 701.255 466.547V466.56C701.255 468.781 702.493 470.133 704.518 470.133ZM704.518 468.984C703.331 468.984 702.664 468.089 702.664 466.56V466.547C702.664 465.017 703.331 464.122 704.518 464.122C705.698 464.122 706.371 465.017 706.371 466.547V466.56C706.371 468.083 705.698 468.984 704.518 468.984ZM709.418 470H710.795V465.88C710.795 464.884 711.513 464.236 712.566 464.236C712.827 464.236 713.062 464.268 713.309 464.319V463.049C713.169 463.018 712.928 462.986 712.706 462.986C711.786 462.986 711.145 463.417 710.897 464.147H710.795V463.106H709.418V470ZM718.336 470H719.758V466.166H723.694V464.966H719.758V462.065H724.056V460.84H718.336V470ZM728.664 470.133C730.683 470.133 731.92 468.781 731.92 466.56V466.547C731.92 464.325 730.676 462.973 728.664 462.973C726.646 462.973 725.401 464.332 725.401 466.547V466.56C725.401 468.781 726.639 470.133 728.664 470.133ZM728.664 468.984C727.477 468.984 726.811 468.089 726.811 466.56V466.547C726.811 465.017 727.477 464.122 728.664 464.122C729.845 464.122 730.518 465.017 730.518 466.547V466.56C730.518 468.083 729.845 468.984 728.664 468.984ZM733.628 470H735.005V460.402H733.628V470ZM739.569 470.114C740.534 470.114 741.29 469.67 741.689 468.915H741.797V470H743.168V460.402H741.797V464.198H741.689C741.321 463.456 740.515 462.986 739.569 462.986C737.817 462.986 736.713 464.363 736.713 466.547V466.56C736.713 468.724 737.836 470.114 739.569 470.114ZM739.963 468.94C738.808 468.94 738.116 468.039 738.116 466.56V466.547C738.116 465.068 738.808 464.167 739.963 464.167C741.105 464.167 741.816 465.074 741.816 466.547V466.56C741.816 468.032 741.112 468.94 739.963 468.94ZM748.113 470.133C749.878 470.133 750.83 469.118 751.059 468.21L751.071 468.153L749.745 468.159L749.719 468.21C749.554 468.565 749.027 469.003 748.145 469.003C747.009 469.003 746.285 468.235 746.26 466.915H751.147V466.433C751.147 464.363 749.967 462.973 748.043 462.973C746.12 462.973 744.876 464.414 744.876 466.566V466.572C744.876 468.756 746.095 470.133 748.113 470.133ZM748.05 464.103C748.983 464.103 749.675 464.7 749.783 465.931H746.279C746.399 464.744 747.11 464.103 748.05 464.103ZM752.785 470H754.163V465.88C754.163 464.884 754.88 464.236 755.934 464.236C756.194 464.236 756.429 464.268 756.676 464.319V463.049C756.537 463.018 756.295 462.986 756.073 462.986C755.153 462.986 754.512 463.417 754.264 464.147H754.163V463.106H752.785V470Z"
        fill="#8A8A8A" />
    <path
        d="M681.146 506.222C683.792 506.222 685.417 504.356 685.417 501.423V501.411C685.417 498.472 683.78 496.618 681.146 496.618C678.518 496.618 676.867 498.465 676.867 501.411V501.423C676.867 504.362 678.479 506.222 681.146 506.222ZM681.146 504.965C679.381 504.965 678.321 503.569 678.321 501.423V501.411C678.321 499.246 679.413 497.875 681.146 497.875C682.878 497.875 683.964 499.246 683.964 501.411V501.423C683.964 503.569 682.885 504.965 681.146 504.965ZM687.188 508.298H688.566V504.908H688.667C689.036 505.651 689.842 506.114 690.788 506.114C692.54 506.114 693.644 504.743 693.644 502.56V502.547C693.644 500.376 692.527 498.986 690.788 498.986C689.823 498.986 689.067 499.437 688.667 500.192H688.566V499.106H687.188V508.298ZM690.4 504.94C689.251 504.94 688.541 504.032 688.541 502.56V502.547C688.541 501.074 689.251 500.167 690.4 500.167C691.549 500.167 692.241 501.062 692.241 502.547V502.56C692.241 504.039 691.549 504.94 690.4 504.94ZM698.195 506.133C699.96 506.133 700.912 505.118 701.141 504.21L701.153 504.153L699.827 504.159L699.801 504.21C699.636 504.565 699.109 505.003 698.227 505.003C697.091 505.003 696.367 504.235 696.342 502.915H701.229V502.433C701.229 500.363 700.049 498.973 698.125 498.973C696.202 498.973 694.958 500.414 694.958 502.566V502.572C694.958 504.756 696.177 506.133 698.195 506.133ZM698.132 500.103C699.065 500.103 699.757 500.7 699.865 501.931H696.361C696.481 500.744 697.192 500.103 698.132 500.103ZM702.867 506H704.245V501.957C704.245 500.846 704.873 500.154 705.882 500.154C706.892 500.154 707.368 500.719 707.368 501.861V506H708.739V501.538C708.739 499.894 707.888 498.973 706.346 498.973C705.343 498.973 704.683 499.417 704.346 500.154H704.245V499.106H702.867V506ZM714.375 506H715.797V502.477H717.803L719.669 506H721.313L719.257 502.255C720.374 501.88 721.034 500.877 721.034 499.646V499.633C721.034 497.932 719.866 496.84 717.987 496.84H714.375V506ZM715.797 501.322V498.034H717.803C718.901 498.034 719.574 498.656 719.574 499.671V499.684C719.574 500.725 718.939 501.322 717.848 501.322H715.797ZM725.592 506.133C727.356 506.133 728.309 505.118 728.537 504.21L728.55 504.153L727.223 504.159L727.198 504.21C727.033 504.565 726.506 505.003 725.624 505.003C724.487 505.003 723.764 504.235 723.738 502.915H728.626V502.433C728.626 500.363 727.445 498.973 725.522 498.973C723.599 498.973 722.354 500.414 722.354 502.566V502.572C722.354 504.756 723.573 506.133 725.592 506.133ZM725.528 500.103C726.461 500.103 727.153 500.7 727.261 501.931H723.757C723.878 500.744 724.589 500.103 725.528 500.103ZM733.165 506.133C734.872 506.133 735.856 505.213 736.104 503.874L736.116 503.816H734.796L734.783 503.848C734.561 504.591 734.028 504.984 733.165 504.984C732.028 504.984 731.324 504.058 731.324 502.534V502.521C731.324 501.036 732.016 500.122 733.165 500.122C734.079 500.122 734.637 500.63 734.79 501.309L734.796 501.328L736.116 501.322V501.29C735.926 499.951 734.891 498.973 733.158 498.973C731.146 498.973 729.921 500.338 729.921 502.521V502.534C729.921 504.762 731.152 506.133 733.165 506.133ZM740.572 506.133C742.337 506.133 743.289 505.118 743.518 504.21L743.53 504.153L742.204 504.159L742.178 504.21C742.013 504.565 741.486 505.003 740.604 505.003C739.468 505.003 738.744 504.235 738.719 502.915H743.606V502.433C743.606 500.363 742.426 498.973 740.502 498.973C738.579 498.973 737.335 500.414 737.335 502.566V502.572C737.335 504.756 738.554 506.133 740.572 506.133ZM740.509 500.103C741.442 500.103 742.134 500.7 742.242 501.931H738.738C738.858 500.744 739.569 500.103 740.509 500.103ZM745.244 506H746.622V501.957C746.622 500.846 747.25 500.154 748.259 500.154C749.269 500.154 749.745 500.719 749.745 501.861V506H751.116V501.538C751.116 499.894 750.265 498.973 748.723 498.973C747.72 498.973 747.06 499.417 746.723 500.154H746.622V499.106H745.244V506ZM755.642 506.044C755.908 506.044 756.162 506.013 756.384 505.975V504.876C756.194 504.896 756.073 504.902 755.864 504.902C755.185 504.902 754.905 504.597 754.905 503.854V500.192H756.384V499.106H754.905V497.367H753.502V499.106H752.423V500.192H753.502V504.185C753.502 505.511 754.125 506.044 755.642 506.044Z"
        fill="#8A8A8A" />
    <path
        d="M651.292 542H652.676V535.348H652.778L657.481 542H658.764V532.84H657.38V539.505H657.285L652.575 532.84H651.292V542ZM663.804 542.133C665.568 542.133 666.521 541.118 666.749 540.21L666.762 540.153L665.435 540.159L665.41 540.21C665.245 540.565 664.718 541.003 663.835 541.003C662.699 541.003 661.976 540.235 661.95 538.915H666.838V538.433C666.838 536.363 665.657 534.973 663.734 534.973C661.811 534.973 660.566 536.414 660.566 538.566V538.572C660.566 540.756 661.785 542.133 663.804 542.133ZM663.74 536.103C664.673 536.103 665.365 536.7 665.473 537.931H661.969C662.09 536.744 662.801 536.103 663.74 536.103ZM669.751 542H671.154L672.576 536.858H672.684L674.112 542H675.528L677.426 535.106H676.061L674.83 540.426H674.722L673.3 535.106H671.992L670.57 540.426H670.469L669.231 535.106H667.847L669.751 542ZM686.249 542.222C688.553 542.222 689.956 540.857 689.956 538.845V532.84H688.534V538.737C688.534 540.064 687.709 540.965 686.249 540.965C684.789 540.965 683.958 540.064 683.958 538.737V532.84H682.536V538.845C682.536 540.857 683.951 542.222 686.249 542.222ZM692.089 542H693.466V537.957C693.466 536.846 694.095 536.154 695.104 536.154C696.113 536.154 696.589 536.719 696.589 537.861V542H697.96V537.538C697.96 535.894 697.11 534.973 695.567 534.973C694.564 534.973 693.904 535.417 693.568 536.154H693.466V535.106H692.089V542ZM702.486 542.044C702.753 542.044 703.007 542.013 703.229 541.975V540.876C703.039 540.896 702.918 540.902 702.708 540.902C702.029 540.902 701.75 540.597 701.75 539.854V536.192H703.229V535.106H701.75V533.367H700.347V535.106H699.268V536.192H700.347V540.185C700.347 541.511 700.969 542.044 702.486 542.044ZM705.552 533.875C706.022 533.875 706.416 533.488 706.416 533.018C706.416 532.542 706.022 532.155 705.552 532.155C705.076 532.155 704.689 532.542 704.689 533.018C704.689 533.488 705.076 533.875 705.552 533.875ZM704.86 542H706.231V535.106H704.86V542ZM710.84 542.044C711.106 542.044 711.36 542.013 711.583 541.975V540.876C711.392 540.896 711.271 540.902 711.062 540.902C710.383 540.902 710.104 540.597 710.104 539.854V536.192H711.583V535.106H710.104V533.367H708.701V535.106H707.622V536.192H708.701V540.185C708.701 541.511 709.323 542.044 710.84 542.044ZM713.252 542H714.629V532.402H713.252V542ZM719.574 542.133C721.339 542.133 722.291 541.118 722.52 540.21L722.532 540.153L721.206 540.159L721.18 540.21C721.015 540.565 720.488 541.003 719.606 541.003C718.47 541.003 717.746 540.235 717.721 538.915H722.608V538.433C722.608 536.363 721.428 534.973 719.504 534.973C717.581 534.973 716.337 536.414 716.337 538.566V538.572C716.337 540.756 717.556 542.133 719.574 542.133ZM719.511 536.103C720.444 536.103 721.136 536.7 721.244 537.931H717.74C717.86 536.744 718.571 536.103 719.511 536.103ZM726.76 542.114C727.725 542.114 728.48 541.67 728.88 540.915H728.988V542H730.359V532.402H728.988V536.198H728.88C728.512 535.456 727.706 534.986 726.76 534.986C725.008 534.986 723.903 536.363 723.903 538.547V538.56C723.903 540.724 725.027 542.114 726.76 542.114ZM727.153 540.94C725.998 540.94 725.306 540.039 725.306 538.56V538.547C725.306 537.068 725.998 536.167 727.153 536.167C728.296 536.167 729.007 537.074 729.007 538.547V538.56C729.007 540.032 728.302 540.94 727.153 540.94ZM736.123 542H737.544V538.166H741.48V536.966H737.544V534.065H741.842V532.84H736.123V542ZM744.248 533.875C744.717 533.875 745.111 533.488 745.111 533.018C745.111 532.542 744.717 532.155 744.248 532.155C743.771 532.155 743.384 532.542 743.384 533.018C743.384 533.488 743.771 533.875 744.248 533.875ZM743.556 542H744.927V535.106H743.556V542ZM746.996 542H748.374V532.402H746.996V542ZM753.318 542.133C755.083 542.133 756.035 541.118 756.264 540.21L756.276 540.153L754.95 540.159L754.924 540.21C754.759 540.565 754.232 541.003 753.35 541.003C752.214 541.003 751.49 540.235 751.465 538.915H756.353V538.433C756.353 536.363 755.172 534.973 753.249 534.973C751.325 534.973 750.081 536.414 750.081 538.566V538.572C750.081 540.756 751.3 542.133 753.318 542.133ZM753.255 536.103C754.188 536.103 754.88 536.7 754.988 537.931H751.484C751.604 536.744 752.315 536.103 753.255 536.103Z"
        fill="#8A8A8A" />
    <g filter="url(#filter0_i)">
        <rect x="771" y="420" width="22" height="18" rx="2" fill="#808080" fill-opacity="0.17" />
        <path
            d="M780.594 433.105H783.406C784.127 433.105 784.514 432.684 784.514 432.004V430.064H786.26C786.693 430.064 787.027 429.801 787.027 429.391C787.027 429.139 786.91 428.969 786.699 428.758L782.621 424.674C782.445 424.492 782.234 424.381 782 424.381C781.771 424.381 781.561 424.492 781.379 424.674L777.301 428.758C777.084 428.975 776.973 429.139 776.973 429.391C776.973 429.801 777.307 430.064 777.746 430.064H779.492V432.004C779.492 432.684 779.873 433.105 780.594 433.105ZM780.787 432.121C780.641 432.121 780.535 432.016 780.535 431.863V429.309C780.535 429.197 780.488 429.15 780.377 429.15H778.408C778.385 429.15 778.373 429.145 778.373 429.127C778.373 429.115 778.379 429.104 778.391 429.092L781.947 425.559C781.959 425.541 781.982 425.535 782 425.535C782.018 425.535 782.041 425.541 782.053 425.559L785.609 429.092C785.621 429.104 785.627 429.115 785.627 429.127C785.627 429.145 785.615 429.15 785.598 429.15H783.623C783.512 429.15 783.465 429.197 783.465 429.309V431.863C783.465 432.01 783.359 432.121 783.213 432.121H780.787Z"
            fill="#CCCCCC" />
        <rect x="771.5" y="420.5" width="21" height="17" rx="1.5" stroke="#333333" stroke-opacity="0.6" />
    </g>
    <g filter="url(#filter1_i)">
        <rect x="797" y="420" width="22" height="18" rx="2" fill="#808080" fill-opacity="0.17" />
        <path
            d="M806.154 427.85V429.695H805.352C804.396 429.701 803.617 430.451 803.617 431.412C803.617 432.373 804.391 433.152 805.352 433.152C806.307 433.152 807.086 432.373 807.086 431.412V430.621H808.908V431.412C808.908 432.373 809.688 433.152 810.643 433.152C811.604 433.152 812.383 432.373 812.383 431.412C812.383 430.451 811.604 429.701 810.643 429.695H809.846V427.85H810.643C811.604 427.85 812.383 427.094 812.383 426.133C812.383 425.172 811.604 424.393 810.643 424.393C809.688 424.393 808.908 425.172 808.908 426.133V426.93H807.086V426.133C807.086 425.172 806.307 424.393 805.352 424.393C804.391 424.393 803.617 425.172 803.617 426.133C803.617 427.094 804.396 427.85 805.352 427.85H806.154ZM805.363 426.941C804.918 426.941 804.555 426.578 804.555 426.133C804.555 425.693 804.918 425.33 805.352 425.33C805.785 425.33 806.154 425.693 806.154 426.145V426.941H805.363ZM810.631 426.941H809.846V426.145C809.846 425.693 810.209 425.33 810.643 425.33C811.082 425.33 811.439 425.693 811.439 426.133C811.439 426.578 811.082 426.941 810.631 426.941ZM807.086 429.707V427.844H808.908V429.707H807.086ZM805.363 430.604H806.154V431.395C806.154 431.846 805.785 432.209 805.352 432.209C804.918 432.209 804.555 431.852 804.555 431.406C804.555 430.967 804.918 430.604 805.363 430.604ZM810.631 430.604C811.082 430.604 811.439 430.967 811.439 431.406C811.439 431.852 811.082 432.209 810.643 432.209C810.209 432.209 809.846 431.846 809.846 431.395V430.604H810.631Z"
            fill="#CCCCCC" />
        <rect x="797.5" y="420.5" width="21" height="17" rx="1.5" stroke="#333333" stroke-opacity="0.6" />
    </g>
    <g filter="url(#filter2_i)">
        <rect x="823" y="420" width="18" height="18" rx="2" fill="#808080" fill-opacity="0.17" />
        <path
            d="M829.164 433H830.477V430.111H832.457C834.115 430.111 835.264 428.98 835.264 427.328V427.316C835.264 425.658 834.115 424.545 832.457 424.545H829.164V433ZM832.129 425.652C833.266 425.652 833.928 426.268 833.928 427.322V427.334C833.928 428.395 833.266 429.01 832.129 429.01H830.477V425.652H832.129Z"
            fill="#CCCCCC" />
        <rect x="823.5" y="420.5" width="17" height="17" rx="1.5" stroke="#333333" stroke-opacity="0.6" />
    </g>
    <g filter="url(#filter3_i)">
        <rect x="771" y="456" width="22" height="18" rx="2" fill="#808080" fill-opacity="0.17" />
        <path
            d="M780.154 463.85V465.695H779.352C778.396 465.701 777.617 466.451 777.617 467.412C777.617 468.373 778.391 469.152 779.352 469.152C780.307 469.152 781.086 468.373 781.086 467.412V466.621H782.908V467.412C782.908 468.373 783.688 469.152 784.643 469.152C785.604 469.152 786.383 468.373 786.383 467.412C786.383 466.451 785.604 465.701 784.643 465.695H783.846V463.85H784.643C785.604 463.85 786.383 463.094 786.383 462.133C786.383 461.172 785.604 460.393 784.643 460.393C783.688 460.393 782.908 461.172 782.908 462.133V462.93H781.086V462.133C781.086 461.172 780.307 460.393 779.352 460.393C778.391 460.393 777.617 461.172 777.617 462.133C777.617 463.094 778.396 463.85 779.352 463.85H780.154ZM779.363 462.941C778.918 462.941 778.555 462.578 778.555 462.133C778.555 461.693 778.918 461.33 779.352 461.33C779.785 461.33 780.154 461.693 780.154 462.145V462.941H779.363ZM784.631 462.941H783.846V462.145C783.846 461.693 784.209 461.33 784.643 461.33C785.082 461.33 785.439 461.693 785.439 462.133C785.439 462.578 785.082 462.941 784.631 462.941ZM781.086 465.707V463.844H782.908V465.707H781.086ZM779.363 466.604H780.154V467.395C780.154 467.846 779.785 468.209 779.352 468.209C778.918 468.209 778.555 467.852 778.555 467.406C778.555 466.967 778.918 466.604 779.363 466.604ZM784.631 466.604C785.082 466.604 785.439 466.967 785.439 467.406C785.439 467.852 785.082 468.209 784.643 468.209C784.209 468.209 783.846 467.846 783.846 467.395V466.604H784.631Z"
            fill="#CCCCCC" />
        <rect x="771.5" y="456.5" width="21" height="17" rx="1.5" stroke="#333333" stroke-opacity="0.6" />
    </g>
    <g filter="url(#filter4_i)">
        <rect x="797" y="456" width="20" height="18" rx="2" fill="#808080" fill-opacity="0.17" />
        <path
            d="M807 469.205C809.443 469.205 810.943 467.482 810.943 464.775V464.764C810.943 462.051 809.432 460.34 807 460.34C804.574 460.34 803.051 462.045 803.051 464.764V464.775C803.051 467.488 804.539 469.205 807 469.205ZM807 468.045C805.371 468.045 804.393 466.756 804.393 464.775V464.764C804.393 462.766 805.4 461.5 807 461.5C808.6 461.5 809.602 462.766 809.602 464.764V464.775C809.602 466.756 808.605 468.045 807 468.045Z"
            fill="#CCCCCC" />
        <rect x="797.5" y="456.5" width="19" height="17" rx="1.5" stroke="#333333" stroke-opacity="0.6" />
    </g>
    <g filter="url(#filter5_i)">
        <rect x="771" y="528" width="22" height="18" rx="2" fill="#808080" fill-opacity="0.17" />
        <path
            d="M780.154 535.85V537.695H779.352C778.396 537.701 777.617 538.451 777.617 539.412C777.617 540.373 778.391 541.152 779.352 541.152C780.307 541.152 781.086 540.373 781.086 539.412V538.621H782.908V539.412C782.908 540.373 783.688 541.152 784.643 541.152C785.604 541.152 786.383 540.373 786.383 539.412C786.383 538.451 785.604 537.701 784.643 537.695H783.846V535.85H784.643C785.604 535.85 786.383 535.094 786.383 534.133C786.383 533.172 785.604 532.393 784.643 532.393C783.688 532.393 782.908 533.172 782.908 534.133V534.93H781.086V534.133C781.086 533.172 780.307 532.393 779.352 532.393C778.391 532.393 777.617 533.172 777.617 534.133C777.617 535.094 778.396 535.85 779.352 535.85H780.154ZM779.363 534.941C778.918 534.941 778.555 534.578 778.555 534.133C778.555 533.693 778.918 533.33 779.352 533.33C779.785 533.33 780.154 533.693 780.154 534.145V534.941H779.363ZM784.631 534.941H783.846V534.145C783.846 533.693 784.209 533.33 784.643 533.33C785.082 533.33 785.439 533.693 785.439 534.133C785.439 534.578 785.082 534.941 784.631 534.941ZM781.086 537.707V535.844H782.908V537.707H781.086ZM779.363 538.604H780.154V539.395C780.154 539.846 779.785 540.209 779.352 540.209C778.918 540.209 778.555 539.852 778.555 539.406C778.555 538.967 778.918 538.604 779.363 538.604ZM784.631 538.604C785.082 538.604 785.439 538.967 785.439 539.406C785.439 539.852 785.082 540.209 784.643 540.209C784.209 540.209 783.846 539.846 783.846 539.395V538.604H784.631Z"
            fill="#CCCCCC" />
        <rect x="771.5" y="528.5" width="21" height="17" rx="1.5" stroke="#333333" stroke-opacity="0.6" />
    </g>
    <g filter="url(#filter6_i)">
        <rect x="797" y="528" width="20" height="18" rx="2" fill="#808080" fill-opacity="0.17" />
        <path
            d="M803.549 541H804.826V534.859H804.92L809.262 541H810.445V532.545H809.168V538.697H809.08L804.732 532.545H803.549V541Z"
            fill="#CCCCCC" />
        <rect x="797.5" y="528.5" width="19" height="17" rx="1.5" stroke="#333333" stroke-opacity="0.6" />
    </g>
    <g filter="url(#filter7_i)">
        <rect x="771" y="492" width="21" height="18" rx="2" fill="#808080" fill-opacity="0.17" />
        <path
            d="M777.516 500.172L781.043 496.615C781.178 496.48 781.33 496.416 781.5 496.416C781.67 496.416 781.828 496.48 781.951 496.615L785.479 500.178C785.59 500.289 785.648 500.424 785.648 500.594C785.648 500.928 785.391 501.186 785.057 501.186C784.898 501.186 784.746 501.121 784.629 501.004L781.5 497.84L778.365 501.004C778.254 501.115 778.102 501.186 777.938 501.186C777.604 501.186 777.346 500.928 777.346 500.594C777.346 500.43 777.404 500.289 777.516 500.172Z"
            fill="#CCCCCC" />
        <rect x="771.5" y="492.5" width="20" height="17" rx="1.5" stroke="#333333" stroke-opacity="0.6" />
    </g>
    <g filter="url(#filter8_i)">
        <rect x="796" y="492" width="19" height="18" rx="2" fill="#808080" fill-opacity="0.17" />
        <path
            d="M802.553 505H803.865V501.748H805.717L807.439 505H808.957L807.059 501.543C808.09 501.197 808.699 500.271 808.699 499.135V499.123C808.699 497.553 807.621 496.545 805.887 496.545H802.553V505ZM803.865 500.682V497.646H805.717C806.73 497.646 807.352 498.221 807.352 499.158V499.17C807.352 500.131 806.766 500.682 805.758 500.682H803.865Z"
            fill="#CCCCCC" />
        <rect x="796.5" y="492.5" width="18" height="17" rx="1.5" stroke="#333333" stroke-opacity="0.6" />
    </g>
    <path
        d="M848.234 149.9L797.598 125.503C795.366 124.435 792.909 123.922 790.437 124.01C787.965 124.097 785.55 124.781 783.398 126.004C782.421 126.557 781.51 127.218 780.681 127.976C780.575 128.062 780.479 128.158 780.383 128.255C780.296 128.327 780.212 128.404 780.134 128.486L683.163 217.039L640.918 184.946C639.016 183.515 636.675 182.794 634.298 182.906C631.922 183.019 629.659 183.958 627.899 185.562L614.352 197.866C613.299 198.828 612.458 199.999 611.882 201.306C611.307 202.612 611.01 204.024 611.01 205.451C611.01 206.879 611.307 208.291 611.882 209.597C612.458 210.904 613.299 212.075 614.352 213.037L650.971 246.496L614.343 279.945C613.29 280.907 612.448 282.078 611.873 283.385C611.297 284.691 611 286.103 611 287.531C611 288.958 611.297 290.37 611.873 291.677C612.448 292.983 613.29 294.154 614.343 295.116L627.899 307.459C629.669 309.068 631.945 310.007 634.334 310.113C636.722 310.218 639.071 309.483 640.976 308.036L683.221 275.943L780.191 364.497C780.278 364.593 780.383 364.679 780.479 364.775L780.739 365.006C782.99 367.064 785.804 368.399 788.819 368.84C791.834 369.281 794.912 368.807 797.656 367.479L848.292 343.082C850.9 341.826 853.101 339.858 854.642 337.404C856.182 334.949 857 332.109 857 329.21V163.743C856.989 160.843 856.16 158.004 854.61 155.555C853.059 153.106 850.849 151.145 848.234 149.9ZM721.942 246.496L795.496 190.584V302.398L721.942 246.496Z"
        fill="#151515" />
    <path
        d="M0 16C0 10.3995 0 7.59921 1.08993 5.46009C2.04867 3.57847 3.57847 2.04867 5.46009 1.08993C7.59921 0 10.3995 0 16 0H1084C1089.6 0 1092.4 0 1094.54 1.08993C1096.42 2.04867 1097.95 3.57847 1098.91 5.46009C1100 7.59921 1100 10.3995 1100 16V28H0V16Z"
        fill="#3B3B3B" />
    <path fill-rule="evenodd" clip-rule="evenodd"
        d="M14 20C17.3137 20 20 17.3137 20 14C20 10.6863 17.3137 8 14 8C10.6863 8 8 10.6863 8 14C8 17.3137 10.6863 20 14 20Z"
        fill="#FF5E57" />
    <path fill-rule="evenodd" clip-rule="evenodd"
        d="M34 20C37.3137 20 40 17.3137 40 14C40 10.6863 37.3137 8 34 8C30.6863 8 28 10.6863 28 14C28 17.3137 30.6863 20 34 20Z"
        fill="#FFBB2E" />
    <path fill-rule="evenodd" clip-rule="evenodd"
        d="M54 20C57.3137 20 60 17.3137 60 14C60 10.6863 57.3137 8 54 8C50.6863 8 48 10.6863 48 14C48 17.3137 50.6863 20 54 20Z"
        fill="#38C149" />
    <path
        d="M514.14 19H515.244V14.7598C515.244 13.7949 515.923 13.0142 516.818 13.0142C517.682 13.0142 518.24 13.541 518.24 14.3535V19H519.345V14.6011C519.345 13.7314 519.973 13.0142 520.925 13.0142C521.89 13.0142 522.354 13.5156 522.354 14.5249V19H523.458V14.271C523.458 12.8364 522.677 12.0366 521.281 12.0366C520.335 12.0366 519.554 12.5127 519.186 13.2363H519.085C518.767 12.5254 518.12 12.0366 517.193 12.0366C516.298 12.0366 515.651 12.4619 515.346 13.1982H515.244V12.1572H514.14V19ZM525.729 21.3994C526.942 21.3994 527.507 20.9551 528.072 19.4189L530.744 12.1572H529.582L527.71 17.7876H527.608L525.729 12.1572H524.549L527.081 19.0063L526.954 19.4126C526.707 20.1997 526.326 20.4854 525.698 20.4854C525.545 20.4854 525.374 20.479 525.241 20.4536V21.3613C525.393 21.3867 525.583 21.3994 525.729 21.3994ZM531.93 15.8262H536.195V14.7979H531.93V15.8262ZM540.898 19.1206C542.51 19.1206 543.488 18.2065 543.723 17.2798L543.735 17.229H542.631L542.605 17.2861C542.421 17.6987 541.85 18.1367 540.923 18.1367C539.704 18.1367 538.924 17.3115 538.892 15.896H543.818V15.4644C543.818 13.4204 542.688 12.0366 540.828 12.0366C538.968 12.0366 537.762 13.4839 537.762 15.5977V15.604C537.762 17.7495 538.943 19.1206 540.898 19.1206ZM540.822 13.0205C541.831 13.0205 542.58 13.6616 542.694 15.0137H538.911C539.032 13.7124 539.806 13.0205 540.822 13.0205ZM544.68 19H545.918L547.543 16.4165H547.644L549.263 19H550.558L548.203 15.5342L550.526 12.1572H549.288L547.682 14.7026H547.581L545.956 12.1572H544.654L547.022 15.5786L544.68 19ZM553.87 19.1206C554.79 19.1206 555.508 18.7207 555.939 17.9907H556.041V19H557.145V14.3154C557.145 12.8936 556.212 12.0366 554.543 12.0366C553.083 12.0366 552.042 12.7603 551.864 13.833L551.858 13.8711H552.962L552.969 13.8521C553.146 13.3188 553.686 13.0142 554.505 13.0142C555.527 13.0142 556.041 13.4712 556.041 14.3154V14.9375L554.079 15.0581C552.486 15.1533 551.585 15.8579 551.585 17.0767V17.0894C551.585 18.3335 552.569 19.1206 553.87 19.1206ZM552.715 17.064V17.0513C552.715 16.3721 553.172 16.0039 554.213 15.9404L556.041 15.8262V16.4482C556.041 17.4258 555.222 18.1621 554.099 18.1621C553.305 18.1621 552.715 17.7559 552.715 17.064ZM559.112 19H560.216V14.7598C560.216 13.7949 560.896 13.0142 561.791 13.0142C562.654 13.0142 563.213 13.541 563.213 14.3535V19H564.317V14.6011C564.317 13.7314 564.945 13.0142 565.898 13.0142C566.862 13.0142 567.326 13.5156 567.326 14.5249V19H568.43V14.271C568.43 12.8364 567.65 12.0366 566.253 12.0366C565.307 12.0366 564.526 12.5127 564.158 13.2363H564.057C563.739 12.5254 563.092 12.0366 562.165 12.0366C561.27 12.0366 560.623 12.4619 560.318 13.1982H560.216V12.1572H559.112V19ZM570.371 21.2852H571.476V17.9209H571.578C571.952 18.6509 572.771 19.1206 573.71 19.1206C575.45 19.1206 576.579 17.7305 576.579 15.585V15.5723C576.579 13.4395 575.443 12.0366 573.71 12.0366C572.758 12.0366 571.996 12.4873 571.578 13.249H571.476V12.1572H570.371V21.2852ZM573.456 18.1431C572.212 18.1431 571.451 17.1655 571.451 15.585V15.5723C571.451 13.9917 572.212 13.0142 573.456 13.0142C574.707 13.0142 575.45 13.979 575.45 15.5723V15.585C575.45 17.1782 574.707 18.1431 573.456 18.1431ZM578.318 19H579.422V9.44043H578.318V19ZM584.283 19.1206C585.895 19.1206 586.873 18.2065 587.108 17.2798L587.12 17.229H586.016L585.991 17.2861C585.807 17.6987 585.235 18.1367 584.308 18.1367C583.09 18.1367 582.309 17.3115 582.277 15.896H587.203V15.4644C587.203 13.4204 586.073 12.0366 584.213 12.0366C582.353 12.0366 581.147 13.4839 581.147 15.5977V15.604C581.147 17.7495 582.328 19.1206 584.283 19.1206ZM584.207 13.0205C585.216 13.0205 585.965 13.6616 586.079 15.0137H582.296C582.417 13.7124 583.191 13.0205 584.207 13.0205Z"
        fill="white" />
    <defs>
        <filter id="filter0_i" x="771" y="420" width="22" height="18" filterUnits="userSpaceOnUse"
            color-interpolation-filters="sRGB">
            <feFlood flood-opacity="0" result="BackgroundImageFix" />
            <feBlend mode="normal" in="SourceGraphic" in2="BackgroundImageFix" result="shape" />
            <feColorMatrix in="SourceAlpha" type="matrix" values="0 0 0 0 0 0 0 0 0 0 0 0 0 0 0 0 0 0 127 0"
                result="hardAlpha" />
            <feOffset dy="-2" />
            <feComposite in2="hardAlpha" operator="arithmetic" k2="-1" k3="1" />
            <feColorMatrix type="matrix" values="0 0 0 0 0.266667 0 0 0 0 0.266667 0 0 0 0 0.266667 0 0 0 0.6 0" />
            <feBlend mode="normal" in2="shape" result="effect1_innerShadow" />
        </filter>
        <filter id="filter1_i" x="797" y="420" width="22" height="18" filterUnits="userSpaceOnUse"
            color-interpolation-filters="sRGB">
            <feFlood flood-opacity="0" result="BackgroundImageFix" />
            <feBlend mode="normal" in="SourceGraphic" in2="BackgroundImageFix" result="shape" />
            <feColorMatrix in="SourceAlpha" type="matrix" values="0 0 0 0 0 0 0 0 0 0 0 0 0 0 0 0 0 0 127 0"
                result="hardAlpha" />
            <feOffset dy="-2" />
            <feComposite in2="hardAlpha" operator="arithmetic" k2="-1" k3="1" />
            <feColorMatrix type="matrix" values="0 0 0 0 0.266667 0 0 0 0 0.266667 0 0 0 0 0.266667 0 0 0 0.6 0" />
            <feBlend mode="normal" in2="shape" result="effect1_innerShadow" />
        </filter>
        <filter id="filter2_i" x="823" y="420" width="18" height="18" filterUnits="userSpaceOnUse"
            color-interpolation-filters="sRGB">
            <feFlood flood-opacity="0" result="BackgroundImageFix" />
            <feBlend mode="normal" in="SourceGraphic" in2="BackgroundImageFix" result="shape" />
            <feColorMatrix in="SourceAlpha" type="matrix" values="0 0 0 0 0 0 0 0 0 0 0 0 0 0 0 0 0 0 127 0"
                result="hardAlpha" />
            <feOffset dy="-2" />
            <feComposite in2="hardAlpha" operator="arithmetic" k2="-1" k3="1" />
            <feColorMatrix type="matrix" values="0 0 0 0 0.266667 0 0 0 0 0.266667 0 0 0 0 0.266667 0 0 0 0.6 0" />
            <feBlend mode="normal" in2="shape" result="effect1_innerShadow" />
        </filter>
        <filter id="filter3_i" x="771" y="456" width="22" height="18" filterUnits="userSpaceOnUse"
            color-interpolation-filters="sRGB">
            <feFlood flood-opacity="0" result="BackgroundImageFix" />
            <feBlend mode="normal" in="SourceGraphic" in2="BackgroundImageFix" result="shape" />
            <feColorMatrix in="SourceAlpha" type="matrix" values="0 0 0 0 0 0 0 0 0 0 0 0 0 0 0 0 0 0 127 0"
                result="hardAlpha" />
            <feOffset dy="-2" />
            <feComposite in2="hardAlpha" operator="arithmetic" k2="-1" k3="1" />
            <feColorMatrix type="matrix" values="0 0 0 0 0.266667 0 0 0 0 0.266667 0 0 0 0 0.266667 0 0 0 0.6 0" />
            <feBlend mode="normal" in2="shape" result="effect1_innerShadow" />
        </filter>
        <filter id="filter4_i" x="797" y="456" width="20" height="18" filterUnits="userSpaceOnUse"
            color-interpolation-filters="sRGB">
            <feFlood flood-opacity="0" result="BackgroundImageFix" />
            <feBlend mode="normal" in="SourceGraphic" in2="BackgroundImageFix" result="shape" />
            <feColorMatrix in="SourceAlpha" type="matrix" values="0 0 0 0 0 0 0 0 0 0 0 0 0 0 0 0 0 0 127 0"
                result="hardAlpha" />
            <feOffset dy="-2" />
            <feComposite in2="hardAlpha" operator="arithmetic" k2="-1" k3="1" />
            <feColorMatrix type="matrix" values="0 0 0 0 0.266667 0 0 0 0 0.266667 0 0 0 0 0.266667 0 0 0 0.6 0" />
            <feBlend mode="normal" in2="shape" result="effect1_innerShadow" />
        </filter>
        <filter id="filter5_i" x="771" y="528" width="22" height="18" filterUnits="userSpaceOnUse"
            color-interpolation-filters="sRGB">
            <feFlood flood-opacity="0" result="BackgroundImageFix" />
            <feBlend mode="normal" in="SourceGraphic" in2="BackgroundImageFix" result="shape" />
            <feColorMatrix in="SourceAlpha" type="matrix" values="0 0 0 0 0 0 0 0 0 0 0 0 0 0 0 0 0 0 127 0"
                result="hardAlpha" />
            <feOffset dy="-2" />
            <feComposite in2="hardAlpha" operator="arithmetic" k2="-1" k3="1" />
            <feColorMatrix type="matrix" values="0 0 0 0 0.266667 0 0 0 0 0.266667 0 0 0 0 0.266667 0 0 0 0.6 0" />
            <feBlend mode="normal" in2="shape" result="effect1_innerShadow" />
        </filter>
        <filter id="filter6_i" x="797" y="528" width="20" height="18" filterUnits="userSpaceOnUse"
            color-interpolation-filters="sRGB">
            <feFlood flood-opacity="0" result="BackgroundImageFix" />
            <feBlend mode="normal" in="SourceGraphic" in2="BackgroundImageFix" result="shape" />
            <feColorMatrix in="SourceAlpha" type="matrix" values="0 0 0 0 0 0 0 0 0 0 0 0 0 0 0 0 0 0 127 0"
                result="hardAlpha" />
            <feOffset dy="-2" />
            <feComposite in2="hardAlpha" operator="arithmetic" k2="-1" k3="1" />
            <feColorMatrix type="matrix" values="0 0 0 0 0.266667 0 0 0 0 0.266667 0 0 0 0 0.266667 0 0 0 0.6 0" />
            <feBlend mode="normal" in2="shape" result="effect1_innerShadow" />
        </filter>
        <filter id="filter7_i" x="771" y="492" width="21" height="18" filterUnits="userSpaceOnUse"
            color-interpolation-filters="sRGB">
            <feFlood flood-opacity="0" result="BackgroundImageFix" />
            <feBlend mode="normal" in="SourceGraphic" in2="BackgroundImageFix" result="shape" />
            <feColorMatrix in="SourceAlpha" type="matrix" values="0 0 0 0 0 0 0 0 0 0 0 0 0 0 0 0 0 0 127 0"
                result="hardAlpha" />
            <feOffset dy="-2" />
            <feComposite in2="hardAlpha" operator="arithmetic" k2="-1" k3="1" />
            <feColorMatrix type="matrix" values="0 0 0 0 0.266667 0 0 0 0 0.266667 0 0 0 0 0.266667 0 0 0 0.6 0" />
            <feBlend mode="normal" in2="shape" result="effect1_innerShadow" />
        </filter>
        <filter id="filter8_i" x="796" y="492" width="19" height="18" filterUnits="userSpaceOnUse"
            color-interpolation-filters="sRGB">
            <feFlood flood-opacity="0" result="BackgroundImageFix" />
            <feBlend mode="normal" in="SourceGraphic" in2="BackgroundImageFix" result="shape" />
            <feColorMatrix in="SourceAlpha" type="matrix" values="0 0 0 0 0 0 0 0 0 0 0 0 0 0 0 0 0 0 127 0"
                result="hardAlpha" />
            <feOffset dy="-2" />
            <feComposite in2="hardAlpha" operator="arithmetic" k2="-1" k3="1" />
            <feColorMatrix type="matrix" values="0 0 0 0 0.266667 0 0 0 0 0.266667 0 0 0 0 0.266667 0 0 0 0.6 0" />
            <feBlend mode="normal" in2="shape" result="effect1_innerShadow" />
        </filter>
        <clipPath id="clip0">
            <rect width="320" height="616" fill="white" transform="translate(48 28)" />
        </clipPath>
    </defs>
</svg>