<svg width="130" height="133" viewBox="0 0 130 133" fill="none" xmlns="http://www.w3.org/2000/svg">
<rect x="0.5" y="0.5" width="129" height="89" rx="3.5" fill="#242528" fill-opacity="0.5" stroke="#494A50" stroke-dasharray="3 3"/>
<g filter="url(#filter0_d)">
<rect x="29.2246" y="27.6682" width="70" height="90" rx="4" transform="rotate(4 29.2246 27.6682)" fill="url(#paint0_linear)"/>
</g>
<rect x="38.5029" y="38.3413" width="50" height="3" rx="1.5" transform="rotate(4 38.5029 38.3413)" fill="#94969E"/>
<rect x="43.0029" y="45.6731" width="4" height="3" rx="1.5" transform="rotate(4 43.0029 45.6731)" fill="#FDE155"/>
<rect x="50.9834" y="46.2312" width="30" height="3" rx="1.5" transform="rotate(4 50.9834 46.2312)" fill="#94969E"/>
<rect x="42.5137" y="52.656" width="4" height="3" rx="1.5" transform="rotate(4 42.5137 52.656)" fill="#FDE155"/>
<rect x="50.4951" y="53.2141" width="16" height="3" rx="1.5" transform="rotate(4 50.4951 53.2141)" fill="#94969E"/>
<rect x="36.6191" y="65.2756" width="50" height="3" rx="1.5" transform="rotate(4 36.6191 65.2756)" fill="#94969E"/>
<rect x="41.1191" y="72.6074" width="4" height="3" rx="1.5" transform="rotate(4 41.1191 72.6074)" fill="#FDE155"/>
<rect x="49.0996" y="73.1655" width="30" height="3" rx="1.5" transform="rotate(4 49.0996 73.1655)" fill="#94969E"/>
<rect x="40.6299" y="79.5903" width="4" height="3" rx="1.5" transform="rotate(4 40.6299 79.5903)" fill="#FDE155"/>
<rect x="48.6113" y="80.1484" width="16" height="3" rx="1.5" transform="rotate(4 48.6113 80.1484)" fill="#94969E"/>
<path d="M76.2043 106.929C76.4262 107.461 76.7961 107.922 77.2715 108.257C77.7468 108.592 78.3084 108.789 78.8916 108.825C80.0703 108.907 80.864 108.38 80.92 107.579C80.9871 106.619 80.237 106.225 78.9794 105.576L78.2888 105.226C76.2967 104.221 75.008 103.048 75.1674 100.769C75.3143 98.6686 77.0519 97.1846 79.5921 97.3622C80.4207 97.361 81.2318 97.6002 81.924 98.05C82.6162 98.4998 83.1589 99.1401 83.484 99.891L81.1709 101.136C81.051 100.767 80.8198 100.442 80.5082 100.205C80.1965 99.9674 79.8191 99.829 79.4261 99.8078C79.2562 99.7789 79.0821 99.7852 78.9149 99.8262C78.7477 99.8672 78.5912 99.942 78.4552 100.046C78.3192 100.15 78.2067 100.281 78.125 100.43C78.0433 100.579 77.9941 100.744 77.9806 100.913C77.9219 101.753 78.4268 102.129 79.6074 102.735L80.298 103.084C82.6438 104.273 83.9352 105.408 83.7717 107.746C83.5955 110.267 81.4873 111.507 78.785 111.318C77.7277 111.31 76.6947 111.002 75.8104 110.429C74.9262 109.857 74.2285 109.045 73.8016 108.092L76.2043 106.929ZM66.1392 106.471C66.5318 107.283 66.8922 107.971 67.8672 108.039C68.8015 108.104 69.4168 107.786 69.5147 106.387L70.1803 96.8685L73.0247 97.0674L72.3564 106.625C72.1537 109.524 70.3341 110.722 67.8138 110.546C66.9203 110.531 66.0516 110.25 65.3221 109.741C64.5926 109.231 64.0364 108.516 63.7268 107.69L66.1392 106.471Z" fill="#FDE155"/>
<path d="M102.742 127.247L98.6246 123.131C98.6016 123.108 98.584 123.08 98.5729 123.05C98.5618 123.02 98.5575 122.987 98.5604 122.955C98.5632 122.923 98.5732 122.892 98.5894 122.864C98.6057 122.836 98.628 122.812 98.6546 122.794L101.301 120.959C101.437 120.864 101.544 120.733 101.609 120.58C101.675 120.428 101.695 120.26 101.669 120.096C101.643 119.932 101.571 119.778 101.462 119.653C101.353 119.528 101.21 119.437 101.051 119.389L89.8513 116.028C89.7369 115.994 89.6154 115.991 89.4997 116.021C89.384 116.05 89.2784 116.11 89.194 116.194C89.1096 116.279 89.0496 116.384 89.0203 116.5C88.991 116.616 88.9935 116.737 89.0275 116.852L92.3888 128.053C92.4365 128.212 92.5282 128.354 92.6532 128.464C92.7783 128.573 92.9316 128.645 93.0956 128.671C93.2597 128.697 93.4277 128.676 93.5804 128.611C93.7331 128.545 93.8642 128.438 93.9588 128.302L95.7925 125.656C95.8108 125.629 95.8348 125.607 95.8626 125.591C95.8905 125.574 95.9216 125.564 95.9537 125.562C95.9858 125.559 96.0182 125.563 96.0486 125.574C96.0789 125.585 96.1065 125.602 96.1294 125.625L100.247 129.742C100.412 129.907 100.636 130 100.87 130C101.104 130 101.328 129.907 101.494 129.742L102.742 128.494C102.907 128.329 103 128.104 103 127.87C103 127.637 102.907 127.412 102.742 127.247Z" fill="#D7D7DB"/>
<defs>
<filter id="filter0_d" x="12.9463" y="17.6682" width="96.1076" height="114.664" filterUnits="userSpaceOnUse" color-interpolation-filters="sRGB">
<feFlood flood-opacity="0" result="BackgroundImageFix"/>
<feColorMatrix in="SourceAlpha" type="matrix" values="0 0 0 0 0 0 0 0 0 0 0 0 0 0 0 0 0 0 127 0"/>
<feOffset/>
<feGaussianBlur stdDeviation="5"/>
<feColorMatrix type="matrix" values="0 0 0 0 0.0901961 0 0 0 0 0.0941176 0 0 0 0 0.109804 0 0 0 0.75 0"/>
<feBlend mode="normal" in2="BackgroundImageFix" result="effect1_dropShadow"/>
<feBlend mode="normal" in="SourceGraphic" in2="effect1_dropShadow" result="shape"/>
</filter>
<linearGradient id="paint0_linear" x1="99.2246" y1="27.6682" x2="29.2246" y2="117.668" gradientUnits="userSpaceOnUse">
<stop stop-color="#494A50"/>
<stop offset="1" stop-color="#303136"/>
</linearGradient>
</defs>
</svg>
